<?xml version="1.0" encoding="utf-8" standalone="no"?>
<!DOCTYPE svg PUBLIC "-//W3C//DTD SVG 1.1//EN"
  "http://www.w3.org/Graphics/SVG/1.1/DTD/svg11.dtd">
<svg xmlns:xlink="http://www.w3.org/1999/xlink" width="504pt" height="504pt" viewBox="0 0 504 504" xmlns="http://www.w3.org/2000/svg" version="1.1">
 <metadata>
  <rdf:RDF xmlns:dc="http://purl.org/dc/elements/1.1/" xmlns:cc="http://creativecommons.org/ns#" xmlns:rdf="http://www.w3.org/1999/02/22-rdf-syntax-ns#">
   <cc:Work>
    <dc:type rdf:resource="http://purl.org/dc/dcmitype/StillImage"/>
    <dc:date>2025-03-15T13:40:03.894159</dc:date>
    <dc:format>image/svg+xml</dc:format>
    <dc:creator>
     <cc:Agent>
      <dc:title>Matplotlib v3.5.2, https://matplotlib.org/</dc:title>
     </cc:Agent>
    </dc:creator>
   </cc:Work>
  </rdf:RDF>
 </metadata>
 <defs>
  <style type="text/css">*{stroke-linejoin: round; stroke-linecap: butt}</style>
 </defs>
 <g id="figure_1">
  <g id="patch_1">
   <path d="M 0 504 
L 504 504 
L 504 0 
L 0 0 
z
" style="fill: #ffffff"/>
  </g>
  <g id="axes_1">
   <g id="patch_2">
    <path d="M 63 448.56 
L 453.6 448.56 
L 453.6 60.48 
L 63 60.48 
z
" style="fill: #ffffff"/>
   </g>
   <g id="PathCollection_1">
    <path d="M 80.754545 93.32 
C 80.887147 93.32 81.014335 93.267317 81.108099 93.173553 
C 81.201862 93.07979 81.254545 92.952602 81.254545 92.82 
C 81.254545 92.687398 81.201862 92.56021 81.108099 92.466447 
C 81.014335 92.372683 80.887147 92.32 80.754545 92.32 
C 80.621944 92.32 80.494756 92.372683 80.400992 92.466447 
C 80.307229 92.56021 80.254545 92.687398 80.254545 92.82 
C 80.254545 92.952602 80.307229 93.07979 80.400992 93.173553 
C 80.494756 93.267317 80.621944 93.32 80.754545 93.32 
z
" clip-path="url(#p4f1e9fa8f0)" style="fill: #1f77b4; stroke: #1f77b4"/>
    <path d="M 106.209091 93.32 
C 106.341692 93.32 106.468881 93.267317 106.562644 93.173553 
C 106.656408 93.07979 106.709091 92.952602 106.709091 92.82 
C 106.709091 92.687398 106.656408 92.56021 106.562644 92.466447 
C 106.468881 92.372683 106.341692 92.32 106.209091 92.32 
C 106.076489 92.32 105.949301 92.372683 105.855538 92.466447 
C 105.761774 92.56021 105.709091 92.687398 105.709091 92.82 
C 105.709091 92.952602 105.761774 93.07979 105.855538 93.173553 
C 105.949301 93.267317 106.076489 93.32 106.209091 93.32 
z
" clip-path="url(#p4f1e9fa8f0)" style="fill: #1f77b4; stroke: #1f77b4"/>
    <path d="M 118.936364 93.527107 
C 119.123891 93.527107 119.303762 93.452602 119.436364 93.32 
C 119.568965 93.187398 119.64347 93.007527 119.64347 92.82 
C 119.64347 92.632473 119.568965 92.452602 119.436364 92.32 
C 119.303762 92.187398 119.123891 92.112893 118.936364 92.112893 
C 118.748837 92.112893 118.568965 92.187398 118.436364 92.32 
C 118.303762 92.452602 118.229257 92.632473 118.229257 92.82 
C 118.229257 93.007527 118.303762 93.187398 118.436364 93.32 
C 118.568965 93.452602 118.748837 93.527107 118.936364 93.527107 
z
" clip-path="url(#p4f1e9fa8f0)" style="fill: #1f77b4; stroke: #1f77b4"/>
    <path d="M 131.663636 93.686025 
C 131.893309 93.686025 132.113606 93.594776 132.276009 93.432372 
C 132.438412 93.269969 132.529662 93.049673 132.529662 92.82 
C 132.529662 92.590327 132.438412 92.370031 132.276009 92.207628 
C 132.113606 92.045224 131.893309 91.953975 131.663636 91.953975 
C 131.433964 91.953975 131.213667 92.045224 131.051264 92.207628 
C 130.888861 92.370031 130.797611 92.590327 130.797611 92.82 
C 130.797611 93.049673 130.888861 93.269969 131.051264 93.432372 
C 131.213667 93.594776 131.433964 93.686025 131.663636 93.686025 
z
" clip-path="url(#p4f1e9fa8f0)" style="fill: #1f77b4; stroke: #1f77b4"/>
    <path d="M 144.390909 273.986667 
C 144.788714 273.986667 145.170279 273.828617 145.451569 273.547327 
C 145.73286 273.266036 145.890909 272.884471 145.890909 272.486667 
C 145.890909 272.088862 145.73286 271.707297 145.451569 271.426006 
C 145.170279 271.144716 144.788714 270.986667 144.390909 270.986667 
C 143.993104 270.986667 143.611539 271.144716 143.330249 271.426006 
C 143.048959 271.707297 142.890909 272.088862 142.890909 272.486667 
C 142.890909 272.884471 143.048959 273.266036 143.330249 273.547327 
C 143.611539 273.828617 143.993104 273.986667 144.390909 273.986667 
z
" clip-path="url(#p4f1e9fa8f0)" style="fill: #1f77b4; stroke: #1f77b4"/>
    <path d="M 157.118182 218.311288 
C 157.725838 218.311288 158.308689 218.069863 158.738367 217.640185 
C 159.168045 217.210507 159.40947 216.627657 159.40947 216.02 
C 159.40947 215.412343 159.168045 214.829493 158.738367 214.399815 
C 158.308689 213.970137 157.725838 213.728712 157.118182 213.728712 
C 156.510525 213.728712 155.927675 213.970137 155.497997 214.399815 
C 155.068319 214.829493 154.826894 215.412343 154.826894 216.02 
C 154.826894 216.627657 155.068319 217.210507 155.497997 217.640185 
C 155.927675 218.069863 156.510525 218.311288 157.118182 218.311288 
z
" clip-path="url(#p4f1e9fa8f0)" style="fill: #1f77b4; stroke: #1f77b4"/>
    <path d="M 169.845455 332.718613 
C 170.571743 332.718613 171.268383 332.430055 171.781946 331.916492 
C 172.29551 331.402928 172.584067 330.706289 172.584067 329.98 
C 172.584067 329.253711 172.29551 328.557072 171.781946 328.043508 
C 171.268383 327.529945 170.571743 327.241387 169.845455 327.241387 
C 169.119166 327.241387 168.422526 327.529945 167.908963 328.043508 
C 167.395399 328.557072 167.106842 329.253711 167.106842 329.98 
C 167.106842 330.706289 167.395399 331.402928 167.908963 331.916492 
C 168.422526 332.430055 169.119166 332.718613 169.845455 332.718613 
z
" clip-path="url(#p4f1e9fa8f0)" style="fill: #1f77b4; stroke: #1f77b4"/>
    <path d="M 182.572727 241.52 
C 183.500938 241.52 184.391257 241.151218 185.047601 240.494874 
C 185.703945 239.83853 186.072727 238.948211 186.072727 238.02 
C 186.072727 237.091789 185.703945 236.20147 185.047601 235.545126 
C 184.391257 234.888782 183.500938 234.52 182.572727 234.52 
C 181.644516 234.52 180.754198 234.888782 180.097854 235.545126 
C 179.441509 236.20147 179.072727 237.091789 179.072727 238.02 
C 179.072727 238.948211 179.441509 239.83853 180.097854 240.494874 
C 180.754198 241.151218 181.644516 241.52 182.572727 241.52 
z
" clip-path="url(#p4f1e9fa8f0)" style="fill: #1f77b4; stroke: #1f77b4"/>
    <path d="M 195.3 273.942127 
C 196.448363 273.942127 197.549847 273.485878 198.361862 272.673862 
C 199.173878 271.861847 199.630127 270.760363 199.630127 269.612 
C 199.630127 268.463637 199.173878 267.362153 198.361862 266.550138 
C 197.549847 265.738122 196.448363 265.281873 195.3 265.281873 
C 194.151637 265.281873 193.050153 265.738122 192.238138 266.550138 
C 191.426122 267.362153 190.969873 268.463637 190.969873 269.612 
C 190.969873 270.760363 191.426122 271.861847 192.238138 272.673862 
C 193.050153 273.485878 194.151637 273.942127 195.3 273.942127 
z
" clip-path="url(#p4f1e9fa8f0)" style="fill: #1f77b4; stroke: #1f77b4"/>
    <path d="M 208.027273 285.81786 
C 209.556508 285.81786 211.023316 285.210288 212.104649 284.128956 
C 213.185982 283.047623 213.793554 281.580815 213.793554 280.051579 
C 213.793554 278.522343 213.185982 277.055535 212.104649 275.974202 
C 211.023316 274.892869 209.556508 274.285298 208.027273 274.285298 
C 206.498037 274.285298 205.031229 274.892869 203.949896 275.974202 
C 202.868563 277.055535 202.260991 278.522343 202.260991 280.051579 
C 202.260991 281.580815 202.868563 283.047623 203.949896 284.128956 
C 205.031229 285.210288 206.498037 285.81786 208.027273 285.81786 
z
" clip-path="url(#p4f1e9fa8f0)" style="fill: #1f77b4; stroke: #1f77b4"/>
    <path d="M 220.754545 273.431139 
C 222.66235 273.431139 224.492272 272.67316 225.841293 271.324139 
C 227.190314 269.975118 227.948293 268.145195 227.948293 266.237391 
C 227.948293 264.329587 227.190314 262.499665 225.841293 261.150644 
C 224.492272 259.801623 222.66235 259.043644 220.754545 259.043644 
C 218.846741 259.043644 217.016819 259.801623 215.667798 261.150644 
C 214.318777 262.499665 213.560798 264.329587 213.560798 266.237391 
C 213.560798 268.145195 214.318777 269.975118 215.667798 271.324139 
C 217.016819 272.67316 218.846741 273.431139 220.754545 273.431139 
z
" clip-path="url(#p4f1e9fa8f0)" style="fill: #1f77b4; stroke: #1f77b4"/>
    <path d="M 233.481818 315.644366 
C 235.518882 315.644366 237.472787 314.835032 238.913208 313.394611 
C 240.35363 311.954189 241.162964 310.000284 241.162964 307.96322 
C 241.162964 305.926157 240.35363 303.972252 238.913208 302.53183 
C 237.472787 301.091409 235.518882 300.282075 233.481818 300.282075 
C 231.444755 300.282075 229.490849 301.091409 228.050428 302.53183 
C 226.610006 303.972252 225.800672 305.926157 225.800672 307.96322 
C 225.800672 310.000284 226.610006 311.954189 228.050428 313.394611 
C 229.490849 314.835032 231.444755 315.644366 233.481818 315.644366 
z
" clip-path="url(#p4f1e9fa8f0)" style="fill: #1f77b4; stroke: #1f77b4"/>
    <path d="M 246.209091 306.158788 
C 248.74244 306.158788 251.172371 305.152278 252.963719 303.360929 
C 254.755067 301.569581 255.761577 299.13965 255.761577 296.606301 
C 255.761577 294.072952 254.755067 291.643022 252.963719 289.851673 
C 251.172371 288.060325 248.74244 287.053815 246.209091 287.053815 
C 243.675742 287.053815 241.245811 288.060325 239.454463 289.851673 
C 237.663115 291.643022 236.656604 294.072952 236.656604 296.606301 
C 236.656604 299.13965 237.663115 301.569581 239.454463 303.360929 
C 241.245811 305.152278 243.675742 306.158788 246.209091 306.158788 
z
" clip-path="url(#p4f1e9fa8f0)" style="fill: #1f77b4; stroke: #1f77b4"/>
    <path d="M 258.936364 307.820941 
C 261.670015 307.820941 264.29207 306.734849 266.225054 304.801866 
C 268.158037 302.868883 269.244128 300.246827 269.244128 297.513176 
C 269.244128 294.779525 268.158037 292.15747 266.225054 290.224487 
C 264.29207 288.291503 261.670015 287.205412 258.936364 287.205412 
C 256.202713 287.205412 253.580657 288.291503 251.647674 290.224487 
C 249.714691 292.15747 248.6286 294.779525 248.6286 297.513176 
C 248.6286 300.246827 249.714691 302.868883 251.647674 304.801866 
C 253.580657 306.734849 256.202713 307.820941 258.936364 307.820941 
z
" clip-path="url(#p4f1e9fa8f0)" style="fill: #1f77b4; stroke: #1f77b4"/>
    <path d="M 271.663636 318.227275 
C 274.457724 318.227275 277.13775 317.117172 279.113469 315.141454 
C 281.089187 313.165735 282.19929 310.48571 282.19929 307.691622 
C 282.19929 304.897534 281.089187 302.217508 279.113469 300.241789 
C 277.13775 298.266071 274.457724 297.155968 271.663636 297.155968 
C 268.869548 297.155968 266.189523 298.266071 264.213804 300.241789 
C 262.238086 302.217508 261.127983 304.897534 261.127983 307.691622 
C 261.127983 310.48571 262.238086 313.165735 264.213804 315.141454 
C 266.189523 317.117172 268.869548 318.227275 271.663636 318.227275 
z
" clip-path="url(#p4f1e9fa8f0)" style="fill: #1f77b4; stroke: #1f77b4"/>
    <path d="M 284.390909 299.917946 
C 287.032976 299.917946 289.567187 298.868241 291.43541 297.000018 
C 293.303634 295.131794 294.353339 292.597584 294.353339 289.955516 
C 294.353339 287.313449 293.303634 284.779239 291.43541 282.911015 
C 289.567187 281.042791 287.032976 279.993087 284.390909 279.993087 
C 281.748842 279.993087 279.214631 281.042791 277.346408 282.911015 
C 275.478184 284.779239 274.42848 287.313449 274.42848 289.955516 
C 274.42848 292.597584 275.478184 295.131794 277.346408 297.000018 
C 279.214631 298.868241 281.748842 299.917946 284.390909 299.917946 
z
" clip-path="url(#p4f1e9fa8f0)" style="fill: #1f77b4; stroke: #1f77b4"/>
    <path d="M 297.118182 294.170177 
C 299.403396 294.170177 301.59532 293.262252 303.211211 291.646362 
C 304.827101 290.030472 305.735026 287.838547 305.735026 285.553333 
C 305.735026 283.26812 304.827101 281.076195 303.211211 279.460305 
C 301.59532 277.844414 299.403396 276.936489 297.118182 276.936489 
C 294.832968 276.936489 292.641043 277.844414 291.025153 279.460305 
C 289.409263 281.076195 288.501338 283.26812 288.501338 285.553333 
C 288.501338 287.838547 289.409263 290.030472 291.025153 291.646362 
C 292.641043 293.262252 294.832968 294.170177 297.118182 294.170177 
z
" clip-path="url(#p4f1e9fa8f0)" style="fill: #1f77b4; stroke: #1f77b4"/>
    <path d="M 309.845455 289.809555 
C 311.873868 289.809555 313.819476 289.003658 315.253781 287.569353 
C 316.688087 286.135047 317.493984 284.189439 317.493984 282.161026 
C 317.493984 280.132612 316.688087 278.187004 315.253781 276.752699 
C 313.819476 275.318394 311.873868 274.512496 309.845455 274.512496 
C 307.817041 274.512496 305.871433 275.318394 304.437128 276.752699 
C 303.002823 278.187004 302.196925 280.132612 302.196925 282.161026 
C 302.196925 284.189439 303.002823 286.135047 304.437128 287.569353 
C 305.871433 289.003658 307.817041 289.809555 309.845455 289.809555 
z
" clip-path="url(#p4f1e9fa8f0)" style="fill: #1f77b4; stroke: #1f77b4"/>
    <path d="M 322.572727 295.139724 
C 324.196758 295.139724 325.754491 294.49449 326.902854 293.346127 
C 328.051217 292.197764 328.696452 290.640031 328.696452 289.016 
C 328.696452 287.391969 328.051217 285.834236 326.902854 284.685873 
C 325.754491 283.53751 324.196758 282.892276 322.572727 282.892276 
C 320.948697 282.892276 319.390963 283.53751 318.2426 284.685873 
C 317.094237 285.834236 316.449003 287.391969 316.449003 289.016 
C 316.449003 290.640031 317.094237 292.197764 318.2426 293.346127 
C 319.390963 294.49449 320.948697 295.139724 322.572727 295.139724 
z
" clip-path="url(#p4f1e9fa8f0)" style="fill: #1f77b4; stroke: #1f77b4"/>
    <path d="M 335.3 318.948497 
C 336.38539 318.948497 337.426472 318.517267 338.193959 317.74978 
C 338.961446 316.982293 339.392676 315.941211 339.392676 314.855821 
C 339.392676 313.77043 338.961446 312.729349 338.193959 311.961862 
C 337.426472 311.194375 336.38539 310.763145 335.3 310.763145 
C 334.21461 310.763145 333.173528 311.194375 332.406041 311.961862 
C 331.638554 312.729349 331.207324 313.77043 331.207324 314.855821 
C 331.207324 315.941211 331.638554 316.982293 332.406041 317.74978 
C 333.173528 318.517267 334.21461 318.948497 335.3 318.948497 
z
" clip-path="url(#p4f1e9fa8f0)" style="fill: #1f77b4; stroke: #1f77b4"/>
    <path d="M 348.027273 276.160901 
C 349.001691 276.160901 349.936331 275.773761 350.625349 275.084743 
C 351.314367 274.395725 351.701507 273.461085 351.701507 272.486667 
C 351.701507 271.512248 351.314367 270.577608 350.625349 269.88859 
C 349.936331 269.199573 349.001691 268.812432 348.027273 268.812432 
C 347.052854 268.812432 346.118214 269.199573 345.429197 269.88859 
C 344.740179 270.577608 344.353038 271.512248 344.353038 272.486667 
C 344.353038 273.461085 344.740179 274.395725 345.429197 275.084743 
C 346.118214 275.773761 347.052854 276.160901 348.027273 276.160901 
z
" clip-path="url(#p4f1e9fa8f0)" style="fill: #1f77b4; stroke: #1f77b4"/>
    <path d="M 360.754545 272.092281 
C 361.516283 272.092281 362.246925 271.78964 362.785555 271.25101 
C 363.324185 270.71238 363.626827 269.981738 363.626827 269.22 
C 363.626827 268.458262 363.324185 267.72762 362.785555 267.18899 
C 362.246925 266.65036 361.516283 266.347719 360.754545 266.347719 
C 359.992808 266.347719 359.262166 266.65036 358.723536 267.18899 
C 358.184906 267.72762 357.882264 268.458262 357.882264 269.22 
C 357.882264 269.981738 358.184906 270.71238 358.723536 271.25101 
C 359.262166 271.78964 359.992808 272.092281 360.754545 272.092281 
z
" clip-path="url(#p4f1e9fa8f0)" style="fill: #1f77b4; stroke: #1f77b4"/>
    <path d="M 373.481818 280.265751 
C 374.18348 280.265751 374.856497 279.986978 375.352647 279.490829 
C 375.848796 278.994679 376.127569 278.321661 376.127569 277.62 
C 376.127569 276.918339 375.848796 276.245321 375.352647 275.749171 
C 374.856497 275.253022 374.18348 274.974249 373.481818 274.974249 
C 372.780157 274.974249 372.107139 275.253022 371.610989 275.749171 
C 371.11484 276.245321 370.836067 276.918339 370.836067 277.62 
C 370.836067 278.321661 371.11484 278.994679 371.610989 279.490829 
C 372.107139 279.986978 372.780157 280.265751 373.481818 280.265751 
z
" clip-path="url(#p4f1e9fa8f0)" style="fill: #1f77b4; stroke: #1f77b4"/>
    <path d="M 386.209091 158.618034 
C 386.505597 158.618034 386.789999 158.500231 386.99966 158.290569 
C 387.209322 158.080908 387.327125 157.796506 387.327125 157.5 
C 387.327125 157.203494 387.209322 156.919092 386.99966 156.709431 
C 386.789999 156.499769 386.505597 156.381966 386.209091 156.381966 
C 385.912585 156.381966 385.628183 156.499769 385.418521 156.709431 
C 385.20886 156.919092 385.091057 157.203494 385.091057 157.5 
C 385.091057 157.796506 385.20886 158.080908 385.418521 158.290569 
C 385.628183 158.500231 385.912585 158.618034 386.209091 158.618034 
z
" clip-path="url(#p4f1e9fa8f0)" style="fill: #1f77b4; stroke: #1f77b4"/>
    <path d="M 398.936364 336.37 
C 399.201567 336.37 399.455944 336.264634 399.64347 336.077107 
C 399.830997 335.88958 399.936364 335.635203 399.936364 335.37 
C 399.936364 335.104797 399.830997 334.85042 399.64347 334.662893 
C 399.455944 334.475366 399.201567 334.37 398.936364 334.37 
C 398.671161 334.37 398.416784 334.475366 398.229257 334.662893 
C 398.04173 334.85042 397.936364 335.104797 397.936364 335.37 
C 397.936364 335.635203 398.04173 335.88958 398.229257 336.077107 
C 398.416784 336.264634 398.671161 336.37 398.936364 336.37 
z
" clip-path="url(#p4f1e9fa8f0)" style="fill: #1f77b4; stroke: #1f77b4"/>
    <path d="M 411.663636 93.82 
C 411.928839 93.82 412.183216 93.714634 412.370743 93.527107 
C 412.55827 93.33958 412.663636 93.085203 412.663636 92.82 
C 412.663636 92.554797 412.55827 92.30042 412.370743 92.112893 
C 412.183216 91.925366 411.928839 91.82 411.663636 91.82 
C 411.398433 91.82 411.144056 91.925366 410.95653 92.112893 
C 410.769003 92.30042 410.663636 92.554797 410.663636 92.82 
C 410.663636 93.085203 410.769003 93.33958 410.95653 93.527107 
C 411.144056 93.714634 411.398433 93.82 411.663636 93.82 
z
" clip-path="url(#p4f1e9fa8f0)" style="fill: #1f77b4; stroke: #1f77b4"/>
    <path d="M 424.390909 93.527107 
C 424.578436 93.527107 424.758308 93.452602 424.890909 93.32 
C 425.023511 93.187398 425.098016 93.007527 425.098016 92.82 
C 425.098016 92.632473 425.023511 92.452602 424.890909 92.32 
C 424.758308 92.187398 424.578436 92.112893 424.390909 92.112893 
C 424.203382 92.112893 424.023511 92.187398 423.890909 92.32 
C 423.758308 92.452602 423.683802 92.632473 423.683802 92.82 
C 423.683802 93.007527 423.758308 93.187398 423.890909 93.32 
C 424.023511 93.452602 424.203382 93.527107 424.390909 93.527107 
z
" clip-path="url(#p4f1e9fa8f0)" style="fill: #1f77b4; stroke: #1f77b4"/>
   </g>
   <g id="PathCollection_2">
    <defs>
     <path id="md117746e27" d="M 0 3 
C 0.795609 3 1.55874 2.683901 2.12132 2.12132 
C 2.683901 1.55874 3 0.795609 3 0 
C 3 -0.795609 2.683901 -1.55874 2.12132 -2.12132 
C 1.55874 -2.683901 0.795609 -3 0 -3 
C -0.795609 -3 -1.55874 -2.683901 -2.12132 -2.12132 
C -2.683901 -1.55874 -3 -0.795609 -3 0 
C -3 0.795609 -2.683901 1.55874 -2.12132 2.12132 
C -1.55874 2.683901 -0.795609 3 0 3 
z
" style="stroke: #ff7f0e"/>
    </defs>
    <g clip-path="url(#p4f1e9fa8f0)">
     <use xlink:href="#md117746e27" x="80.754545" y="280.223109" style="fill: #ff7f0e; stroke: #ff7f0e"/>
     <use xlink:href="#md117746e27" x="82.027273" y="280.291111" style="fill: #ff7f0e; stroke: #ff7f0e"/>
     <use xlink:href="#md117746e27" x="83.3" y="280.359104" style="fill: #ff7f0e; stroke: #ff7f0e"/>
     <use xlink:href="#md117746e27" x="84.572727" y="280.427088" style="fill: #ff7f0e; stroke: #ff7f0e"/>
     <use xlink:href="#md117746e27" x="85.845455" y="280.495062" style="fill: #ff7f0e; stroke: #ff7f0e"/>
     <use xlink:href="#md117746e27" x="87.118182" y="280.563027" style="fill: #ff7f0e; stroke: #ff7f0e"/>
     <use xlink:href="#md117746e27" x="88.390909" y="280.630983" style="fill: #ff7f0e; stroke: #ff7f0e"/>
     <use xlink:href="#md117746e27" x="89.663636" y="280.698929" style="fill: #ff7f0e; stroke: #ff7f0e"/>
     <use xlink:href="#md117746e27" x="90.936364" y="280.766865" style="fill: #ff7f0e; stroke: #ff7f0e"/>
     <use xlink:href="#md117746e27" x="92.209091" y="280.834792" style="fill: #ff7f0e; stroke: #ff7f0e"/>
     <use xlink:href="#md117746e27" x="93.481818" y="280.90271" style="fill: #ff7f0e; stroke: #ff7f0e"/>
     <use xlink:href="#md117746e27" x="94.754545" y="280.970618" style="fill: #ff7f0e; stroke: #ff7f0e"/>
     <use xlink:href="#md117746e27" x="96.027273" y="281.038516" style="fill: #ff7f0e; stroke: #ff7f0e"/>
     <use xlink:href="#md117746e27" x="97.3" y="281.106405" style="fill: #ff7f0e; stroke: #ff7f0e"/>
     <use xlink:href="#md117746e27" x="98.572727" y="281.174284" style="fill: #ff7f0e; stroke: #ff7f0e"/>
     <use xlink:href="#md117746e27" x="99.845455" y="281.242153" style="fill: #ff7f0e; stroke: #ff7f0e"/>
     <use xlink:href="#md117746e27" x="101.118182" y="281.310013" style="fill: #ff7f0e; stroke: #ff7f0e"/>
     <use xlink:href="#md117746e27" x="102.390909" y="281.377863" style="fill: #ff7f0e; stroke: #ff7f0e"/>
     <use xlink:href="#md117746e27" x="103.663636" y="281.445703" style="fill: #ff7f0e; stroke: #ff7f0e"/>
     <use xlink:href="#md117746e27" x="104.936364" y="281.513534" style="fill: #ff7f0e; stroke: #ff7f0e"/>
     <use xlink:href="#md117746e27" x="106.209091" y="281.581354" style="fill: #ff7f0e; stroke: #ff7f0e"/>
     <use xlink:href="#md117746e27" x="107.481818" y="281.649165" style="fill: #ff7f0e; stroke: #ff7f0e"/>
     <use xlink:href="#md117746e27" x="108.754545" y="281.716967" style="fill: #ff7f0e; stroke: #ff7f0e"/>
     <use xlink:href="#md117746e27" x="110.027273" y="281.784758" style="fill: #ff7f0e; stroke: #ff7f0e"/>
     <use xlink:href="#md117746e27" x="111.3" y="281.852539" style="fill: #ff7f0e; stroke: #ff7f0e"/>
     <use xlink:href="#md117746e27" x="112.572727" y="281.920311" style="fill: #ff7f0e; stroke: #ff7f0e"/>
     <use xlink:href="#md117746e27" x="113.845455" y="281.988073" style="fill: #ff7f0e; stroke: #ff7f0e"/>
     <use xlink:href="#md117746e27" x="115.118182" y="282.055824" style="fill: #ff7f0e; stroke: #ff7f0e"/>
     <use xlink:href="#md117746e27" x="116.390909" y="282.123566" style="fill: #ff7f0e; stroke: #ff7f0e"/>
     <use xlink:href="#md117746e27" x="117.663636" y="282.191298" style="fill: #ff7f0e; stroke: #ff7f0e"/>
     <use xlink:href="#md117746e27" x="118.936364" y="282.25902" style="fill: #ff7f0e; stroke: #ff7f0e"/>
     <use xlink:href="#md117746e27" x="120.209091" y="282.326732" style="fill: #ff7f0e; stroke: #ff7f0e"/>
     <use xlink:href="#md117746e27" x="121.481818" y="282.394433" style="fill: #ff7f0e; stroke: #ff7f0e"/>
     <use xlink:href="#md117746e27" x="122.754545" y="282.462125" style="fill: #ff7f0e; stroke: #ff7f0e"/>
     <use xlink:href="#md117746e27" x="124.027273" y="282.529806" style="fill: #ff7f0e; stroke: #ff7f0e"/>
     <use xlink:href="#md117746e27" x="125.3" y="282.597478" style="fill: #ff7f0e; stroke: #ff7f0e"/>
     <use xlink:href="#md117746e27" x="126.572727" y="282.665139" style="fill: #ff7f0e; stroke: #ff7f0e"/>
     <use xlink:href="#md117746e27" x="127.845455" y="282.73279" style="fill: #ff7f0e; stroke: #ff7f0e"/>
     <use xlink:href="#md117746e27" x="129.118182" y="282.800431" style="fill: #ff7f0e; stroke: #ff7f0e"/>
     <use xlink:href="#md117746e27" x="130.390909" y="282.868062" style="fill: #ff7f0e; stroke: #ff7f0e"/>
     <use xlink:href="#md117746e27" x="131.663636" y="282.935683" style="fill: #ff7f0e; stroke: #ff7f0e"/>
     <use xlink:href="#md117746e27" x="132.936364" y="283.003293" style="fill: #ff7f0e; stroke: #ff7f0e"/>
     <use xlink:href="#md117746e27" x="134.209091" y="283.070893" style="fill: #ff7f0e; stroke: #ff7f0e"/>
     <use xlink:href="#md117746e27" x="135.481818" y="283.138483" style="fill: #ff7f0e; stroke: #ff7f0e"/>
     <use xlink:href="#md117746e27" x="136.754545" y="283.206062" style="fill: #ff7f0e; stroke: #ff7f0e"/>
     <use xlink:href="#md117746e27" x="138.027273" y="283.273631" style="fill: #ff7f0e; stroke: #ff7f0e"/>
     <use xlink:href="#md117746e27" x="139.3" y="283.34119" style="fill: #ff7f0e; stroke: #ff7f0e"/>
     <use xlink:href="#md117746e27" x="140.572727" y="283.408738" style="fill: #ff7f0e; stroke: #ff7f0e"/>
     <use xlink:href="#md117746e27" x="141.845455" y="283.476276" style="fill: #ff7f0e; stroke: #ff7f0e"/>
     <use xlink:href="#md117746e27" x="143.118182" y="283.543803" style="fill: #ff7f0e; stroke: #ff7f0e"/>
     <use xlink:href="#md117746e27" x="144.390909" y="283.61132" style="fill: #ff7f0e; stroke: #ff7f0e"/>
     <use xlink:href="#md117746e27" x="145.663636" y="283.678827" style="fill: #ff7f0e; stroke: #ff7f0e"/>
     <use xlink:href="#md117746e27" x="146.936364" y="283.746323" style="fill: #ff7f0e; stroke: #ff7f0e"/>
     <use xlink:href="#md117746e27" x="148.209091" y="283.813808" style="fill: #ff7f0e; stroke: #ff7f0e"/>
     <use xlink:href="#md117746e27" x="149.481818" y="283.881283" style="fill: #ff7f0e; stroke: #ff7f0e"/>
     <use xlink:href="#md117746e27" x="150.754545" y="283.948747" style="fill: #ff7f0e; stroke: #ff7f0e"/>
     <use xlink:href="#md117746e27" x="152.027273" y="284.016201" style="fill: #ff7f0e; stroke: #ff7f0e"/>
     <use xlink:href="#md117746e27" x="153.3" y="284.083644" style="fill: #ff7f0e; stroke: #ff7f0e"/>
     <use xlink:href="#md117746e27" x="154.572727" y="284.151077" style="fill: #ff7f0e; stroke: #ff7f0e"/>
     <use xlink:href="#md117746e27" x="155.845455" y="284.218499" style="fill: #ff7f0e; stroke: #ff7f0e"/>
     <use xlink:href="#md117746e27" x="157.118182" y="284.28591" style="fill: #ff7f0e; stroke: #ff7f0e"/>
     <use xlink:href="#md117746e27" x="158.390909" y="284.35331" style="fill: #ff7f0e; stroke: #ff7f0e"/>
     <use xlink:href="#md117746e27" x="159.663636" y="284.4207" style="fill: #ff7f0e; stroke: #ff7f0e"/>
     <use xlink:href="#md117746e27" x="160.936364" y="284.488079" style="fill: #ff7f0e; stroke: #ff7f0e"/>
     <use xlink:href="#md117746e27" x="162.209091" y="284.555447" style="fill: #ff7f0e; stroke: #ff7f0e"/>
     <use xlink:href="#md117746e27" x="163.481818" y="284.622804" style="fill: #ff7f0e; stroke: #ff7f0e"/>
     <use xlink:href="#md117746e27" x="164.754545" y="284.690151" style="fill: #ff7f0e; stroke: #ff7f0e"/>
     <use xlink:href="#md117746e27" x="166.027273" y="284.757486" style="fill: #ff7f0e; stroke: #ff7f0e"/>
     <use xlink:href="#md117746e27" x="167.3" y="284.824811" style="fill: #ff7f0e; stroke: #ff7f0e"/>
     <use xlink:href="#md117746e27" x="168.572727" y="284.892125" style="fill: #ff7f0e; stroke: #ff7f0e"/>
     <use xlink:href="#md117746e27" x="169.845455" y="284.959428" style="fill: #ff7f0e; stroke: #ff7f0e"/>
     <use xlink:href="#md117746e27" x="171.118182" y="285.02672" style="fill: #ff7f0e; stroke: #ff7f0e"/>
     <use xlink:href="#md117746e27" x="172.390909" y="285.094002" style="fill: #ff7f0e; stroke: #ff7f0e"/>
     <use xlink:href="#md117746e27" x="173.663636" y="285.161272" style="fill: #ff7f0e; stroke: #ff7f0e"/>
     <use xlink:href="#md117746e27" x="174.936364" y="285.228531" style="fill: #ff7f0e; stroke: #ff7f0e"/>
     <use xlink:href="#md117746e27" x="176.209091" y="285.295779" style="fill: #ff7f0e; stroke: #ff7f0e"/>
     <use xlink:href="#md117746e27" x="177.481818" y="285.363016" style="fill: #ff7f0e; stroke: #ff7f0e"/>
     <use xlink:href="#md117746e27" x="178.754545" y="285.430242" style="fill: #ff7f0e; stroke: #ff7f0e"/>
     <use xlink:href="#md117746e27" x="180.027273" y="285.497457" style="fill: #ff7f0e; stroke: #ff7f0e"/>
     <use xlink:href="#md117746e27" x="181.3" y="285.564661" style="fill: #ff7f0e; stroke: #ff7f0e"/>
     <use xlink:href="#md117746e27" x="182.572727" y="285.631854" style="fill: #ff7f0e; stroke: #ff7f0e"/>
     <use xlink:href="#md117746e27" x="183.845455" y="285.699035" style="fill: #ff7f0e; stroke: #ff7f0e"/>
     <use xlink:href="#md117746e27" x="185.118182" y="285.766206" style="fill: #ff7f0e; stroke: #ff7f0e"/>
     <use xlink:href="#md117746e27" x="186.390909" y="285.833365" style="fill: #ff7f0e; stroke: #ff7f0e"/>
     <use xlink:href="#md117746e27" x="187.663636" y="285.900513" style="fill: #ff7f0e; stroke: #ff7f0e"/>
     <use xlink:href="#md117746e27" x="188.936364" y="285.96765" style="fill: #ff7f0e; stroke: #ff7f0e"/>
     <use xlink:href="#md117746e27" x="190.209091" y="286.034775" style="fill: #ff7f0e; stroke: #ff7f0e"/>
     <use xlink:href="#md117746e27" x="191.481818" y="286.101889" style="fill: #ff7f0e; stroke: #ff7f0e"/>
     <use xlink:href="#md117746e27" x="192.754545" y="286.168992" style="fill: #ff7f0e; stroke: #ff7f0e"/>
     <use xlink:href="#md117746e27" x="194.027273" y="286.236083" style="fill: #ff7f0e; stroke: #ff7f0e"/>
     <use xlink:href="#md117746e27" x="195.3" y="286.303164" style="fill: #ff7f0e; stroke: #ff7f0e"/>
     <use xlink:href="#md117746e27" x="196.572727" y="286.370232" style="fill: #ff7f0e; stroke: #ff7f0e"/>
     <use xlink:href="#md117746e27" x="197.845455" y="286.43729" style="fill: #ff7f0e; stroke: #ff7f0e"/>
     <use xlink:href="#md117746e27" x="199.118182" y="286.504336" style="fill: #ff7f0e; stroke: #ff7f0e"/>
     <use xlink:href="#md117746e27" x="200.390909" y="286.57137" style="fill: #ff7f0e; stroke: #ff7f0e"/>
     <use xlink:href="#md117746e27" x="201.663636" y="286.638393" style="fill: #ff7f0e; stroke: #ff7f0e"/>
     <use xlink:href="#md117746e27" x="202.936364" y="286.705405" style="fill: #ff7f0e; stroke: #ff7f0e"/>
     <use xlink:href="#md117746e27" x="204.209091" y="286.772405" style="fill: #ff7f0e; stroke: #ff7f0e"/>
     <use xlink:href="#md117746e27" x="205.481818" y="286.839393" style="fill: #ff7f0e; stroke: #ff7f0e"/>
     <use xlink:href="#md117746e27" x="206.754545" y="286.90637" style="fill: #ff7f0e; stroke: #ff7f0e"/>
     <use xlink:href="#md117746e27" x="208.027273" y="286.973336" style="fill: #ff7f0e; stroke: #ff7f0e"/>
     <use xlink:href="#md117746e27" x="209.3" y="287.04029" style="fill: #ff7f0e; stroke: #ff7f0e"/>
     <use xlink:href="#md117746e27" x="210.572727" y="287.107232" style="fill: #ff7f0e; stroke: #ff7f0e"/>
     <use xlink:href="#md117746e27" x="211.845455" y="287.174162" style="fill: #ff7f0e; stroke: #ff7f0e"/>
     <use xlink:href="#md117746e27" x="213.118182" y="287.241081" style="fill: #ff7f0e; stroke: #ff7f0e"/>
     <use xlink:href="#md117746e27" x="214.390909" y="287.307988" style="fill: #ff7f0e; stroke: #ff7f0e"/>
     <use xlink:href="#md117746e27" x="215.663636" y="287.374884" style="fill: #ff7f0e; stroke: #ff7f0e"/>
     <use xlink:href="#md117746e27" x="216.936364" y="287.441768" style="fill: #ff7f0e; stroke: #ff7f0e"/>
     <use xlink:href="#md117746e27" x="218.209091" y="287.50864" style="fill: #ff7f0e; stroke: #ff7f0e"/>
     <use xlink:href="#md117746e27" x="219.481818" y="287.5755" style="fill: #ff7f0e; stroke: #ff7f0e"/>
     <use xlink:href="#md117746e27" x="220.754545" y="287.642348" style="fill: #ff7f0e; stroke: #ff7f0e"/>
     <use xlink:href="#md117746e27" x="222.027273" y="287.709185" style="fill: #ff7f0e; stroke: #ff7f0e"/>
     <use xlink:href="#md117746e27" x="223.3" y="287.77601" style="fill: #ff7f0e; stroke: #ff7f0e"/>
     <use xlink:href="#md117746e27" x="224.572727" y="287.842823" style="fill: #ff7f0e; stroke: #ff7f0e"/>
     <use xlink:href="#md117746e27" x="225.845455" y="287.909624" style="fill: #ff7f0e; stroke: #ff7f0e"/>
     <use xlink:href="#md117746e27" x="227.118182" y="287.976413" style="fill: #ff7f0e; stroke: #ff7f0e"/>
     <use xlink:href="#md117746e27" x="228.390909" y="288.04319" style="fill: #ff7f0e; stroke: #ff7f0e"/>
     <use xlink:href="#md117746e27" x="229.663636" y="288.109955" style="fill: #ff7f0e; stroke: #ff7f0e"/>
     <use xlink:href="#md117746e27" x="230.936364" y="288.176709" style="fill: #ff7f0e; stroke: #ff7f0e"/>
     <use xlink:href="#md117746e27" x="232.209091" y="288.24345" style="fill: #ff7f0e; stroke: #ff7f0e"/>
     <use xlink:href="#md117746e27" x="233.481818" y="288.310179" style="fill: #ff7f0e; stroke: #ff7f0e"/>
     <use xlink:href="#md117746e27" x="234.754545" y="288.376897" style="fill: #ff7f0e; stroke: #ff7f0e"/>
     <use xlink:href="#md117746e27" x="236.027273" y="288.443602" style="fill: #ff7f0e; stroke: #ff7f0e"/>
     <use xlink:href="#md117746e27" x="237.3" y="288.510295" style="fill: #ff7f0e; stroke: #ff7f0e"/>
     <use xlink:href="#md117746e27" x="238.572727" y="288.576976" style="fill: #ff7f0e; stroke: #ff7f0e"/>
     <use xlink:href="#md117746e27" x="239.845455" y="288.643645" style="fill: #ff7f0e; stroke: #ff7f0e"/>
     <use xlink:href="#md117746e27" x="241.118182" y="288.710302" style="fill: #ff7f0e; stroke: #ff7f0e"/>
     <use xlink:href="#md117746e27" x="242.390909" y="288.776946" style="fill: #ff7f0e; stroke: #ff7f0e"/>
     <use xlink:href="#md117746e27" x="243.663636" y="288.843579" style="fill: #ff7f0e; stroke: #ff7f0e"/>
     <use xlink:href="#md117746e27" x="244.936364" y="288.910199" style="fill: #ff7f0e; stroke: #ff7f0e"/>
     <use xlink:href="#md117746e27" x="246.209091" y="288.976807" style="fill: #ff7f0e; stroke: #ff7f0e"/>
     <use xlink:href="#md117746e27" x="247.481818" y="289.043403" style="fill: #ff7f0e; stroke: #ff7f0e"/>
     <use xlink:href="#md117746e27" x="248.754545" y="289.109986" style="fill: #ff7f0e; stroke: #ff7f0e"/>
     <use xlink:href="#md117746e27" x="250.027273" y="289.176558" style="fill: #ff7f0e; stroke: #ff7f0e"/>
     <use xlink:href="#md117746e27" x="251.3" y="289.243116" style="fill: #ff7f0e; stroke: #ff7f0e"/>
     <use xlink:href="#md117746e27" x="252.572727" y="289.309663" style="fill: #ff7f0e; stroke: #ff7f0e"/>
     <use xlink:href="#md117746e27" x="253.845455" y="289.376197" style="fill: #ff7f0e; stroke: #ff7f0e"/>
     <use xlink:href="#md117746e27" x="255.118182" y="289.442719" style="fill: #ff7f0e; stroke: #ff7f0e"/>
     <use xlink:href="#md117746e27" x="256.390909" y="289.509228" style="fill: #ff7f0e; stroke: #ff7f0e"/>
     <use xlink:href="#md117746e27" x="257.663636" y="289.575726" style="fill: #ff7f0e; stroke: #ff7f0e"/>
     <use xlink:href="#md117746e27" x="258.936364" y="289.64221" style="fill: #ff7f0e; stroke: #ff7f0e"/>
     <use xlink:href="#md117746e27" x="260.209091" y="289.708682" style="fill: #ff7f0e; stroke: #ff7f0e"/>
     <use xlink:href="#md117746e27" x="261.481818" y="289.775142" style="fill: #ff7f0e; stroke: #ff7f0e"/>
     <use xlink:href="#md117746e27" x="262.754545" y="289.841589" style="fill: #ff7f0e; stroke: #ff7f0e"/>
     <use xlink:href="#md117746e27" x="264.027273" y="289.908024" style="fill: #ff7f0e; stroke: #ff7f0e"/>
     <use xlink:href="#md117746e27" x="265.3" y="289.974446" style="fill: #ff7f0e; stroke: #ff7f0e"/>
     <use xlink:href="#md117746e27" x="266.572727" y="290.040855" style="fill: #ff7f0e; stroke: #ff7f0e"/>
     <use xlink:href="#md117746e27" x="267.845455" y="290.107252" style="fill: #ff7f0e; stroke: #ff7f0e"/>
     <use xlink:href="#md117746e27" x="269.118182" y="290.173636" style="fill: #ff7f0e; stroke: #ff7f0e"/>
     <use xlink:href="#md117746e27" x="270.390909" y="290.240008" style="fill: #ff7f0e; stroke: #ff7f0e"/>
     <use xlink:href="#md117746e27" x="271.663636" y="290.306367" style="fill: #ff7f0e; stroke: #ff7f0e"/>
     <use xlink:href="#md117746e27" x="272.936364" y="290.372713" style="fill: #ff7f0e; stroke: #ff7f0e"/>
     <use xlink:href="#md117746e27" x="274.209091" y="290.439047" style="fill: #ff7f0e; stroke: #ff7f0e"/>
     <use xlink:href="#md117746e27" x="275.481818" y="290.505368" style="fill: #ff7f0e; stroke: #ff7f0e"/>
     <use xlink:href="#md117746e27" x="276.754545" y="290.571676" style="fill: #ff7f0e; stroke: #ff7f0e"/>
     <use xlink:href="#md117746e27" x="278.027273" y="290.637972" style="fill: #ff7f0e; stroke: #ff7f0e"/>
     <use xlink:href="#md117746e27" x="279.3" y="290.704254" style="fill: #ff7f0e; stroke: #ff7f0e"/>
     <use xlink:href="#md117746e27" x="280.572727" y="290.770524" style="fill: #ff7f0e; stroke: #ff7f0e"/>
     <use xlink:href="#md117746e27" x="281.845455" y="290.836781" style="fill: #ff7f0e; stroke: #ff7f0e"/>
     <use xlink:href="#md117746e27" x="283.118182" y="290.903026" style="fill: #ff7f0e; stroke: #ff7f0e"/>
     <use xlink:href="#md117746e27" x="284.390909" y="290.969257" style="fill: #ff7f0e; stroke: #ff7f0e"/>
     <use xlink:href="#md117746e27" x="285.663636" y="291.035475" style="fill: #ff7f0e; stroke: #ff7f0e"/>
     <use xlink:href="#md117746e27" x="286.936364" y="291.101681" style="fill: #ff7f0e; stroke: #ff7f0e"/>
     <use xlink:href="#md117746e27" x="288.209091" y="291.167874" style="fill: #ff7f0e; stroke: #ff7f0e"/>
     <use xlink:href="#md117746e27" x="289.481818" y="291.234053" style="fill: #ff7f0e; stroke: #ff7f0e"/>
     <use xlink:href="#md117746e27" x="290.754545" y="291.30022" style="fill: #ff7f0e; stroke: #ff7f0e"/>
     <use xlink:href="#md117746e27" x="292.027273" y="291.366374" style="fill: #ff7f0e; stroke: #ff7f0e"/>
     <use xlink:href="#md117746e27" x="293.3" y="291.432514" style="fill: #ff7f0e; stroke: #ff7f0e"/>
     <use xlink:href="#md117746e27" x="294.572727" y="291.498642" style="fill: #ff7f0e; stroke: #ff7f0e"/>
     <use xlink:href="#md117746e27" x="295.845455" y="291.564757" style="fill: #ff7f0e; stroke: #ff7f0e"/>
     <use xlink:href="#md117746e27" x="297.118182" y="291.630858" style="fill: #ff7f0e; stroke: #ff7f0e"/>
     <use xlink:href="#md117746e27" x="298.390909" y="291.696947" style="fill: #ff7f0e; stroke: #ff7f0e"/>
     <use xlink:href="#md117746e27" x="299.663636" y="291.763022" style="fill: #ff7f0e; stroke: #ff7f0e"/>
     <use xlink:href="#md117746e27" x="300.936364" y="291.829085" style="fill: #ff7f0e; stroke: #ff7f0e"/>
     <use xlink:href="#md117746e27" x="302.209091" y="291.895134" style="fill: #ff7f0e; stroke: #ff7f0e"/>
     <use xlink:href="#md117746e27" x="303.481818" y="291.96117" style="fill: #ff7f0e; stroke: #ff7f0e"/>
     <use xlink:href="#md117746e27" x="304.754545" y="292.027192" style="fill: #ff7f0e; stroke: #ff7f0e"/>
     <use xlink:href="#md117746e27" x="306.027273" y="292.093202" style="fill: #ff7f0e; stroke: #ff7f0e"/>
     <use xlink:href="#md117746e27" x="307.3" y="292.159198" style="fill: #ff7f0e; stroke: #ff7f0e"/>
     <use xlink:href="#md117746e27" x="308.572727" y="292.225181" style="fill: #ff7f0e; stroke: #ff7f0e"/>
     <use xlink:href="#md117746e27" x="309.845455" y="292.291151" style="fill: #ff7f0e; stroke: #ff7f0e"/>
     <use xlink:href="#md117746e27" x="311.118182" y="292.357107" style="fill: #ff7f0e; stroke: #ff7f0e"/>
     <use xlink:href="#md117746e27" x="312.390909" y="292.423051" style="fill: #ff7f0e; stroke: #ff7f0e"/>
     <use xlink:href="#md117746e27" x="313.663636" y="292.48898" style="fill: #ff7f0e; stroke: #ff7f0e"/>
     <use xlink:href="#md117746e27" x="314.936364" y="292.554897" style="fill: #ff7f0e; stroke: #ff7f0e"/>
     <use xlink:href="#md117746e27" x="316.209091" y="292.6208" style="fill: #ff7f0e; stroke: #ff7f0e"/>
     <use xlink:href="#md117746e27" x="317.481818" y="292.68669" style="fill: #ff7f0e; stroke: #ff7f0e"/>
     <use xlink:href="#md117746e27" x="318.754545" y="292.752566" style="fill: #ff7f0e; stroke: #ff7f0e"/>
     <use xlink:href="#md117746e27" x="320.027273" y="292.818429" style="fill: #ff7f0e; stroke: #ff7f0e"/>
     <use xlink:href="#md117746e27" x="321.3" y="292.884278" style="fill: #ff7f0e; stroke: #ff7f0e"/>
     <use xlink:href="#md117746e27" x="322.572727" y="292.950114" style="fill: #ff7f0e; stroke: #ff7f0e"/>
     <use xlink:href="#md117746e27" x="323.845455" y="293.015936" style="fill: #ff7f0e; stroke: #ff7f0e"/>
     <use xlink:href="#md117746e27" x="325.118182" y="293.081745" style="fill: #ff7f0e; stroke: #ff7f0e"/>
     <use xlink:href="#md117746e27" x="326.390909" y="293.14754" style="fill: #ff7f0e; stroke: #ff7f0e"/>
     <use xlink:href="#md117746e27" x="327.663636" y="293.213322" style="fill: #ff7f0e; stroke: #ff7f0e"/>
     <use xlink:href="#md117746e27" x="328.936364" y="293.27909" style="fill: #ff7f0e; stroke: #ff7f0e"/>
     <use xlink:href="#md117746e27" x="330.209091" y="293.344845" style="fill: #ff7f0e; stroke: #ff7f0e"/>
     <use xlink:href="#md117746e27" x="331.481818" y="293.410586" style="fill: #ff7f0e; stroke: #ff7f0e"/>
     <use xlink:href="#md117746e27" x="332.754545" y="293.476313" style="fill: #ff7f0e; stroke: #ff7f0e"/>
     <use xlink:href="#md117746e27" x="334.027273" y="293.542027" style="fill: #ff7f0e; stroke: #ff7f0e"/>
     <use xlink:href="#md117746e27" x="335.3" y="293.607727" style="fill: #ff7f0e; stroke: #ff7f0e"/>
     <use xlink:href="#md117746e27" x="336.572727" y="293.673413" style="fill: #ff7f0e; stroke: #ff7f0e"/>
     <use xlink:href="#md117746e27" x="337.845455" y="293.739085" style="fill: #ff7f0e; stroke: #ff7f0e"/>
     <use xlink:href="#md117746e27" x="339.118182" y="293.804744" style="fill: #ff7f0e; stroke: #ff7f0e"/>
     <use xlink:href="#md117746e27" x="340.390909" y="293.870389" style="fill: #ff7f0e; stroke: #ff7f0e"/>
     <use xlink:href="#md117746e27" x="341.663636" y="293.936021" style="fill: #ff7f0e; stroke: #ff7f0e"/>
     <use xlink:href="#md117746e27" x="342.936364" y="294.001638" style="fill: #ff7f0e; stroke: #ff7f0e"/>
     <use xlink:href="#md117746e27" x="344.209091" y="294.067242" style="fill: #ff7f0e; stroke: #ff7f0e"/>
     <use xlink:href="#md117746e27" x="345.481818" y="294.132831" style="fill: #ff7f0e; stroke: #ff7f0e"/>
     <use xlink:href="#md117746e27" x="346.754545" y="294.198407" style="fill: #ff7f0e; stroke: #ff7f0e"/>
     <use xlink:href="#md117746e27" x="348.027273" y="294.263969" style="fill: #ff7f0e; stroke: #ff7f0e"/>
     <use xlink:href="#md117746e27" x="349.3" y="294.329517" style="fill: #ff7f0e; stroke: #ff7f0e"/>
     <use xlink:href="#md117746e27" x="350.572727" y="294.395051" style="fill: #ff7f0e; stroke: #ff7f0e"/>
     <use xlink:href="#md117746e27" x="351.845455" y="294.460572" style="fill: #ff7f0e; stroke: #ff7f0e"/>
     <use xlink:href="#md117746e27" x="353.118182" y="294.526078" style="fill: #ff7f0e; stroke: #ff7f0e"/>
     <use xlink:href="#md117746e27" x="354.390909" y="294.59157" style="fill: #ff7f0e; stroke: #ff7f0e"/>
     <use xlink:href="#md117746e27" x="355.663636" y="294.657049" style="fill: #ff7f0e; stroke: #ff7f0e"/>
     <use xlink:href="#md117746e27" x="356.936364" y="294.722513" style="fill: #ff7f0e; stroke: #ff7f0e"/>
     <use xlink:href="#md117746e27" x="358.209091" y="294.787963" style="fill: #ff7f0e; stroke: #ff7f0e"/>
     <use xlink:href="#md117746e27" x="359.481818" y="294.853399" style="fill: #ff7f0e; stroke: #ff7f0e"/>
     <use xlink:href="#md117746e27" x="360.754545" y="294.918821" style="fill: #ff7f0e; stroke: #ff7f0e"/>
     <use xlink:href="#md117746e27" x="362.027273" y="294.984229" style="fill: #ff7f0e; stroke: #ff7f0e"/>
     <use xlink:href="#md117746e27" x="363.3" y="295.049623" style="fill: #ff7f0e; stroke: #ff7f0e"/>
     <use xlink:href="#md117746e27" x="364.572727" y="295.115003" style="fill: #ff7f0e; stroke: #ff7f0e"/>
     <use xlink:href="#md117746e27" x="365.845455" y="295.180368" style="fill: #ff7f0e; stroke: #ff7f0e"/>
     <use xlink:href="#md117746e27" x="367.118182" y="295.24572" style="fill: #ff7f0e; stroke: #ff7f0e"/>
     <use xlink:href="#md117746e27" x="368.390909" y="295.311057" style="fill: #ff7f0e; stroke: #ff7f0e"/>
     <use xlink:href="#md117746e27" x="369.663636" y="295.37638" style="fill: #ff7f0e; stroke: #ff7f0e"/>
     <use xlink:href="#md117746e27" x="370.936364" y="295.441688" style="fill: #ff7f0e; stroke: #ff7f0e"/>
     <use xlink:href="#md117746e27" x="372.209091" y="295.506983" style="fill: #ff7f0e; stroke: #ff7f0e"/>
     <use xlink:href="#md117746e27" x="373.481818" y="295.572263" style="fill: #ff7f0e; stroke: #ff7f0e"/>
     <use xlink:href="#md117746e27" x="374.754545" y="295.637529" style="fill: #ff7f0e; stroke: #ff7f0e"/>
     <use xlink:href="#md117746e27" x="376.027273" y="295.70278" style="fill: #ff7f0e; stroke: #ff7f0e"/>
     <use xlink:href="#md117746e27" x="377.3" y="295.768017" style="fill: #ff7f0e; stroke: #ff7f0e"/>
     <use xlink:href="#md117746e27" x="378.572727" y="295.83324" style="fill: #ff7f0e; stroke: #ff7f0e"/>
     <use xlink:href="#md117746e27" x="379.845455" y="295.898449" style="fill: #ff7f0e; stroke: #ff7f0e"/>
     <use xlink:href="#md117746e27" x="381.118182" y="295.963643" style="fill: #ff7f0e; stroke: #ff7f0e"/>
     <use xlink:href="#md117746e27" x="382.390909" y="296.028822" style="fill: #ff7f0e; stroke: #ff7f0e"/>
     <use xlink:href="#md117746e27" x="383.663636" y="296.093988" style="fill: #ff7f0e; stroke: #ff7f0e"/>
     <use xlink:href="#md117746e27" x="384.936364" y="296.159138" style="fill: #ff7f0e; stroke: #ff7f0e"/>
     <use xlink:href="#md117746e27" x="386.209091" y="296.224275" style="fill: #ff7f0e; stroke: #ff7f0e"/>
     <use xlink:href="#md117746e27" x="387.481818" y="296.289396" style="fill: #ff7f0e; stroke: #ff7f0e"/>
     <use xlink:href="#md117746e27" x="388.754545" y="296.354504" style="fill: #ff7f0e; stroke: #ff7f0e"/>
     <use xlink:href="#md117746e27" x="390.027273" y="296.419596" style="fill: #ff7f0e; stroke: #ff7f0e"/>
     <use xlink:href="#md117746e27" x="391.3" y="296.484674" style="fill: #ff7f0e; stroke: #ff7f0e"/>
     <use xlink:href="#md117746e27" x="392.572727" y="296.549738" style="fill: #ff7f0e; stroke: #ff7f0e"/>
     <use xlink:href="#md117746e27" x="393.845455" y="296.614787" style="fill: #ff7f0e; stroke: #ff7f0e"/>
     <use xlink:href="#md117746e27" x="395.118182" y="296.679821" style="fill: #ff7f0e; stroke: #ff7f0e"/>
     <use xlink:href="#md117746e27" x="396.390909" y="296.744841" style="fill: #ff7f0e; stroke: #ff7f0e"/>
     <use xlink:href="#md117746e27" x="397.663636" y="296.809846" style="fill: #ff7f0e; stroke: #ff7f0e"/>
     <use xlink:href="#md117746e27" x="398.936364" y="296.874837" style="fill: #ff7f0e; stroke: #ff7f0e"/>
     <use xlink:href="#md117746e27" x="400.209091" y="296.939812" style="fill: #ff7f0e; stroke: #ff7f0e"/>
     <use xlink:href="#md117746e27" x="401.481818" y="297.004774" style="fill: #ff7f0e; stroke: #ff7f0e"/>
     <use xlink:href="#md117746e27" x="402.754545" y="297.06972" style="fill: #ff7f0e; stroke: #ff7f0e"/>
     <use xlink:href="#md117746e27" x="404.027273" y="297.134651" style="fill: #ff7f0e; stroke: #ff7f0e"/>
     <use xlink:href="#md117746e27" x="405.3" y="297.199568" style="fill: #ff7f0e; stroke: #ff7f0e"/>
     <use xlink:href="#md117746e27" x="406.572727" y="297.26447" style="fill: #ff7f0e; stroke: #ff7f0e"/>
     <use xlink:href="#md117746e27" x="407.845455" y="297.329357" style="fill: #ff7f0e; stroke: #ff7f0e"/>
     <use xlink:href="#md117746e27" x="409.118182" y="297.39423" style="fill: #ff7f0e; stroke: #ff7f0e"/>
     <use xlink:href="#md117746e27" x="410.390909" y="297.459087" style="fill: #ff7f0e; stroke: #ff7f0e"/>
     <use xlink:href="#md117746e27" x="411.663636" y="297.52393" style="fill: #ff7f0e; stroke: #ff7f0e"/>
     <use xlink:href="#md117746e27" x="412.936364" y="297.588758" style="fill: #ff7f0e; stroke: #ff7f0e"/>
     <use xlink:href="#md117746e27" x="414.209091" y="297.653571" style="fill: #ff7f0e; stroke: #ff7f0e"/>
     <use xlink:href="#md117746e27" x="415.481818" y="297.718369" style="fill: #ff7f0e; stroke: #ff7f0e"/>
     <use xlink:href="#md117746e27" x="416.754545" y="297.783152" style="fill: #ff7f0e; stroke: #ff7f0e"/>
     <use xlink:href="#md117746e27" x="418.027273" y="297.84792" style="fill: #ff7f0e; stroke: #ff7f0e"/>
     <use xlink:href="#md117746e27" x="419.3" y="297.912673" style="fill: #ff7f0e; stroke: #ff7f0e"/>
     <use xlink:href="#md117746e27" x="420.572727" y="297.977411" style="fill: #ff7f0e; stroke: #ff7f0e"/>
     <use xlink:href="#md117746e27" x="421.845455" y="298.042134" style="fill: #ff7f0e; stroke: #ff7f0e"/>
     <use xlink:href="#md117746e27" x="423.118182" y="298.106842" style="fill: #ff7f0e; stroke: #ff7f0e"/>
     <use xlink:href="#md117746e27" x="424.390909" y="298.171535" style="fill: #ff7f0e; stroke: #ff7f0e"/>
     <use xlink:href="#md117746e27" x="425.663636" y="298.236213" style="fill: #ff7f0e; stroke: #ff7f0e"/>
     <use xlink:href="#md117746e27" x="426.936364" y="298.300876" style="fill: #ff7f0e; stroke: #ff7f0e"/>
     <use xlink:href="#md117746e27" x="428.209091" y="298.365524" style="fill: #ff7f0e; stroke: #ff7f0e"/>
     <use xlink:href="#md117746e27" x="429.481818" y="298.430157" style="fill: #ff7f0e; stroke: #ff7f0e"/>
     <use xlink:href="#md117746e27" x="430.754545" y="298.494774" style="fill: #ff7f0e; stroke: #ff7f0e"/>
     <use xlink:href="#md117746e27" x="432.027273" y="298.559376" style="fill: #ff7f0e; stroke: #ff7f0e"/>
     <use xlink:href="#md117746e27" x="433.3" y="298.623964" style="fill: #ff7f0e; stroke: #ff7f0e"/>
     <use xlink:href="#md117746e27" x="434.572727" y="298.688536" style="fill: #ff7f0e; stroke: #ff7f0e"/>
     <use xlink:href="#md117746e27" x="435.845455" y="298.753092" style="fill: #ff7f0e; stroke: #ff7f0e"/>
    </g>
   </g>
   <g id="matplotlib.axis_1">
    <g id="xtick_1">
     <g id="line2d_1">
      <defs>
       <path id="md7062ca85e" d="M 0 0 
L 0 3.5 
" style="stroke: #000000; stroke-width: 0.8"/>
      </defs>
      <g>
       <use xlink:href="#md7062ca85e" x="80.754545" y="448.56" style="stroke: #000000; stroke-width: 0.8"/>
      </g>
     </g>
     <g id="text_1">
      <!-- 50 -->
      <g transform="translate(74.392045 463.158437)scale(0.1 -0.1)">
       <defs>
        <path id="DejaVuSans-35" d="M 691 4666 
L 3169 4666 
L 3169 4134 
L 1269 4134 
L 1269 2991 
Q 1406 3038 1543 3061 
Q 1681 3084 1819 3084 
Q 2600 3084 3056 2656 
Q 3513 2228 3513 1497 
Q 3513 744 3044 326 
Q 2575 -91 1722 -91 
Q 1428 -91 1123 -41 
Q 819 9 494 109 
L 494 744 
Q 775 591 1075 516 
Q 1375 441 1709 441 
Q 2250 441 2565 725 
Q 2881 1009 2881 1497 
Q 2881 1984 2565 2268 
Q 2250 2553 1709 2553 
Q 1456 2553 1204 2497 
Q 953 2441 691 2322 
L 691 4666 
z
" transform="scale(0.015625)"/>
        <path id="DejaVuSans-30" d="M 2034 4250 
Q 1547 4250 1301 3770 
Q 1056 3291 1056 2328 
Q 1056 1369 1301 889 
Q 1547 409 2034 409 
Q 2525 409 2770 889 
Q 3016 1369 3016 2328 
Q 3016 3291 2770 3770 
Q 2525 4250 2034 4250 
z
M 2034 4750 
Q 2819 4750 3233 4129 
Q 3647 3509 3647 2328 
Q 3647 1150 3233 529 
Q 2819 -91 2034 -91 
Q 1250 -91 836 529 
Q 422 1150 422 2328 
Q 422 3509 836 4129 
Q 1250 4750 2034 4750 
z
" transform="scale(0.015625)"/>
       </defs>
       <use xlink:href="#DejaVuSans-35"/>
       <use xlink:href="#DejaVuSans-30" x="63.623047"/>
      </g>
     </g>
    </g>
    <g id="xtick_2">
     <g id="line2d_2">
      <g>
       <use xlink:href="#md7062ca85e" x="144.390909" y="448.56" style="stroke: #000000; stroke-width: 0.8"/>
      </g>
     </g>
     <g id="text_2">
      <!-- 100 -->
      <g transform="translate(134.847159 463.158437)scale(0.1 -0.1)">
       <defs>
        <path id="DejaVuSans-31" d="M 794 531 
L 1825 531 
L 1825 4091 
L 703 3866 
L 703 4441 
L 1819 4666 
L 2450 4666 
L 2450 531 
L 3481 531 
L 3481 0 
L 794 0 
L 794 531 
z
" transform="scale(0.015625)"/>
       </defs>
       <use xlink:href="#DejaVuSans-31"/>
       <use xlink:href="#DejaVuSans-30" x="63.623047"/>
       <use xlink:href="#DejaVuSans-30" x="127.246094"/>
      </g>
     </g>
    </g>
    <g id="xtick_3">
     <g id="line2d_3">
      <g>
       <use xlink:href="#md7062ca85e" x="208.027273" y="448.56" style="stroke: #000000; stroke-width: 0.8"/>
      </g>
     </g>
     <g id="text_3">
      <!-- 150 -->
      <g transform="translate(198.483523 463.158437)scale(0.1 -0.1)">
       <use xlink:href="#DejaVuSans-31"/>
       <use xlink:href="#DejaVuSans-35" x="63.623047"/>
       <use xlink:href="#DejaVuSans-30" x="127.246094"/>
      </g>
     </g>
    </g>
    <g id="xtick_4">
     <g id="line2d_4">
      <g>
       <use xlink:href="#md7062ca85e" x="271.663636" y="448.56" style="stroke: #000000; stroke-width: 0.8"/>
      </g>
     </g>
     <g id="text_4">
      <!-- 200 -->
      <g transform="translate(262.119886 463.158437)scale(0.1 -0.1)">
       <defs>
        <path id="DejaVuSans-32" d="M 1228 531 
L 3431 531 
L 3431 0 
L 469 0 
L 469 531 
Q 828 903 1448 1529 
Q 2069 2156 2228 2338 
Q 2531 2678 2651 2914 
Q 2772 3150 2772 3378 
Q 2772 3750 2511 3984 
Q 2250 4219 1831 4219 
Q 1534 4219 1204 4116 
Q 875 4013 500 3803 
L 500 4441 
Q 881 4594 1212 4672 
Q 1544 4750 1819 4750 
Q 2544 4750 2975 4387 
Q 3406 4025 3406 3419 
Q 3406 3131 3298 2873 
Q 3191 2616 2906 2266 
Q 2828 2175 2409 1742 
Q 1991 1309 1228 531 
z
" transform="scale(0.015625)"/>
       </defs>
       <use xlink:href="#DejaVuSans-32"/>
       <use xlink:href="#DejaVuSans-30" x="63.623047"/>
       <use xlink:href="#DejaVuSans-30" x="127.246094"/>
      </g>
     </g>
    </g>
    <g id="xtick_5">
     <g id="line2d_5">
      <g>
       <use xlink:href="#md7062ca85e" x="335.3" y="448.56" style="stroke: #000000; stroke-width: 0.8"/>
      </g>
     </g>
     <g id="text_5">
      <!-- 250 -->
      <g transform="translate(325.75625 463.158437)scale(0.1 -0.1)">
       <use xlink:href="#DejaVuSans-32"/>
       <use xlink:href="#DejaVuSans-35" x="63.623047"/>
       <use xlink:href="#DejaVuSans-30" x="127.246094"/>
      </g>
     </g>
    </g>
    <g id="xtick_6">
     <g id="line2d_6">
      <g>
       <use xlink:href="#md7062ca85e" x="398.936364" y="448.56" style="stroke: #000000; stroke-width: 0.8"/>
      </g>
     </g>
     <g id="text_6">
      <!-- 300 -->
      <g transform="translate(389.392614 463.158437)scale(0.1 -0.1)">
       <defs>
        <path id="DejaVuSans-33" d="M 2597 2516 
Q 3050 2419 3304 2112 
Q 3559 1806 3559 1356 
Q 3559 666 3084 287 
Q 2609 -91 1734 -91 
Q 1441 -91 1130 -33 
Q 819 25 488 141 
L 488 750 
Q 750 597 1062 519 
Q 1375 441 1716 441 
Q 2309 441 2620 675 
Q 2931 909 2931 1356 
Q 2931 1769 2642 2001 
Q 2353 2234 1838 2234 
L 1294 2234 
L 1294 2753 
L 1863 2753 
Q 2328 2753 2575 2939 
Q 2822 3125 2822 3475 
Q 2822 3834 2567 4026 
Q 2313 4219 1838 4219 
Q 1578 4219 1281 4162 
Q 984 4106 628 3988 
L 628 4550 
Q 988 4650 1302 4700 
Q 1616 4750 1894 4750 
Q 2613 4750 3031 4423 
Q 3450 4097 3450 3541 
Q 3450 3153 3228 2886 
Q 3006 2619 2597 2516 
z
" transform="scale(0.015625)"/>
       </defs>
       <use xlink:href="#DejaVuSans-33"/>
       <use xlink:href="#DejaVuSans-30" x="63.623047"/>
       <use xlink:href="#DejaVuSans-30" x="127.246094"/>
      </g>
     </g>
    </g>
    <g id="text_7">
     <!-- Hardness -->
     <g transform="translate(234.878906 476.836563)scale(0.1 -0.1)">
      <defs>
       <path id="DejaVuSans-48" d="M 628 4666 
L 1259 4666 
L 1259 2753 
L 3553 2753 
L 3553 4666 
L 4184 4666 
L 4184 0 
L 3553 0 
L 3553 2222 
L 1259 2222 
L 1259 0 
L 628 0 
L 628 4666 
z
" transform="scale(0.015625)"/>
       <path id="DejaVuSans-61" d="M 2194 1759 
Q 1497 1759 1228 1600 
Q 959 1441 959 1056 
Q 959 750 1161 570 
Q 1363 391 1709 391 
Q 2188 391 2477 730 
Q 2766 1069 2766 1631 
L 2766 1759 
L 2194 1759 
z
M 3341 1997 
L 3341 0 
L 2766 0 
L 2766 531 
Q 2569 213 2275 61 
Q 1981 -91 1556 -91 
Q 1019 -91 701 211 
Q 384 513 384 1019 
Q 384 1609 779 1909 
Q 1175 2209 1959 2209 
L 2766 2209 
L 2766 2266 
Q 2766 2663 2505 2880 
Q 2244 3097 1772 3097 
Q 1472 3097 1187 3025 
Q 903 2953 641 2809 
L 641 3341 
Q 956 3463 1253 3523 
Q 1550 3584 1831 3584 
Q 2591 3584 2966 3190 
Q 3341 2797 3341 1997 
z
" transform="scale(0.015625)"/>
       <path id="DejaVuSans-72" d="M 2631 2963 
Q 2534 3019 2420 3045 
Q 2306 3072 2169 3072 
Q 1681 3072 1420 2755 
Q 1159 2438 1159 1844 
L 1159 0 
L 581 0 
L 581 3500 
L 1159 3500 
L 1159 2956 
Q 1341 3275 1631 3429 
Q 1922 3584 2338 3584 
Q 2397 3584 2469 3576 
Q 2541 3569 2628 3553 
L 2631 2963 
z
" transform="scale(0.015625)"/>
       <path id="DejaVuSans-64" d="M 2906 2969 
L 2906 4863 
L 3481 4863 
L 3481 0 
L 2906 0 
L 2906 525 
Q 2725 213 2448 61 
Q 2172 -91 1784 -91 
Q 1150 -91 751 415 
Q 353 922 353 1747 
Q 353 2572 751 3078 
Q 1150 3584 1784 3584 
Q 2172 3584 2448 3432 
Q 2725 3281 2906 2969 
z
M 947 1747 
Q 947 1113 1208 752 
Q 1469 391 1925 391 
Q 2381 391 2643 752 
Q 2906 1113 2906 1747 
Q 2906 2381 2643 2742 
Q 2381 3103 1925 3103 
Q 1469 3103 1208 2742 
Q 947 2381 947 1747 
z
" transform="scale(0.015625)"/>
       <path id="DejaVuSans-6e" d="M 3513 2113 
L 3513 0 
L 2938 0 
L 2938 2094 
Q 2938 2591 2744 2837 
Q 2550 3084 2163 3084 
Q 1697 3084 1428 2787 
Q 1159 2491 1159 1978 
L 1159 0 
L 581 0 
L 581 3500 
L 1159 3500 
L 1159 2956 
Q 1366 3272 1645 3428 
Q 1925 3584 2291 3584 
Q 2894 3584 3203 3211 
Q 3513 2838 3513 2113 
z
" transform="scale(0.015625)"/>
       <path id="DejaVuSans-65" d="M 3597 1894 
L 3597 1613 
L 953 1613 
Q 991 1019 1311 708 
Q 1631 397 2203 397 
Q 2534 397 2845 478 
Q 3156 559 3463 722 
L 3463 178 
Q 3153 47 2828 -22 
Q 2503 -91 2169 -91 
Q 1331 -91 842 396 
Q 353 884 353 1716 
Q 353 2575 817 3079 
Q 1281 3584 2069 3584 
Q 2775 3584 3186 3129 
Q 3597 2675 3597 1894 
z
M 3022 2063 
Q 3016 2534 2758 2815 
Q 2500 3097 2075 3097 
Q 1594 3097 1305 2825 
Q 1016 2553 972 2059 
L 3022 2063 
z
" transform="scale(0.015625)"/>
       <path id="DejaVuSans-73" d="M 2834 3397 
L 2834 2853 
Q 2591 2978 2328 3040 
Q 2066 3103 1784 3103 
Q 1356 3103 1142 2972 
Q 928 2841 928 2578 
Q 928 2378 1081 2264 
Q 1234 2150 1697 2047 
L 1894 2003 
Q 2506 1872 2764 1633 
Q 3022 1394 3022 966 
Q 3022 478 2636 193 
Q 2250 -91 1575 -91 
Q 1294 -91 989 -36 
Q 684 19 347 128 
L 347 722 
Q 666 556 975 473 
Q 1284 391 1588 391 
Q 1994 391 2212 530 
Q 2431 669 2431 922 
Q 2431 1156 2273 1281 
Q 2116 1406 1581 1522 
L 1381 1569 
Q 847 1681 609 1914 
Q 372 2147 372 2553 
Q 372 3047 722 3315 
Q 1072 3584 1716 3584 
Q 2034 3584 2315 3537 
Q 2597 3491 2834 3397 
z
" transform="scale(0.015625)"/>
      </defs>
      <use xlink:href="#DejaVuSans-48"/>
      <use xlink:href="#DejaVuSans-61" x="75.195312"/>
      <use xlink:href="#DejaVuSans-72" x="136.474609"/>
      <use xlink:href="#DejaVuSans-64" x="175.837891"/>
      <use xlink:href="#DejaVuSans-6e" x="239.314453"/>
      <use xlink:href="#DejaVuSans-65" x="302.693359"/>
      <use xlink:href="#DejaVuSans-73" x="364.216797"/>
      <use xlink:href="#DejaVuSans-73" x="416.316406"/>
     </g>
    </g>
   </g>
   <g id="matplotlib.axis_2">
    <g id="ytick_1">
     <g id="line2d_7">
      <defs>
       <path id="m094c4d6f2d" d="M 0 0 
L -3.5 0 
" style="stroke: #000000; stroke-width: 0.8"/>
      </defs>
      <g>
       <use xlink:href="#m094c4d6f2d" x="63" y="416.22" style="stroke: #000000; stroke-width: 0.8"/>
      </g>
     </g>
     <g id="text_8">
      <!-- 0.0 -->
      <g transform="translate(40.096875 420.019219)scale(0.1 -0.1)">
       <defs>
        <path id="DejaVuSans-2e" d="M 684 794 
L 1344 794 
L 1344 0 
L 684 0 
L 684 794 
z
" transform="scale(0.015625)"/>
       </defs>
       <use xlink:href="#DejaVuSans-30"/>
       <use xlink:href="#DejaVuSans-2e" x="63.623047"/>
       <use xlink:href="#DejaVuSans-30" x="95.410156"/>
      </g>
     </g>
    </g>
    <g id="ytick_2">
     <g id="line2d_8">
      <g>
       <use xlink:href="#m094c4d6f2d" x="63" y="351.54" style="stroke: #000000; stroke-width: 0.8"/>
      </g>
     </g>
     <g id="text_9">
      <!-- 0.2 -->
      <g transform="translate(40.096875 355.339219)scale(0.1 -0.1)">
       <use xlink:href="#DejaVuSans-30"/>
       <use xlink:href="#DejaVuSans-2e" x="63.623047"/>
       <use xlink:href="#DejaVuSans-32" x="95.410156"/>
      </g>
     </g>
    </g>
    <g id="ytick_3">
     <g id="line2d_9">
      <g>
       <use xlink:href="#m094c4d6f2d" x="63" y="286.86" style="stroke: #000000; stroke-width: 0.8"/>
      </g>
     </g>
     <g id="text_10">
      <!-- 0.4 -->
      <g transform="translate(40.096875 290.659219)scale(0.1 -0.1)">
       <defs>
        <path id="DejaVuSans-34" d="M 2419 4116 
L 825 1625 
L 2419 1625 
L 2419 4116 
z
M 2253 4666 
L 3047 4666 
L 3047 1625 
L 3713 1625 
L 3713 1100 
L 3047 1100 
L 3047 0 
L 2419 0 
L 2419 1100 
L 313 1100 
L 313 1709 
L 2253 4666 
z
" transform="scale(0.015625)"/>
       </defs>
       <use xlink:href="#DejaVuSans-30"/>
       <use xlink:href="#DejaVuSans-2e" x="63.623047"/>
       <use xlink:href="#DejaVuSans-34" x="95.410156"/>
      </g>
     </g>
    </g>
    <g id="ytick_4">
     <g id="line2d_10">
      <g>
       <use xlink:href="#m094c4d6f2d" x="63" y="222.18" style="stroke: #000000; stroke-width: 0.8"/>
      </g>
     </g>
     <g id="text_11">
      <!-- 0.6 -->
      <g transform="translate(40.096875 225.979219)scale(0.1 -0.1)">
       <defs>
        <path id="DejaVuSans-36" d="M 2113 2584 
Q 1688 2584 1439 2293 
Q 1191 2003 1191 1497 
Q 1191 994 1439 701 
Q 1688 409 2113 409 
Q 2538 409 2786 701 
Q 3034 994 3034 1497 
Q 3034 2003 2786 2293 
Q 2538 2584 2113 2584 
z
M 3366 4563 
L 3366 3988 
Q 3128 4100 2886 4159 
Q 2644 4219 2406 4219 
Q 1781 4219 1451 3797 
Q 1122 3375 1075 2522 
Q 1259 2794 1537 2939 
Q 1816 3084 2150 3084 
Q 2853 3084 3261 2657 
Q 3669 2231 3669 1497 
Q 3669 778 3244 343 
Q 2819 -91 2113 -91 
Q 1303 -91 875 529 
Q 447 1150 447 2328 
Q 447 3434 972 4092 
Q 1497 4750 2381 4750 
Q 2619 4750 2861 4703 
Q 3103 4656 3366 4563 
z
" transform="scale(0.015625)"/>
       </defs>
       <use xlink:href="#DejaVuSans-30"/>
       <use xlink:href="#DejaVuSans-2e" x="63.623047"/>
       <use xlink:href="#DejaVuSans-36" x="95.410156"/>
      </g>
     </g>
    </g>
    <g id="ytick_5">
     <g id="line2d_11">
      <g>
       <use xlink:href="#m094c4d6f2d" x="63" y="157.5" style="stroke: #000000; stroke-width: 0.8"/>
      </g>
     </g>
     <g id="text_12">
      <!-- 0.8 -->
      <g transform="translate(40.096875 161.299219)scale(0.1 -0.1)">
       <defs>
        <path id="DejaVuSans-38" d="M 2034 2216 
Q 1584 2216 1326 1975 
Q 1069 1734 1069 1313 
Q 1069 891 1326 650 
Q 1584 409 2034 409 
Q 2484 409 2743 651 
Q 3003 894 3003 1313 
Q 3003 1734 2745 1975 
Q 2488 2216 2034 2216 
z
M 1403 2484 
Q 997 2584 770 2862 
Q 544 3141 544 3541 
Q 544 4100 942 4425 
Q 1341 4750 2034 4750 
Q 2731 4750 3128 4425 
Q 3525 4100 3525 3541 
Q 3525 3141 3298 2862 
Q 3072 2584 2669 2484 
Q 3125 2378 3379 2068 
Q 3634 1759 3634 1313 
Q 3634 634 3220 271 
Q 2806 -91 2034 -91 
Q 1263 -91 848 271 
Q 434 634 434 1313 
Q 434 1759 690 2068 
Q 947 2378 1403 2484 
z
M 1172 3481 
Q 1172 3119 1398 2916 
Q 1625 2713 2034 2713 
Q 2441 2713 2670 2916 
Q 2900 3119 2900 3481 
Q 2900 3844 2670 4047 
Q 2441 4250 2034 4250 
Q 1625 4250 1398 4047 
Q 1172 3844 1172 3481 
z
" transform="scale(0.015625)"/>
       </defs>
       <use xlink:href="#DejaVuSans-30"/>
       <use xlink:href="#DejaVuSans-2e" x="63.623047"/>
       <use xlink:href="#DejaVuSans-38" x="95.410156"/>
      </g>
     </g>
    </g>
    <g id="ytick_6">
     <g id="line2d_12">
      <g>
       <use xlink:href="#m094c4d6f2d" x="63" y="92.82" style="stroke: #000000; stroke-width: 0.8"/>
      </g>
     </g>
     <g id="text_13">
      <!-- 1.0 -->
      <g transform="translate(40.096875 96.619219)scale(0.1 -0.1)">
       <use xlink:href="#DejaVuSans-31"/>
       <use xlink:href="#DejaVuSans-2e" x="63.623047"/>
       <use xlink:href="#DejaVuSans-30" x="95.410156"/>
      </g>
     </g>
    </g>
    <g id="text_14">
     <!-- Proportion of Potable Water -->
     <g transform="translate(34.017187 323.241094)rotate(-90)scale(0.1 -0.1)">
      <defs>
       <path id="DejaVuSans-50" d="M 1259 4147 
L 1259 2394 
L 2053 2394 
Q 2494 2394 2734 2622 
Q 2975 2850 2975 3272 
Q 2975 3691 2734 3919 
Q 2494 4147 2053 4147 
L 1259 4147 
z
M 628 4666 
L 2053 4666 
Q 2838 4666 3239 4311 
Q 3641 3956 3641 3272 
Q 3641 2581 3239 2228 
Q 2838 1875 2053 1875 
L 1259 1875 
L 1259 0 
L 628 0 
L 628 4666 
z
" transform="scale(0.015625)"/>
       <path id="DejaVuSans-6f" d="M 1959 3097 
Q 1497 3097 1228 2736 
Q 959 2375 959 1747 
Q 959 1119 1226 758 
Q 1494 397 1959 397 
Q 2419 397 2687 759 
Q 2956 1122 2956 1747 
Q 2956 2369 2687 2733 
Q 2419 3097 1959 3097 
z
M 1959 3584 
Q 2709 3584 3137 3096 
Q 3566 2609 3566 1747 
Q 3566 888 3137 398 
Q 2709 -91 1959 -91 
Q 1206 -91 779 398 
Q 353 888 353 1747 
Q 353 2609 779 3096 
Q 1206 3584 1959 3584 
z
" transform="scale(0.015625)"/>
       <path id="DejaVuSans-70" d="M 1159 525 
L 1159 -1331 
L 581 -1331 
L 581 3500 
L 1159 3500 
L 1159 2969 
Q 1341 3281 1617 3432 
Q 1894 3584 2278 3584 
Q 2916 3584 3314 3078 
Q 3713 2572 3713 1747 
Q 3713 922 3314 415 
Q 2916 -91 2278 -91 
Q 1894 -91 1617 61 
Q 1341 213 1159 525 
z
M 3116 1747 
Q 3116 2381 2855 2742 
Q 2594 3103 2138 3103 
Q 1681 3103 1420 2742 
Q 1159 2381 1159 1747 
Q 1159 1113 1420 752 
Q 1681 391 2138 391 
Q 2594 391 2855 752 
Q 3116 1113 3116 1747 
z
" transform="scale(0.015625)"/>
       <path id="DejaVuSans-74" d="M 1172 4494 
L 1172 3500 
L 2356 3500 
L 2356 3053 
L 1172 3053 
L 1172 1153 
Q 1172 725 1289 603 
Q 1406 481 1766 481 
L 2356 481 
L 2356 0 
L 1766 0 
Q 1100 0 847 248 
Q 594 497 594 1153 
L 594 3053 
L 172 3053 
L 172 3500 
L 594 3500 
L 594 4494 
L 1172 4494 
z
" transform="scale(0.015625)"/>
       <path id="DejaVuSans-69" d="M 603 3500 
L 1178 3500 
L 1178 0 
L 603 0 
L 603 3500 
z
M 603 4863 
L 1178 4863 
L 1178 4134 
L 603 4134 
L 603 4863 
z
" transform="scale(0.015625)"/>
       <path id="DejaVuSans-20" transform="scale(0.015625)"/>
       <path id="DejaVuSans-66" d="M 2375 4863 
L 2375 4384 
L 1825 4384 
Q 1516 4384 1395 4259 
Q 1275 4134 1275 3809 
L 1275 3500 
L 2222 3500 
L 2222 3053 
L 1275 3053 
L 1275 0 
L 697 0 
L 697 3053 
L 147 3053 
L 147 3500 
L 697 3500 
L 697 3744 
Q 697 4328 969 4595 
Q 1241 4863 1831 4863 
L 2375 4863 
z
" transform="scale(0.015625)"/>
       <path id="DejaVuSans-62" d="M 3116 1747 
Q 3116 2381 2855 2742 
Q 2594 3103 2138 3103 
Q 1681 3103 1420 2742 
Q 1159 2381 1159 1747 
Q 1159 1113 1420 752 
Q 1681 391 2138 391 
Q 2594 391 2855 752 
Q 3116 1113 3116 1747 
z
M 1159 2969 
Q 1341 3281 1617 3432 
Q 1894 3584 2278 3584 
Q 2916 3584 3314 3078 
Q 3713 2572 3713 1747 
Q 3713 922 3314 415 
Q 2916 -91 2278 -91 
Q 1894 -91 1617 61 
Q 1341 213 1159 525 
L 1159 0 
L 581 0 
L 581 4863 
L 1159 4863 
L 1159 2969 
z
" transform="scale(0.015625)"/>
       <path id="DejaVuSans-6c" d="M 603 4863 
L 1178 4863 
L 1178 0 
L 603 0 
L 603 4863 
z
" transform="scale(0.015625)"/>
       <path id="DejaVuSans-57" d="M 213 4666 
L 850 4666 
L 1831 722 
L 2809 4666 
L 3519 4666 
L 4500 722 
L 5478 4666 
L 6119 4666 
L 4947 0 
L 4153 0 
L 3169 4050 
L 2175 0 
L 1381 0 
L 213 4666 
z
" transform="scale(0.015625)"/>
      </defs>
      <use xlink:href="#DejaVuSans-50"/>
      <use xlink:href="#DejaVuSans-72" x="58.552734"/>
      <use xlink:href="#DejaVuSans-6f" x="97.416016"/>
      <use xlink:href="#DejaVuSans-70" x="158.597656"/>
      <use xlink:href="#DejaVuSans-6f" x="222.074219"/>
      <use xlink:href="#DejaVuSans-72" x="283.255859"/>
      <use xlink:href="#DejaVuSans-74" x="324.369141"/>
      <use xlink:href="#DejaVuSans-69" x="363.578125"/>
      <use xlink:href="#DejaVuSans-6f" x="391.361328"/>
      <use xlink:href="#DejaVuSans-6e" x="452.542969"/>
      <use xlink:href="#DejaVuSans-20" x="515.921875"/>
      <use xlink:href="#DejaVuSans-6f" x="547.708984"/>
      <use xlink:href="#DejaVuSans-66" x="608.890625"/>
      <use xlink:href="#DejaVuSans-20" x="644.095703"/>
      <use xlink:href="#DejaVuSans-50" x="675.882812"/>
      <use xlink:href="#DejaVuSans-6f" x="732.560547"/>
      <use xlink:href="#DejaVuSans-74" x="793.742188"/>
      <use xlink:href="#DejaVuSans-61" x="832.951172"/>
      <use xlink:href="#DejaVuSans-62" x="894.230469"/>
      <use xlink:href="#DejaVuSans-6c" x="957.707031"/>
      <use xlink:href="#DejaVuSans-65" x="985.490234"/>
      <use xlink:href="#DejaVuSans-20" x="1047.013672"/>
      <use xlink:href="#DejaVuSans-57" x="1078.800781"/>
      <use xlink:href="#DejaVuSans-61" x="1171.302734"/>
      <use xlink:href="#DejaVuSans-74" x="1232.582031"/>
      <use xlink:href="#DejaVuSans-65" x="1271.791016"/>
      <use xlink:href="#DejaVuSans-72" x="1333.314453"/>
     </g>
    </g>
   </g>
   <g id="patch_3">
    <path d="M 63 448.56 
L 63 60.48 
" style="fill: none; stroke: #000000; stroke-width: 0.8; stroke-linejoin: miter; stroke-linecap: square"/>
   </g>
   <g id="patch_4">
    <path d="M 453.6 448.56 
L 453.6 60.48 
" style="fill: none; stroke: #000000; stroke-width: 0.8; stroke-linejoin: miter; stroke-linecap: square"/>
   </g>
   <g id="patch_5">
    <path d="M 63 448.56 
L 453.6 448.56 
" style="fill: none; stroke: #000000; stroke-width: 0.8; stroke-linejoin: miter; stroke-linecap: square"/>
   </g>
   <g id="patch_6">
    <path d="M 63 60.48 
L 453.6 60.48 
" style="fill: none; stroke: #000000; stroke-width: 0.8; stroke-linejoin: miter; stroke-linecap: square"/>
   </g>
   <g id="legend_1">
    <g id="patch_7">
     <path d="M 70 443.56 
L 121.1 443.56 
Q 123.1 443.56 123.1 441.56 
L 123.1 383.8475 
Q 123.1 381.8475 121.1 381.8475 
L 70 381.8475 
Q 68 381.8475 68 383.8475 
L 68 441.56 
Q 68 443.56 70 443.56 
z
" style="fill: #ffffff; opacity: 0.8; stroke: #cccccc; stroke-linejoin: miter"/>
    </g>
    <g id="line2d_13">
     <defs>
      <path id="m96d41fe349" d="M 0 5 
C 1.326016 5 2.597899 4.473168 3.535534 3.535534 
C 4.473168 2.597899 5 1.326016 5 0 
C 5 -1.326016 4.473168 -2.597899 3.535534 -3.535534 
C 2.597899 -4.473168 1.326016 -5 0 -5 
C -1.326016 -5 -2.597899 -4.473168 -3.535534 -3.535534 
C -4.473168 -2.597899 -5 -1.326016 -5 0 
C -5 1.326016 -4.473168 2.597899 -3.535534 3.535534 
C -2.597899 4.473168 -1.326016 5 0 5 
z
" style="stroke: #0000ff"/>
     </defs>
     <g>
      <use xlink:href="#m96d41fe349" x="82" y="389.945938" style="fill: #0000ff; stroke: #0000ff"/>
     </g>
    </g>
    <g id="text_15">
     <!-- $\mathdefault{100}$ -->
     <g transform="translate(100 393.445938)scale(0.1 -0.1)">
      <use xlink:href="#DejaVuSans-31" transform="translate(0 0.78125)"/>
      <use xlink:href="#DejaVuSans-30" transform="translate(63.623047 0.78125)"/>
      <use xlink:href="#DejaVuSans-30" transform="translate(127.246094 0.78125)"/>
     </g>
    </g>
    <g id="line2d_14">
     <defs>
      <path id="mf88faba898" d="M 0 7.071068 
C 1.875269 7.071068 3.673985 6.326016 5 5 
C 6.326016 3.673985 7.071068 1.875269 7.071068 0 
C 7.071068 -1.875269 6.326016 -3.673985 5 -5 
C 3.673985 -6.326016 1.875269 -7.071068 0 -7.071068 
C -1.875269 -7.071068 -3.673985 -6.326016 -5 -5 
C -6.326016 -3.673985 -7.071068 -1.875269 -7.071068 0 
C -7.071068 1.875269 -6.326016 3.673985 -5 5 
C -3.673985 6.326016 -1.875269 7.071068 0 7.071068 
z
" style="stroke: #0000ff"/>
     </defs>
     <g>
      <use xlink:href="#mf88faba898" x="82" y="404.624063" style="fill: #0000ff; stroke: #0000ff"/>
     </g>
    </g>
    <g id="text_16">
     <!-- $\mathdefault{200}$ -->
     <g transform="translate(100 408.124063)scale(0.1 -0.1)">
      <use xlink:href="#DejaVuSans-32" transform="translate(0 0.78125)"/>
      <use xlink:href="#DejaVuSans-30" transform="translate(63.623047 0.78125)"/>
      <use xlink:href="#DejaVuSans-30" transform="translate(127.246094 0.78125)"/>
     </g>
    </g>
    <g id="line2d_15">
     <defs>
      <path id="m1f05a7fb0c" d="M 0 8.660254 
C 2.296726 8.660254 4.499694 7.747755 6.123724 6.123724 
C 7.747755 4.499694 8.660254 2.296726 8.660254 0 
C 8.660254 -2.296726 7.747755 -4.499694 6.123724 -6.123724 
C 4.499694 -7.747755 2.296726 -8.660254 0 -8.660254 
C -2.296726 -8.660254 -4.499694 -7.747755 -6.123724 -6.123724 
C -7.747755 -4.499694 -8.660254 -2.296726 -8.660254 0 
C -8.660254 2.296726 -7.747755 4.499694 -6.123724 6.123724 
C -4.499694 7.747755 -2.296726 8.660254 0 8.660254 
z
" style="stroke: #0000ff"/>
     </defs>
     <g>
      <use xlink:href="#m1f05a7fb0c" x="82" y="419.302188" style="fill: #0000ff; stroke: #0000ff"/>
     </g>
    </g>
    <g id="text_17">
     <!-- $\mathdefault{300}$ -->
     <g transform="translate(100 422.802188)scale(0.1 -0.1)">
      <use xlink:href="#DejaVuSans-33" transform="translate(0 0.78125)"/>
      <use xlink:href="#DejaVuSans-30" transform="translate(63.623047 0.78125)"/>
      <use xlink:href="#DejaVuSans-30" transform="translate(127.246094 0.78125)"/>
     </g>
    </g>
    <g id="line2d_16">
     <defs>
      <path id="md30f22b4fb" d="M 0 10 
C 2.652031 10 5.195799 8.946337 7.071068 7.071068 
C 8.946337 5.195799 10 2.652031 10 0 
C 10 -2.652031 8.946337 -5.195799 7.071068 -7.071068 
C 5.195799 -8.946337 2.652031 -10 0 -10 
C -2.652031 -10 -5.195799 -8.946337 -7.071068 -7.071068 
C -8.946337 -5.195799 -10 -2.652031 -10 0 
C -10 2.652031 -8.946337 5.195799 -7.071068 7.071068 
C -5.195799 8.946337 -2.652031 10 0 10 
z
" style="stroke: #0000ff"/>
     </defs>
     <g>
      <use xlink:href="#md30f22b4fb" x="82" y="433.980313" style="fill: #0000ff; stroke: #0000ff"/>
     </g>
    </g>
    <g id="text_18">
     <!-- $\mathdefault{400}$ -->
     <g transform="translate(100 437.480313)scale(0.1 -0.1)">
      <use xlink:href="#DejaVuSans-34" transform="translate(0 0.78125)"/>
      <use xlink:href="#DejaVuSans-30" transform="translate(63.623047 0.78125)"/>
      <use xlink:href="#DejaVuSans-30" transform="translate(127.246094 0.78125)"/>
     </g>
    </g>
   </g>
  </g>
 </g>
 <defs>
  <clipPath id="p4f1e9fa8f0">
   <rect x="63" y="60.48" width="390.6" height="388.08"/>
  </clipPath>
 </defs>
</svg>
