<?xml version="1.0" encoding="utf-8" standalone="no"?>
<!DOCTYPE svg PUBLIC "-//W3C//DTD SVG 1.1//EN"
  "http://www.w3.org/Graphics/SVG/1.1/DTD/svg11.dtd">
<svg xmlns:xlink="http://www.w3.org/1999/xlink" width="504pt" height="504pt" viewBox="0 0 504 504" xmlns="http://www.w3.org/2000/svg" version="1.1">
 <metadata>
  <rdf:RDF xmlns:dc="http://purl.org/dc/elements/1.1/" xmlns:cc="http://creativecommons.org/ns#" xmlns:rdf="http://www.w3.org/1999/02/22-rdf-syntax-ns#">
   <cc:Work>
    <dc:type rdf:resource="http://purl.org/dc/dcmitype/StillImage"/>
    <dc:date>2025-03-15T13:40:10.322308</dc:date>
    <dc:format>image/svg+xml</dc:format>
    <dc:creator>
     <cc:Agent>
      <dc:title>Matplotlib v3.5.2, https://matplotlib.org/</dc:title>
     </cc:Agent>
    </dc:creator>
   </cc:Work>
  </rdf:RDF>
 </metadata>
 <defs>
  <style type="text/css">*{stroke-linejoin: round; stroke-linecap: butt}</style>
 </defs>
 <g id="figure_1">
  <g id="patch_1">
   <path d="M 0 504 
L 504 504 
L 504 0 
L 0 0 
z
" style="fill: #ffffff"/>
  </g>
  <g id="axes_1">
   <g id="patch_2">
    <path d="M 63 448.56 
L 453.6 448.56 
L 453.6 60.48 
L 63 60.48 
z
" style="fill: #ffffff"/>
   </g>
   <g id="PathCollection_1">
    <path d="M 80.754545 93.32 
C 80.887147 93.32 81.014335 93.267317 81.108099 93.173553 
C 81.201862 93.07979 81.254545 92.952602 81.254545 92.82 
C 81.254545 92.687398 81.201862 92.56021 81.108099 92.466447 
C 81.014335 92.372683 80.887147 92.32 80.754545 92.32 
C 80.621944 92.32 80.494756 92.372683 80.400992 92.466447 
C 80.307229 92.56021 80.254545 92.687398 80.254545 92.82 
C 80.254545 92.952602 80.307229 93.07979 80.400992 93.173553 
C 80.494756 93.267317 80.621944 93.32 80.754545 93.32 
z
" clip-path="url(#p8c50065bf0)" style="fill: #0000ff; stroke: #0000ff"/>
    <path d="M 106.209091 93.32 
C 106.341692 93.32 106.468881 93.267317 106.562644 93.173553 
C 106.656408 93.07979 106.709091 92.952602 106.709091 92.82 
C 106.709091 92.687398 106.656408 92.56021 106.562644 92.466447 
C 106.468881 92.372683 106.341692 92.32 106.209091 92.32 
C 106.076489 92.32 105.949301 92.372683 105.855538 92.466447 
C 105.761774 92.56021 105.709091 92.687398 105.709091 92.82 
C 105.709091 92.952602 105.761774 93.07979 105.855538 93.173553 
C 105.949301 93.267317 106.076489 93.32 106.209091 93.32 
z
" clip-path="url(#p8c50065bf0)" style="fill: #0000ff; stroke: #0000ff"/>
    <path d="M 118.936364 93.527107 
C 119.123891 93.527107 119.303762 93.452602 119.436364 93.32 
C 119.568965 93.187398 119.64347 93.007527 119.64347 92.82 
C 119.64347 92.632473 119.568965 92.452602 119.436364 92.32 
C 119.303762 92.187398 119.123891 92.112893 118.936364 92.112893 
C 118.748837 92.112893 118.568965 92.187398 118.436364 92.32 
C 118.303762 92.452602 118.229257 92.632473 118.229257 92.82 
C 118.229257 93.007527 118.303762 93.187398 118.436364 93.32 
C 118.568965 93.452602 118.748837 93.527107 118.936364 93.527107 
z
" clip-path="url(#p8c50065bf0)" style="fill: #0000ff; stroke: #0000ff"/>
    <path d="M 131.663636 93.32 
C 131.796238 93.32 131.923426 93.267317 132.01719 93.173553 
C 132.110953 93.07979 132.163636 92.952602 132.163636 92.82 
C 132.163636 92.687398 132.110953 92.56021 132.01719 92.466447 
C 131.923426 92.372683 131.796238 92.32 131.663636 92.32 
C 131.531035 92.32 131.403846 92.372683 131.310083 92.466447 
C 131.21632 92.56021 131.163636 92.687398 131.163636 92.82 
C 131.163636 92.952602 131.21632 93.07979 131.310083 93.173553 
C 131.403846 93.267317 131.531035 93.32 131.663636 93.32 
z
" clip-path="url(#p8c50065bf0)" style="fill: #0000ff; stroke: #0000ff"/>
    <path d="M 144.390909 325.142876 
C 144.74174 325.142876 145.078249 325.003489 145.326323 324.755414 
C 145.574398 324.50734 145.713785 324.170831 145.713785 323.82 
C 145.713785 323.469169 145.574398 323.13266 145.326323 322.884586 
C 145.078249 322.636511 144.74174 322.497124 144.390909 322.497124 
C 144.040078 322.497124 143.70357 322.636511 143.455495 322.884586 
C 143.20742 323.13266 143.068033 323.469169 143.068033 323.82 
C 143.068033 324.170831 143.20742 324.50734 143.455495 324.755414 
C 143.70357 325.003489 144.040078 325.142876 144.390909 325.142876 
z
" clip-path="url(#p8c50065bf0)" style="fill: #0000ff; stroke: #0000ff"/>
    <path d="M 157.118182 238.674654 
C 157.680763 238.674654 158.220377 238.451138 158.618182 238.053333 
C 159.015986 237.655529 159.239502 237.115914 159.239502 236.553333 
C 159.239502 235.990753 159.015986 235.451138 158.618182 235.053333 
C 158.220377 234.655529 157.680763 234.432013 157.118182 234.432013 
C 156.555601 234.432013 156.015986 234.655529 155.618182 235.053333 
C 155.220377 235.451138 154.996861 235.990753 154.996861 236.553333 
C 154.996861 237.115914 155.220377 237.655529 155.618182 238.053333 
C 156.015986 238.451138 156.555601 238.674654 157.118182 238.674654 
z
" clip-path="url(#p8c50065bf0)" style="fill: #0000ff; stroke: #0000ff"/>
    <path d="M 169.845455 354.04 
C 170.508462 354.04 171.144404 353.776584 171.613221 353.307767 
C 172.082039 352.83895 172.345455 352.203008 172.345455 351.54 
C 172.345455 350.876992 172.082039 350.24105 171.613221 349.772233 
C 171.144404 349.303416 170.508462 349.04 169.845455 349.04 
C 169.182447 349.04 168.546505 349.303416 168.077688 349.772233 
C 167.60887 350.24105 167.345455 350.876992 167.345455 351.54 
C 167.345455 352.203008 167.60887 352.83895 168.077688 353.307767 
C 168.546505 353.776584 169.182447 354.04 169.845455 354.04 
z
" clip-path="url(#p8c50065bf0)" style="fill: #0000ff; stroke: #0000ff"/>
    <path d="M 182.572727 239.553333 
C 183.368337 239.553333 184.131467 239.237234 184.694048 238.674654 
C 185.256628 238.112073 185.572727 237.348943 185.572727 236.553333 
C 185.572727 235.757724 185.256628 234.994594 184.694048 234.432013 
C 184.131467 233.869432 183.368337 233.553333 182.572727 233.553333 
C 181.777118 233.553333 181.013988 233.869432 180.451407 234.432013 
C 179.888826 234.994594 179.572727 235.757724 179.572727 236.553333 
C 179.572727 237.348943 179.888826 238.112073 180.451407 238.674654 
C 181.013988 239.237234 181.777118 239.553333 182.572727 239.553333 
z
" clip-path="url(#p8c50065bf0)" style="fill: #0000ff; stroke: #0000ff"/>
    <path d="M 195.3 285.342983 
C 196.327127 285.342983 197.312324 284.934901 198.038613 284.208613 
C 198.764901 283.482324 199.172983 282.497127 199.172983 281.47 
C 199.172983 280.442873 198.764901 279.457676 198.038613 278.731387 
C 197.312324 278.005099 196.327127 277.597017 195.3 277.597017 
C 194.272873 277.597017 193.287676 278.005099 192.561387 278.731387 
C 191.835099 279.457676 191.427017 280.442873 191.427017 281.47 
C 191.427017 282.497127 191.835099 283.482324 192.561387 284.208613 
C 193.287676 284.934901 194.272873 285.342983 195.3 285.342983 
z
" clip-path="url(#p8c50065bf0)" style="fill: #0000ff; stroke: #0000ff"/>
    <path d="M 208.027273 282.911503 
C 209.430596 282.911503 210.776631 282.353957 211.76893 281.361657 
C 212.761229 280.369358 213.318775 279.023323 213.318775 277.62 
C 213.318775 276.216677 212.761229 274.870642 211.76893 273.878343 
C 210.776631 272.886043 209.430596 272.328497 208.027273 272.328497 
C 206.62395 272.328497 205.277914 272.886043 204.285615 273.878343 
C 203.293316 274.870642 202.73577 276.216677 202.73577 277.62 
C 202.73577 279.023323 203.293316 280.369358 204.285615 281.361657 
C 205.277914 282.353957 206.62395 282.911503 208.027273 282.911503 
z
" clip-path="url(#p8c50065bf0)" style="fill: #0000ff; stroke: #0000ff"/>
    <path d="M 220.754545 273.417144 
C 222.572686 273.417144 224.316606 272.694789 225.602225 271.409169 
C 226.887845 270.123549 227.6102 268.37963 227.6102 266.561489 
C 227.6102 264.743349 226.887845 262.999429 225.602225 261.71381 
C 224.316606 260.42819 222.572686 259.705835 220.754545 259.705835 
C 218.936405 259.705835 217.192485 260.42819 215.906866 261.71381 
C 214.621246 262.999429 213.898891 264.743349 213.898891 266.561489 
C 213.898891 268.37963 214.621246 270.123549 215.906866 271.409169 
C 217.192485 272.694789 218.936405 273.417144 220.754545 273.417144 
z
" clip-path="url(#p8c50065bf0)" style="fill: #0000ff; stroke: #0000ff"/>
    <path d="M 233.481818 318.242563 
C 235.412526 318.242563 237.264417 317.475484 238.629633 316.110268 
C 239.99485 314.745051 240.761928 312.893161 240.761928 310.962453 
C 240.761928 309.031745 239.99485 307.179854 238.629633 305.814638 
C 237.264417 304.449421 235.412526 303.682343 233.481818 303.682343 
C 231.55111 303.682343 229.69922 304.449421 228.334003 305.814638 
C 226.968787 307.179854 226.201708 309.031745 226.201708 310.962453 
C 226.201708 312.893161 226.968787 314.745051 228.334003 316.110268 
C 229.69922 317.475484 231.55111 318.242563 233.481818 318.242563 
z
" clip-path="url(#p8c50065bf0)" style="fill: #0000ff; stroke: #0000ff"/>
    <path d="M 246.209091 305.89009 
C 248.628842 305.89009 250.949812 304.928712 252.660835 303.21769 
C 254.371857 301.506667 255.333235 299.185697 255.333235 296.765946 
C 255.333235 294.346195 254.371857 292.025224 252.660835 290.314202 
C 250.949812 288.603179 248.628842 287.641802 246.209091 287.641802 
C 243.78934 287.641802 241.468369 288.603179 239.757347 290.314202 
C 238.046324 292.025224 237.084947 294.346195 237.084947 296.765946 
C 237.084947 299.185697 238.046324 301.506667 239.757347 303.21769 
C 241.468369 304.928712 243.78934 305.89009 246.209091 305.89009 
z
" clip-path="url(#p8c50065bf0)" style="fill: #0000ff; stroke: #0000ff"/>
    <path d="M 258.936364 311.570886 
C 261.544943 311.570886 264.047033 310.534487 265.891578 308.689943 
C 267.736122 306.845398 268.772521 304.343308 268.772521 301.734729 
C 268.772521 299.126149 267.736122 296.624059 265.891578 294.779515 
C 264.047033 292.934971 261.544943 291.898571 258.936364 291.898571 
C 256.327784 291.898571 253.825694 292.934971 251.98115 294.779515 
C 250.136605 296.624059 249.100206 299.126149 249.100206 301.734729 
C 249.100206 304.343308 250.136605 306.845398 251.98115 308.689943 
C 253.825694 310.534487 256.327784 311.570886 258.936364 311.570886 
z
" clip-path="url(#p8c50065bf0)" style="fill: #0000ff; stroke: #0000ff"/>
    <path d="M 271.663636 325.422018 
C 274.31898 325.422018 276.865926 324.367039 278.743537 322.489427 
C 280.621149 320.611816 281.676129 318.06487 281.676129 315.409526 
C 281.676129 312.754182 280.621149 310.207237 278.743537 308.329625 
C 276.865926 306.452013 274.31898 305.397034 271.663636 305.397034 
C 269.008292 305.397034 266.461347 306.452013 264.583735 308.329625 
C 262.706124 310.207237 261.651144 312.754182 261.651144 315.409526 
C 261.651144 318.06487 262.706124 320.611816 264.583735 322.489427 
C 266.461347 324.367039 269.008292 325.422018 271.663636 325.422018 
z
" clip-path="url(#p8c50065bf0)" style="fill: #0000ff; stroke: #0000ff"/>
    <path d="M 284.390909 301.374777 
C 286.920785 301.374777 289.347385 300.369646 291.136278 298.580753 
C 292.925171 296.791861 293.930301 294.365261 293.930301 291.835385 
C 293.930301 289.305508 292.925171 286.878909 291.136278 285.090016 
C 289.347385 283.301123 286.920785 282.295993 284.390909 282.295993 
C 281.861033 282.295993 279.434433 283.301123 277.64554 285.090016 
C 275.856648 286.878909 274.851517 289.305508 274.851517 291.835385 
C 274.851517 294.365261 275.856648 296.791861 277.64554 298.580753 
C 279.434433 300.369646 281.861033 301.374777 284.390909 301.374777 
z
" clip-path="url(#p8c50065bf0)" style="fill: #0000ff; stroke: #0000ff"/>
    <path d="M 297.118182 294.706337 
C 299.264525 294.706337 301.323249 293.853585 302.840943 292.335891 
C 304.358637 290.818197 305.211389 288.759473 305.211389 286.61313 
C 305.211389 284.466786 304.358637 282.408062 302.840943 280.890368 
C 301.323249 279.372674 299.264525 278.519923 297.118182 278.519923 
C 294.971838 278.519923 292.913114 279.372674 291.39542 280.890368 
C 289.877726 282.408062 289.024975 284.466786 289.024975 286.61313 
C 289.024975 288.759473 289.877726 290.818197 291.39542 292.335891 
C 292.913114 293.853585 294.971838 294.706337 297.118182 294.706337 
z
" clip-path="url(#p8c50065bf0)" style="fill: #0000ff; stroke: #0000ff"/>
    <path d="M 309.845455 295.895628 
C 311.734736 295.895628 313.546891 295.145008 314.882815 293.809085 
C 316.218739 292.473161 316.969358 290.661005 316.969358 288.771724 
C 316.969358 286.882443 316.218739 285.070287 314.882815 283.734364 
C 313.546891 282.39844 311.734736 281.647821 309.845455 281.647821 
C 307.956173 281.647821 306.144018 282.39844 304.808094 283.734364 
C 303.472171 285.070287 302.721551 286.882443 302.721551 288.771724 
C 302.721551 290.661005 303.472171 292.473161 304.808094 293.809085 
C 306.144018 295.145008 307.956173 295.895628 309.845455 295.895628 
z
" clip-path="url(#p8c50065bf0)" style="fill: #0000ff; stroke: #0000ff"/>
    <path d="M 322.572727 291.536118 
C 324.078791 291.536118 325.523374 290.937752 326.588322 289.872804 
C 327.65327 288.807856 328.251636 287.363273 328.251636 285.857209 
C 328.251636 284.351145 327.65327 282.906563 326.588322 281.841615 
C 325.523374 280.776667 324.078791 280.178301 322.572727 280.178301 
C 321.066663 280.178301 319.622081 280.776667 318.557133 281.841615 
C 317.492185 282.906563 316.893819 284.351145 316.893819 285.857209 
C 316.893819 287.363273 317.492185 288.807856 318.557133 289.872804 
C 319.622081 290.937752 321.066663 291.536118 322.572727 291.536118 
z
" clip-path="url(#p8c50065bf0)" style="fill: #0000ff; stroke: #0000ff"/>
    <path d="M 335.3 312.194917 
C 336.30112 312.194917 337.261371 311.797168 337.96927 311.08927 
C 338.677168 310.381371 339.074917 309.42112 339.074917 308.42 
C 339.074917 307.41888 338.677168 306.458629 337.96927 305.75073 
C 337.261371 305.042832 336.30112 304.645083 335.3 304.645083 
C 334.29888 304.645083 333.338629 305.042832 332.63073 305.75073 
C 331.922832 306.458629 331.525083 307.41888 331.525083 308.42 
C 331.525083 309.42112 331.922832 310.381371 332.63073 311.08927 
C 333.338629 311.797168 334.29888 312.194917 335.3 312.194917 
z
" clip-path="url(#p8c50065bf0)" style="fill: #0000ff; stroke: #0000ff"/>
    <path d="M 348.027273 272.536625 
C 348.906852 272.536625 349.750524 272.187164 350.372481 271.565208 
C 350.994437 270.943251 351.343898 270.099579 351.343898 269.22 
C 351.343898 268.340421 350.994437 267.496749 350.372481 266.874792 
C 349.750524 266.252836 348.906852 265.903375 348.027273 265.903375 
C 347.147694 265.903375 346.304021 266.252836 345.682065 266.874792 
C 345.060108 267.496749 344.710648 268.340421 344.710648 269.22 
C 344.710648 270.099579 345.060108 270.943251 345.682065 271.565208 
C 346.304021 272.187164 347.147694 272.536625 348.027273 272.536625 
z
" clip-path="url(#p8c50065bf0)" style="fill: #0000ff; stroke: #0000ff"/>
    <path d="M 360.754545 244.631048 
C 361.430683 244.631048 362.079219 244.362416 362.557321 243.884314 
C 363.035423 243.406212 363.304055 242.757676 363.304055 242.081538 
C 363.304055 241.405401 363.035423 240.756865 362.557321 240.278763 
C 362.079219 239.800661 361.430683 239.532029 360.754545 239.532029 
C 360.078408 239.532029 359.429872 239.800661 358.95177 240.278763 
C 358.473668 240.756865 358.205036 241.405401 358.205036 242.081538 
C 358.205036 242.757676 358.473668 243.406212 358.95177 243.884314 
C 359.429872 244.362416 360.078408 244.631048 360.754545 244.631048 
z
" clip-path="url(#p8c50065bf0)" style="fill: #0000ff; stroke: #0000ff"/>
    <path d="M 373.481818 283.91949 
C 374.13143 283.91949 374.754524 283.661396 375.213869 283.202051 
C 375.673214 282.742706 375.931308 282.119612 375.931308 281.47 
C 375.931308 280.820388 375.673214 280.197294 375.213869 279.737949 
C 374.754524 279.278604 374.13143 279.02051 373.481818 279.02051 
C 372.832206 279.02051 372.209113 279.278604 371.749767 279.737949 
C 371.290422 280.197294 371.032328 280.820388 371.032328 281.47 
C 371.032328 282.119612 371.290422 282.742706 371.749767 283.202051 
C 372.209113 283.661396 372.832206 283.91949 373.481818 283.91949 
z
" clip-path="url(#p8c50065bf0)" style="fill: #0000ff; stroke: #0000ff"/>
    <path d="M 386.209091 93.82 
C 386.474294 93.82 386.728671 93.714634 386.916198 93.527107 
C 387.103725 93.33958 387.209091 93.085203 387.209091 92.82 
C 387.209091 92.554797 387.103725 92.30042 386.916198 92.112893 
C 386.728671 91.925366 386.474294 91.82 386.209091 91.82 
C 385.943888 91.82 385.689511 91.925366 385.501984 92.112893 
C 385.314457 92.30042 385.209091 92.554797 385.209091 92.82 
C 385.209091 93.085203 385.314457 93.33958 385.501984 93.527107 
C 385.689511 93.714634 385.943888 93.82 386.209091 93.82 
z
" clip-path="url(#p8c50065bf0)" style="fill: #0000ff; stroke: #0000ff"/>
    <path d="M 398.936364 336.37 
C 399.201567 336.37 399.455944 336.264634 399.64347 336.077107 
C 399.830997 335.88958 399.936364 335.635203 399.936364 335.37 
C 399.936364 335.104797 399.830997 334.85042 399.64347 334.662893 
C 399.455944 334.475366 399.201567 334.37 398.936364 334.37 
C 398.671161 334.37 398.416784 334.475366 398.229257 334.662893 
C 398.04173 334.85042 397.936364 335.104797 397.936364 335.37 
C 397.936364 335.635203 398.04173 335.88958 398.229257 336.077107 
C 398.416784 336.264634 398.671161 336.37 398.936364 336.37 
z
" clip-path="url(#p8c50065bf0)" style="fill: #0000ff; stroke: #0000ff"/>
    <path d="M 411.663636 93.82 
C 411.928839 93.82 412.183216 93.714634 412.370743 93.527107 
C 412.55827 93.33958 412.663636 93.085203 412.663636 92.82 
C 412.663636 92.554797 412.55827 92.30042 412.370743 92.112893 
C 412.183216 91.925366 411.928839 91.82 411.663636 91.82 
C 411.398433 91.82 411.144056 91.925366 410.95653 92.112893 
C 410.769003 92.30042 410.663636 92.554797 410.663636 92.82 
C 410.663636 93.085203 410.769003 93.33958 410.95653 93.527107 
C 411.144056 93.714634 411.398433 93.82 411.663636 93.82 
z
" clip-path="url(#p8c50065bf0)" style="fill: #0000ff; stroke: #0000ff"/>
    <path d="M 424.390909 93.527107 
C 424.578436 93.527107 424.758308 93.452602 424.890909 93.32 
C 425.023511 93.187398 425.098016 93.007527 425.098016 92.82 
C 425.098016 92.632473 425.023511 92.452602 424.890909 92.32 
C 424.758308 92.187398 424.578436 92.112893 424.390909 92.112893 
C 424.203382 92.112893 424.023511 92.187398 423.890909 92.32 
C 423.758308 92.452602 423.683802 92.632473 423.683802 92.82 
C 423.683802 93.007527 423.758308 93.187398 423.890909 93.32 
C 424.023511 93.452602 424.203382 93.527107 424.390909 93.527107 
z
" clip-path="url(#p8c50065bf0)" style="fill: #0000ff; stroke: #0000ff"/>
   </g>
   <g id="PathCollection_2">
    <path d="M 131.663636 93.527107 
C 131.851163 93.527107 132.031035 93.452602 132.163636 93.32 
C 132.296238 93.187398 132.370743 93.007527 132.370743 92.82 
C 132.370743 92.632473 132.296238 92.452602 132.163636 92.32 
C 132.031035 92.187398 131.851163 92.112893 131.663636 92.112893 
C 131.476109 92.112893 131.296238 92.187398 131.163636 92.32 
C 131.031035 92.452602 130.95653 92.632473 130.95653 92.82 
C 130.95653 93.007527 131.031035 93.187398 131.163636 93.32 
C 131.296238 93.452602 131.476109 93.527107 131.663636 93.527107 
z
" clip-path="url(#p8c50065bf0)" style="fill: #ff0000; stroke: #ff0000"/>
    <path d="M 144.390909 93.527107 
C 144.578436 93.527107 144.758308 93.452602 144.890909 93.32 
C 145.023511 93.187398 145.098016 93.007527 145.098016 92.82 
C 145.098016 92.632473 145.023511 92.452602 144.890909 92.32 
C 144.758308 92.187398 144.578436 92.112893 144.390909 92.112893 
C 144.203382 92.112893 144.023511 92.187398 143.890909 92.32 
C 143.758308 92.452602 143.683802 92.632473 143.683802 92.82 
C 143.683802 93.007527 143.758308 93.187398 143.890909 93.32 
C 144.023511 93.452602 144.203382 93.527107 144.390909 93.527107 
z
" clip-path="url(#p8c50065bf0)" style="fill: #ff0000; stroke: #ff0000"/>
    <path d="M 157.118182 93.686025 
C 157.347854 93.686025 157.568151 93.594776 157.730554 93.432372 
C 157.892957 93.269969 157.984207 93.049673 157.984207 92.82 
C 157.984207 92.590327 157.892957 92.370031 157.730554 92.207628 
C 157.568151 92.045224 157.347854 91.953975 157.118182 91.953975 
C 156.888509 91.953975 156.668212 92.045224 156.505809 92.207628 
C 156.343406 92.370031 156.252156 92.590327 156.252156 92.82 
C 156.252156 93.049673 156.343406 93.269969 156.505809 93.432372 
C 156.668212 93.594776 156.888509 93.686025 157.118182 93.686025 
z
" clip-path="url(#p8c50065bf0)" style="fill: #ff0000; stroke: #ff0000"/>
    <path d="M 169.845455 223.298034 
C 170.141961 223.298034 170.426363 223.180231 170.636024 222.970569 
C 170.845685 222.760908 170.963489 222.476506 170.963489 222.18 
C 170.963489 221.883494 170.845685 221.599092 170.636024 221.389431 
C 170.426363 221.179769 170.141961 221.061966 169.845455 221.061966 
C 169.548948 221.061966 169.264547 221.179769 169.054885 221.389431 
C 168.845224 221.599092 168.727421 221.883494 168.727421 222.18 
C 168.727421 222.476506 168.845224 222.760908 169.054885 222.970569 
C 169.264547 223.180231 169.548948 223.298034 169.845455 223.298034 
z
" clip-path="url(#p8c50065bf0)" style="fill: #ff0000; stroke: #ff0000"/>
    <path d="M 182.572727 243.884314 
C 183.050829 243.884314 183.509413 243.694362 183.847482 243.356293 
C 184.185551 243.018224 184.375503 242.55964 184.375503 242.081538 
C 184.375503 241.603437 184.185551 241.144853 183.847482 240.806784 
C 183.509413 240.468715 183.050829 240.278763 182.572727 240.278763 
C 182.094626 240.278763 181.636041 240.468715 181.297972 240.806784 
C 180.959903 241.144853 180.769952 241.603437 180.769952 242.081538 
C 180.769952 242.55964 180.959903 243.018224 181.297972 243.356293 
C 181.636041 243.694362 182.094626 243.884314 182.572727 243.884314 
z
" clip-path="url(#p8c50065bf0)" style="fill: #ff0000; stroke: #ff0000"/>
    <path d="M 195.3 224.116492 
C 195.813564 224.116492 196.306162 223.912451 196.669306 223.549306 
C 197.032451 223.186162 197.236492 222.693564 197.236492 222.18 
C 197.236492 221.666436 197.032451 221.173838 196.669306 220.810694 
C 196.306162 220.447549 195.813564 220.243508 195.3 220.243508 
C 194.786436 220.243508 194.293838 220.447549 193.930694 220.810694 
C 193.567549 221.173838 193.363508 221.666436 193.363508 222.18 
C 193.363508 222.693564 193.567549 223.186162 193.930694 223.549306 
C 194.293838 223.912451 194.786436 224.116492 195.3 224.116492 
z
" clip-path="url(#p8c50065bf0)" style="fill: #ff0000; stroke: #ff0000"/>
    <path d="M 208.027273 295.311288 
C 208.634929 295.311288 209.21778 295.069863 209.647458 294.640185 
C 210.077136 294.210507 210.318561 293.627657 210.318561 293.02 
C 210.318561 292.412343 210.077136 291.829493 209.647458 291.399815 
C 209.21778 290.970137 208.634929 290.728712 208.027273 290.728712 
C 207.419616 290.728712 206.836766 290.970137 206.407088 291.399815 
C 205.977409 291.829493 205.735985 292.412343 205.735985 293.02 
C 205.735985 293.627657 205.977409 294.210507 206.407088 294.640185 
C 206.836766 295.069863 207.419616 295.311288 208.027273 295.311288 
z
" clip-path="url(#p8c50065bf0)" style="fill: #ff0000; stroke: #ff0000"/>
    <path d="M 220.754545 265.209976 
C 221.332542 265.209976 221.886944 264.980335 222.295649 264.57163 
C 222.704354 264.162924 222.933995 263.608523 222.933995 263.030526 
C 222.933995 262.45253 222.704354 261.898128 222.295649 261.489423 
C 221.886944 261.080717 221.332542 260.851077 220.754545 260.851077 
C 220.176549 260.851077 219.622147 261.080717 219.213442 261.489423 
C 218.804737 261.898128 218.575096 262.45253 218.575096 263.030526 
C 218.575096 263.608523 218.804737 264.162924 219.213442 264.57163 
C 219.622147 264.980335 220.176549 265.209976 220.754545 265.209976 
z
" clip-path="url(#p8c50065bf0)" style="fill: #ff0000; stroke: #ff0000"/>
    <path d="M 233.481818 283.91949 
C 234.13143 283.91949 234.754524 283.661396 235.213869 283.202051 
C 235.673214 282.742706 235.931308 282.119612 235.931308 281.47 
C 235.931308 280.820388 235.673214 280.197294 235.213869 279.737949 
C 234.754524 279.278604 234.13143 279.02051 233.481818 279.02051 
C 232.832206 279.02051 232.209113 279.278604 231.749767 279.737949 
C 231.290422 280.197294 231.032328 280.820388 231.032328 281.47 
C 231.032328 282.119612 231.290422 282.742706 231.749767 283.202051 
C 232.209113 283.661396 232.832206 283.91949 233.481818 283.91949 
z
" clip-path="url(#p8c50065bf0)" style="fill: #ff0000; stroke: #ff0000"/>
    <path d="M 246.209091 297.773427 
C 246.959199 297.773427 247.678685 297.475406 248.209091 296.945 
C 248.739497 296.414594 249.037518 295.695108 249.037518 294.945 
C 249.037518 294.194892 248.739497 293.475406 248.209091 292.945 
C 247.678685 292.414594 246.959199 292.116573 246.209091 292.116573 
C 245.458983 292.116573 244.739497 292.414594 244.209091 292.945 
C 243.678685 293.475406 243.380664 294.194892 243.380664 294.945 
C 243.380664 295.695108 243.678685 296.414594 244.209091 296.945 
C 244.739497 297.475406 245.458983 297.773427 246.209091 297.773427 
z
" clip-path="url(#p8c50065bf0)" style="fill: #ff0000; stroke: #ff0000"/>
    <path d="M 258.936364 257.602207 
C 259.753774 257.602207 260.537816 257.277446 261.115813 256.699449 
C 261.69381 256.121453 262.018571 255.337411 262.018571 254.52 
C 262.018571 253.702589 261.69381 252.918547 261.115813 252.340551 
C 260.537816 251.762554 259.753774 251.437793 258.936364 251.437793 
C 258.118953 251.437793 257.334911 251.762554 256.756914 252.340551 
C 256.178917 252.918547 255.854157 253.702589 255.854157 254.52 
C 255.854157 255.337411 256.178917 256.121453 256.756914 256.699449 
C 257.334911 257.277446 258.118953 257.602207 258.936364 257.602207 
z
" clip-path="url(#p8c50065bf0)" style="fill: #ff0000; stroke: #ff0000"/>
    <path d="M 271.663636 238.996394 
C 272.533163 238.996394 273.367193 238.650927 273.982041 238.036079 
C 274.596889 237.421231 274.942356 236.587201 274.942356 235.717674 
C 274.942356 234.848148 274.596889 234.014118 273.982041 233.39927 
C 273.367193 232.784422 272.533163 232.438955 271.663636 232.438955 
C 270.79411 232.438955 269.96008 232.784422 269.345232 233.39927 
C 268.730384 234.014118 268.384917 234.848148 268.384917 235.717674 
C 268.384917 236.587201 268.730384 237.421231 269.345232 238.036079 
C 269.96008 238.650927 270.79411 238.996394 271.663636 238.996394 
z
" clip-path="url(#p8c50065bf0)" style="fill: #ff0000; stroke: #ff0000"/>
    <path d="M 284.390909 272.092281 
C 285.152647 272.092281 285.883289 271.78964 286.421919 271.25101 
C 286.960549 270.71238 287.26319 269.981738 287.26319 269.22 
C 287.26319 268.458262 286.960549 267.72762 286.421919 267.18899 
C 285.883289 266.65036 285.152647 266.347719 284.390909 266.347719 
C 283.629171 266.347719 282.89853 266.65036 282.359899 267.18899 
C 281.821269 267.72762 281.518628 268.458262 281.518628 269.22 
C 281.518628 269.981738 281.821269 270.71238 282.359899 271.25101 
C 282.89853 271.78964 283.629171 272.092281 284.390909 272.092281 
z
" clip-path="url(#p8c50065bf0)" style="fill: #ff0000; stroke: #ff0000"/>
    <path d="M 297.118182 280.57804 
C 297.902663 280.57804 298.65512 280.266362 299.209832 279.71165 
C 299.764544 279.156938 300.076222 278.404481 300.076222 277.62 
C 300.076222 276.835519 299.764544 276.083062 299.209832 275.52835 
C 298.65512 274.973638 297.902663 274.66196 297.118182 274.66196 
C 296.3337 274.66196 295.581244 274.973638 295.026532 275.52835 
C 294.47182 276.083062 294.160142 276.835519 294.160142 277.62 
C 294.160142 278.404481 294.47182 279.156938 295.026532 279.71165 
C 295.581244 280.266362 296.3337 280.57804 297.118182 280.57804 
z
" clip-path="url(#p8c50065bf0)" style="fill: #ff0000; stroke: #ff0000"/>
    <path d="M 309.845455 241.655495 
C 310.583749 241.655495 311.291904 241.362168 311.813957 240.840115 
C 312.336009 240.318062 312.629337 239.609907 312.629337 238.871613 
C 312.629337 238.133319 312.336009 237.425164 311.813957 236.903111 
C 311.291904 236.381058 310.583749 236.087731 309.845455 236.087731 
C 309.10716 236.087731 308.399005 236.381058 307.876953 236.903111 
C 307.3549 237.425164 307.061572 238.133319 307.061572 238.871613 
C 307.061572 239.609907 307.3549 240.318062 307.876953 240.840115 
C 308.399005 241.362168 309.10716 241.655495 309.845455 241.655495 
z
" clip-path="url(#p8c50065bf0)" style="fill: #ff0000; stroke: #ff0000"/>
    <path d="M 322.572727 310.711288 
C 323.180384 310.711288 323.763234 310.469863 324.192912 310.040185 
C 324.622591 309.610507 324.864015 309.027657 324.864015 308.42 
C 324.864015 307.812343 324.622591 307.229493 324.192912 306.799815 
C 323.763234 306.370137 323.180384 306.128712 322.572727 306.128712 
C 321.965071 306.128712 321.38222 306.370137 320.952542 306.799815 
C 320.522864 307.229493 320.281439 307.812343 320.281439 308.42 
C 320.281439 309.027657 320.522864 309.610507 320.952542 310.040185 
C 321.38222 310.469863 321.965071 310.711288 322.572727 310.711288 
z
" clip-path="url(#p8c50065bf0)" style="fill: #ff0000; stroke: #ff0000"/>
    <path d="M 335.3 353.121139 
C 335.719323 353.121139 336.121528 352.95454 336.418034 352.658034 
C 336.71454 352.361528 336.881139 351.959323 336.881139 351.54 
C 336.881139 351.120677 336.71454 350.718472 336.418034 350.421966 
C 336.121528 350.12546 335.719323 349.958861 335.3 349.958861 
C 334.880677 349.958861 334.478472 350.12546 334.181966 350.421966 
C 333.88546 350.718472 333.718861 351.120677 333.718861 351.54 
C 333.718861 351.959323 333.88546 352.361528 334.181966 352.658034 
C 334.478472 352.95454 334.880677 353.121139 335.3 353.121139 
z
" clip-path="url(#p8c50065bf0)" style="fill: #ff0000; stroke: #ff0000"/>
    <path d="M 348.027273 288.441139 
C 348.446596 288.441139 348.848801 288.27454 349.145307 287.978034 
C 349.441813 287.681528 349.608412 287.279323 349.608412 286.86 
C 349.608412 286.440677 349.441813 286.038472 349.145307 285.741966 
C 348.848801 285.44546 348.446596 285.278861 348.027273 285.278861 
C 347.60795 285.278861 347.205745 285.44546 346.909239 285.741966 
C 346.612733 286.038472 346.446134 286.440677 346.446134 286.86 
C 346.446134 287.279323 346.612733 287.681528 346.909239 287.978034 
C 347.205745 288.27454 347.60795 288.441139 348.027273 288.441139 
z
" clip-path="url(#p8c50065bf0)" style="fill: #ff0000; stroke: #ff0000"/>
    <path d="M 360.754545 371.342876 
C 361.105376 371.342876 361.441885 371.203489 361.68996 370.955414 
C 361.938035 370.70734 362.077421 370.370831 362.077421 370.02 
C 362.077421 369.669169 361.938035 369.33266 361.68996 369.084586 
C 361.441885 368.836511 361.105376 368.697124 360.754545 368.697124 
C 360.403715 368.697124 360.067206 368.836511 359.819131 369.084586 
C 359.571056 369.33266 359.43167 369.669169 359.43167 370.02 
C 359.43167 370.370831 359.571056 370.70734 359.819131 370.955414 
C 360.067206 371.203489 360.403715 371.342876 360.754545 371.342876 
z
" clip-path="url(#p8c50065bf0)" style="fill: #ff0000; stroke: #ff0000"/>
    <path d="M 373.481818 255.52 
C 373.747021 255.52 374.001398 255.414634 374.188925 255.227107 
C 374.376452 255.03958 374.481818 254.785203 374.481818 254.52 
C 374.481818 254.254797 374.376452 254.00042 374.188925 253.812893 
C 374.001398 253.625366 373.747021 253.52 373.481818 253.52 
C 373.216615 253.52 372.962238 253.625366 372.774711 253.812893 
C 372.587184 254.00042 372.481818 254.254797 372.481818 254.52 
C 372.481818 254.785203 372.587184 255.03958 372.774711 255.227107 
C 372.962238 255.414634 373.216615 255.52 373.481818 255.52 
z
" clip-path="url(#p8c50065bf0)" style="fill: #ff0000; stroke: #ff0000"/>
    <path d="M 386.209091 416.72 
C 386.341692 416.72 386.468881 416.667317 386.562644 416.573553 
C 386.656408 416.47979 386.709091 416.352602 386.709091 416.22 
C 386.709091 416.087398 386.656408 415.96021 386.562644 415.866447 
C 386.468881 415.772683 386.341692 415.72 386.209091 415.72 
C 386.076489 415.72 385.949301 415.772683 385.855538 415.866447 
C 385.761774 415.96021 385.709091 416.087398 385.709091 416.22 
C 385.709091 416.352602 385.761774 416.47979 385.855538 416.573553 
C 385.949301 416.667317 386.076489 416.72 386.209091 416.72 
z
" clip-path="url(#p8c50065bf0)" style="fill: #ff0000; stroke: #ff0000"/>
   </g>
   <g id="matplotlib.axis_1">
    <g id="xtick_1">
     <g id="line2d_1">
      <defs>
       <path id="mfba7373e3f" d="M 0 0 
L 0 3.5 
" style="stroke: #000000; stroke-width: 0.8"/>
      </defs>
      <g>
       <use xlink:href="#mfba7373e3f" x="80.754545" y="448.56" style="stroke: #000000; stroke-width: 0.8"/>
      </g>
     </g>
     <g id="text_1">
      <!-- 50 -->
      <g transform="translate(74.392045 463.158437)scale(0.1 -0.1)">
       <defs>
        <path id="DejaVuSans-35" d="M 691 4666 
L 3169 4666 
L 3169 4134 
L 1269 4134 
L 1269 2991 
Q 1406 3038 1543 3061 
Q 1681 3084 1819 3084 
Q 2600 3084 3056 2656 
Q 3513 2228 3513 1497 
Q 3513 744 3044 326 
Q 2575 -91 1722 -91 
Q 1428 -91 1123 -41 
Q 819 9 494 109 
L 494 744 
Q 775 591 1075 516 
Q 1375 441 1709 441 
Q 2250 441 2565 725 
Q 2881 1009 2881 1497 
Q 2881 1984 2565 2268 
Q 2250 2553 1709 2553 
Q 1456 2553 1204 2497 
Q 953 2441 691 2322 
L 691 4666 
z
" transform="scale(0.015625)"/>
        <path id="DejaVuSans-30" d="M 2034 4250 
Q 1547 4250 1301 3770 
Q 1056 3291 1056 2328 
Q 1056 1369 1301 889 
Q 1547 409 2034 409 
Q 2525 409 2770 889 
Q 3016 1369 3016 2328 
Q 3016 3291 2770 3770 
Q 2525 4250 2034 4250 
z
M 2034 4750 
Q 2819 4750 3233 4129 
Q 3647 3509 3647 2328 
Q 3647 1150 3233 529 
Q 2819 -91 2034 -91 
Q 1250 -91 836 529 
Q 422 1150 422 2328 
Q 422 3509 836 4129 
Q 1250 4750 2034 4750 
z
" transform="scale(0.015625)"/>
       </defs>
       <use xlink:href="#DejaVuSans-35"/>
       <use xlink:href="#DejaVuSans-30" x="63.623047"/>
      </g>
     </g>
    </g>
    <g id="xtick_2">
     <g id="line2d_2">
      <g>
       <use xlink:href="#mfba7373e3f" x="144.390909" y="448.56" style="stroke: #000000; stroke-width: 0.8"/>
      </g>
     </g>
     <g id="text_2">
      <!-- 100 -->
      <g transform="translate(134.847159 463.158437)scale(0.1 -0.1)">
       <defs>
        <path id="DejaVuSans-31" d="M 794 531 
L 1825 531 
L 1825 4091 
L 703 3866 
L 703 4441 
L 1819 4666 
L 2450 4666 
L 2450 531 
L 3481 531 
L 3481 0 
L 794 0 
L 794 531 
z
" transform="scale(0.015625)"/>
       </defs>
       <use xlink:href="#DejaVuSans-31"/>
       <use xlink:href="#DejaVuSans-30" x="63.623047"/>
       <use xlink:href="#DejaVuSans-30" x="127.246094"/>
      </g>
     </g>
    </g>
    <g id="xtick_3">
     <g id="line2d_3">
      <g>
       <use xlink:href="#mfba7373e3f" x="208.027273" y="448.56" style="stroke: #000000; stroke-width: 0.8"/>
      </g>
     </g>
     <g id="text_3">
      <!-- 150 -->
      <g transform="translate(198.483523 463.158437)scale(0.1 -0.1)">
       <use xlink:href="#DejaVuSans-31"/>
       <use xlink:href="#DejaVuSans-35" x="63.623047"/>
       <use xlink:href="#DejaVuSans-30" x="127.246094"/>
      </g>
     </g>
    </g>
    <g id="xtick_4">
     <g id="line2d_4">
      <g>
       <use xlink:href="#mfba7373e3f" x="271.663636" y="448.56" style="stroke: #000000; stroke-width: 0.8"/>
      </g>
     </g>
     <g id="text_4">
      <!-- 200 -->
      <g transform="translate(262.119886 463.158437)scale(0.1 -0.1)">
       <defs>
        <path id="DejaVuSans-32" d="M 1228 531 
L 3431 531 
L 3431 0 
L 469 0 
L 469 531 
Q 828 903 1448 1529 
Q 2069 2156 2228 2338 
Q 2531 2678 2651 2914 
Q 2772 3150 2772 3378 
Q 2772 3750 2511 3984 
Q 2250 4219 1831 4219 
Q 1534 4219 1204 4116 
Q 875 4013 500 3803 
L 500 4441 
Q 881 4594 1212 4672 
Q 1544 4750 1819 4750 
Q 2544 4750 2975 4387 
Q 3406 4025 3406 3419 
Q 3406 3131 3298 2873 
Q 3191 2616 2906 2266 
Q 2828 2175 2409 1742 
Q 1991 1309 1228 531 
z
" transform="scale(0.015625)"/>
       </defs>
       <use xlink:href="#DejaVuSans-32"/>
       <use xlink:href="#DejaVuSans-30" x="63.623047"/>
       <use xlink:href="#DejaVuSans-30" x="127.246094"/>
      </g>
     </g>
    </g>
    <g id="xtick_5">
     <g id="line2d_5">
      <g>
       <use xlink:href="#mfba7373e3f" x="335.3" y="448.56" style="stroke: #000000; stroke-width: 0.8"/>
      </g>
     </g>
     <g id="text_5">
      <!-- 250 -->
      <g transform="translate(325.75625 463.158437)scale(0.1 -0.1)">
       <use xlink:href="#DejaVuSans-32"/>
       <use xlink:href="#DejaVuSans-35" x="63.623047"/>
       <use xlink:href="#DejaVuSans-30" x="127.246094"/>
      </g>
     </g>
    </g>
    <g id="xtick_6">
     <g id="line2d_6">
      <g>
       <use xlink:href="#mfba7373e3f" x="398.936364" y="448.56" style="stroke: #000000; stroke-width: 0.8"/>
      </g>
     </g>
     <g id="text_6">
      <!-- 300 -->
      <g transform="translate(389.392614 463.158437)scale(0.1 -0.1)">
       <defs>
        <path id="DejaVuSans-33" d="M 2597 2516 
Q 3050 2419 3304 2112 
Q 3559 1806 3559 1356 
Q 3559 666 3084 287 
Q 2609 -91 1734 -91 
Q 1441 -91 1130 -33 
Q 819 25 488 141 
L 488 750 
Q 750 597 1062 519 
Q 1375 441 1716 441 
Q 2309 441 2620 675 
Q 2931 909 2931 1356 
Q 2931 1769 2642 2001 
Q 2353 2234 1838 2234 
L 1294 2234 
L 1294 2753 
L 1863 2753 
Q 2328 2753 2575 2939 
Q 2822 3125 2822 3475 
Q 2822 3834 2567 4026 
Q 2313 4219 1838 4219 
Q 1578 4219 1281 4162 
Q 984 4106 628 3988 
L 628 4550 
Q 988 4650 1302 4700 
Q 1616 4750 1894 4750 
Q 2613 4750 3031 4423 
Q 3450 4097 3450 3541 
Q 3450 3153 3228 2886 
Q 3006 2619 2597 2516 
z
" transform="scale(0.015625)"/>
       </defs>
       <use xlink:href="#DejaVuSans-33"/>
       <use xlink:href="#DejaVuSans-30" x="63.623047"/>
       <use xlink:href="#DejaVuSans-30" x="127.246094"/>
      </g>
     </g>
    </g>
    <g id="text_7">
     <!-- Hardness -->
     <g transform="translate(234.878906 476.836563)scale(0.1 -0.1)">
      <defs>
       <path id="DejaVuSans-48" d="M 628 4666 
L 1259 4666 
L 1259 2753 
L 3553 2753 
L 3553 4666 
L 4184 4666 
L 4184 0 
L 3553 0 
L 3553 2222 
L 1259 2222 
L 1259 0 
L 628 0 
L 628 4666 
z
" transform="scale(0.015625)"/>
       <path id="DejaVuSans-61" d="M 2194 1759 
Q 1497 1759 1228 1600 
Q 959 1441 959 1056 
Q 959 750 1161 570 
Q 1363 391 1709 391 
Q 2188 391 2477 730 
Q 2766 1069 2766 1631 
L 2766 1759 
L 2194 1759 
z
M 3341 1997 
L 3341 0 
L 2766 0 
L 2766 531 
Q 2569 213 2275 61 
Q 1981 -91 1556 -91 
Q 1019 -91 701 211 
Q 384 513 384 1019 
Q 384 1609 779 1909 
Q 1175 2209 1959 2209 
L 2766 2209 
L 2766 2266 
Q 2766 2663 2505 2880 
Q 2244 3097 1772 3097 
Q 1472 3097 1187 3025 
Q 903 2953 641 2809 
L 641 3341 
Q 956 3463 1253 3523 
Q 1550 3584 1831 3584 
Q 2591 3584 2966 3190 
Q 3341 2797 3341 1997 
z
" transform="scale(0.015625)"/>
       <path id="DejaVuSans-72" d="M 2631 2963 
Q 2534 3019 2420 3045 
Q 2306 3072 2169 3072 
Q 1681 3072 1420 2755 
Q 1159 2438 1159 1844 
L 1159 0 
L 581 0 
L 581 3500 
L 1159 3500 
L 1159 2956 
Q 1341 3275 1631 3429 
Q 1922 3584 2338 3584 
Q 2397 3584 2469 3576 
Q 2541 3569 2628 3553 
L 2631 2963 
z
" transform="scale(0.015625)"/>
       <path id="DejaVuSans-64" d="M 2906 2969 
L 2906 4863 
L 3481 4863 
L 3481 0 
L 2906 0 
L 2906 525 
Q 2725 213 2448 61 
Q 2172 -91 1784 -91 
Q 1150 -91 751 415 
Q 353 922 353 1747 
Q 353 2572 751 3078 
Q 1150 3584 1784 3584 
Q 2172 3584 2448 3432 
Q 2725 3281 2906 2969 
z
M 947 1747 
Q 947 1113 1208 752 
Q 1469 391 1925 391 
Q 2381 391 2643 752 
Q 2906 1113 2906 1747 
Q 2906 2381 2643 2742 
Q 2381 3103 1925 3103 
Q 1469 3103 1208 2742 
Q 947 2381 947 1747 
z
" transform="scale(0.015625)"/>
       <path id="DejaVuSans-6e" d="M 3513 2113 
L 3513 0 
L 2938 0 
L 2938 2094 
Q 2938 2591 2744 2837 
Q 2550 3084 2163 3084 
Q 1697 3084 1428 2787 
Q 1159 2491 1159 1978 
L 1159 0 
L 581 0 
L 581 3500 
L 1159 3500 
L 1159 2956 
Q 1366 3272 1645 3428 
Q 1925 3584 2291 3584 
Q 2894 3584 3203 3211 
Q 3513 2838 3513 2113 
z
" transform="scale(0.015625)"/>
       <path id="DejaVuSans-65" d="M 3597 1894 
L 3597 1613 
L 953 1613 
Q 991 1019 1311 708 
Q 1631 397 2203 397 
Q 2534 397 2845 478 
Q 3156 559 3463 722 
L 3463 178 
Q 3153 47 2828 -22 
Q 2503 -91 2169 -91 
Q 1331 -91 842 396 
Q 353 884 353 1716 
Q 353 2575 817 3079 
Q 1281 3584 2069 3584 
Q 2775 3584 3186 3129 
Q 3597 2675 3597 1894 
z
M 3022 2063 
Q 3016 2534 2758 2815 
Q 2500 3097 2075 3097 
Q 1594 3097 1305 2825 
Q 1016 2553 972 2059 
L 3022 2063 
z
" transform="scale(0.015625)"/>
       <path id="DejaVuSans-73" d="M 2834 3397 
L 2834 2853 
Q 2591 2978 2328 3040 
Q 2066 3103 1784 3103 
Q 1356 3103 1142 2972 
Q 928 2841 928 2578 
Q 928 2378 1081 2264 
Q 1234 2150 1697 2047 
L 1894 2003 
Q 2506 1872 2764 1633 
Q 3022 1394 3022 966 
Q 3022 478 2636 193 
Q 2250 -91 1575 -91 
Q 1294 -91 989 -36 
Q 684 19 347 128 
L 347 722 
Q 666 556 975 473 
Q 1284 391 1588 391 
Q 1994 391 2212 530 
Q 2431 669 2431 922 
Q 2431 1156 2273 1281 
Q 2116 1406 1581 1522 
L 1381 1569 
Q 847 1681 609 1914 
Q 372 2147 372 2553 
Q 372 3047 722 3315 
Q 1072 3584 1716 3584 
Q 2034 3584 2315 3537 
Q 2597 3491 2834 3397 
z
" transform="scale(0.015625)"/>
      </defs>
      <use xlink:href="#DejaVuSans-48"/>
      <use xlink:href="#DejaVuSans-61" x="75.195312"/>
      <use xlink:href="#DejaVuSans-72" x="136.474609"/>
      <use xlink:href="#DejaVuSans-64" x="175.837891"/>
      <use xlink:href="#DejaVuSans-6e" x="239.314453"/>
      <use xlink:href="#DejaVuSans-65" x="302.693359"/>
      <use xlink:href="#DejaVuSans-73" x="364.216797"/>
      <use xlink:href="#DejaVuSans-73" x="416.316406"/>
     </g>
    </g>
   </g>
   <g id="matplotlib.axis_2">
    <g id="ytick_1">
     <g id="line2d_7">
      <defs>
       <path id="m0e53966912" d="M 0 0 
L -3.5 0 
" style="stroke: #000000; stroke-width: 0.8"/>
      </defs>
      <g>
       <use xlink:href="#m0e53966912" x="63" y="416.22" style="stroke: #000000; stroke-width: 0.8"/>
      </g>
     </g>
     <g id="text_8">
      <!-- 0.0 -->
      <g transform="translate(40.096875 420.019219)scale(0.1 -0.1)">
       <defs>
        <path id="DejaVuSans-2e" d="M 684 794 
L 1344 794 
L 1344 0 
L 684 0 
L 684 794 
z
" transform="scale(0.015625)"/>
       </defs>
       <use xlink:href="#DejaVuSans-30"/>
       <use xlink:href="#DejaVuSans-2e" x="63.623047"/>
       <use xlink:href="#DejaVuSans-30" x="95.410156"/>
      </g>
     </g>
    </g>
    <g id="ytick_2">
     <g id="line2d_8">
      <g>
       <use xlink:href="#m0e53966912" x="63" y="351.54" style="stroke: #000000; stroke-width: 0.8"/>
      </g>
     </g>
     <g id="text_9">
      <!-- 0.2 -->
      <g transform="translate(40.096875 355.339219)scale(0.1 -0.1)">
       <use xlink:href="#DejaVuSans-30"/>
       <use xlink:href="#DejaVuSans-2e" x="63.623047"/>
       <use xlink:href="#DejaVuSans-32" x="95.410156"/>
      </g>
     </g>
    </g>
    <g id="ytick_3">
     <g id="line2d_9">
      <g>
       <use xlink:href="#m0e53966912" x="63" y="286.86" style="stroke: #000000; stroke-width: 0.8"/>
      </g>
     </g>
     <g id="text_10">
      <!-- 0.4 -->
      <g transform="translate(40.096875 290.659219)scale(0.1 -0.1)">
       <defs>
        <path id="DejaVuSans-34" d="M 2419 4116 
L 825 1625 
L 2419 1625 
L 2419 4116 
z
M 2253 4666 
L 3047 4666 
L 3047 1625 
L 3713 1625 
L 3713 1100 
L 3047 1100 
L 3047 0 
L 2419 0 
L 2419 1100 
L 313 1100 
L 313 1709 
L 2253 4666 
z
" transform="scale(0.015625)"/>
       </defs>
       <use xlink:href="#DejaVuSans-30"/>
       <use xlink:href="#DejaVuSans-2e" x="63.623047"/>
       <use xlink:href="#DejaVuSans-34" x="95.410156"/>
      </g>
     </g>
    </g>
    <g id="ytick_4">
     <g id="line2d_10">
      <g>
       <use xlink:href="#m0e53966912" x="63" y="222.18" style="stroke: #000000; stroke-width: 0.8"/>
      </g>
     </g>
     <g id="text_11">
      <!-- 0.6 -->
      <g transform="translate(40.096875 225.979219)scale(0.1 -0.1)">
       <defs>
        <path id="DejaVuSans-36" d="M 2113 2584 
Q 1688 2584 1439 2293 
Q 1191 2003 1191 1497 
Q 1191 994 1439 701 
Q 1688 409 2113 409 
Q 2538 409 2786 701 
Q 3034 994 3034 1497 
Q 3034 2003 2786 2293 
Q 2538 2584 2113 2584 
z
M 3366 4563 
L 3366 3988 
Q 3128 4100 2886 4159 
Q 2644 4219 2406 4219 
Q 1781 4219 1451 3797 
Q 1122 3375 1075 2522 
Q 1259 2794 1537 2939 
Q 1816 3084 2150 3084 
Q 2853 3084 3261 2657 
Q 3669 2231 3669 1497 
Q 3669 778 3244 343 
Q 2819 -91 2113 -91 
Q 1303 -91 875 529 
Q 447 1150 447 2328 
Q 447 3434 972 4092 
Q 1497 4750 2381 4750 
Q 2619 4750 2861 4703 
Q 3103 4656 3366 4563 
z
" transform="scale(0.015625)"/>
       </defs>
       <use xlink:href="#DejaVuSans-30"/>
       <use xlink:href="#DejaVuSans-2e" x="63.623047"/>
       <use xlink:href="#DejaVuSans-36" x="95.410156"/>
      </g>
     </g>
    </g>
    <g id="ytick_5">
     <g id="line2d_11">
      <g>
       <use xlink:href="#m0e53966912" x="63" y="157.5" style="stroke: #000000; stroke-width: 0.8"/>
      </g>
     </g>
     <g id="text_12">
      <!-- 0.8 -->
      <g transform="translate(40.096875 161.299219)scale(0.1 -0.1)">
       <defs>
        <path id="DejaVuSans-38" d="M 2034 2216 
Q 1584 2216 1326 1975 
Q 1069 1734 1069 1313 
Q 1069 891 1326 650 
Q 1584 409 2034 409 
Q 2484 409 2743 651 
Q 3003 894 3003 1313 
Q 3003 1734 2745 1975 
Q 2488 2216 2034 2216 
z
M 1403 2484 
Q 997 2584 770 2862 
Q 544 3141 544 3541 
Q 544 4100 942 4425 
Q 1341 4750 2034 4750 
Q 2731 4750 3128 4425 
Q 3525 4100 3525 3541 
Q 3525 3141 3298 2862 
Q 3072 2584 2669 2484 
Q 3125 2378 3379 2068 
Q 3634 1759 3634 1313 
Q 3634 634 3220 271 
Q 2806 -91 2034 -91 
Q 1263 -91 848 271 
Q 434 634 434 1313 
Q 434 1759 690 2068 
Q 947 2378 1403 2484 
z
M 1172 3481 
Q 1172 3119 1398 2916 
Q 1625 2713 2034 2713 
Q 2441 2713 2670 2916 
Q 2900 3119 2900 3481 
Q 2900 3844 2670 4047 
Q 2441 4250 2034 4250 
Q 1625 4250 1398 4047 
Q 1172 3844 1172 3481 
z
" transform="scale(0.015625)"/>
       </defs>
       <use xlink:href="#DejaVuSans-30"/>
       <use xlink:href="#DejaVuSans-2e" x="63.623047"/>
       <use xlink:href="#DejaVuSans-38" x="95.410156"/>
      </g>
     </g>
    </g>
    <g id="ytick_6">
     <g id="line2d_12">
      <g>
       <use xlink:href="#m0e53966912" x="63" y="92.82" style="stroke: #000000; stroke-width: 0.8"/>
      </g>
     </g>
     <g id="text_13">
      <!-- 1.0 -->
      <g transform="translate(40.096875 96.619219)scale(0.1 -0.1)">
       <use xlink:href="#DejaVuSans-31"/>
       <use xlink:href="#DejaVuSans-2e" x="63.623047"/>
       <use xlink:href="#DejaVuSans-30" x="95.410156"/>
      </g>
     </g>
    </g>
    <g id="text_14">
     <!-- Proportion of Potable Water -->
     <g transform="translate(34.017187 323.241094)rotate(-90)scale(0.1 -0.1)">
      <defs>
       <path id="DejaVuSans-50" d="M 1259 4147 
L 1259 2394 
L 2053 2394 
Q 2494 2394 2734 2622 
Q 2975 2850 2975 3272 
Q 2975 3691 2734 3919 
Q 2494 4147 2053 4147 
L 1259 4147 
z
M 628 4666 
L 2053 4666 
Q 2838 4666 3239 4311 
Q 3641 3956 3641 3272 
Q 3641 2581 3239 2228 
Q 2838 1875 2053 1875 
L 1259 1875 
L 1259 0 
L 628 0 
L 628 4666 
z
" transform="scale(0.015625)"/>
       <path id="DejaVuSans-6f" d="M 1959 3097 
Q 1497 3097 1228 2736 
Q 959 2375 959 1747 
Q 959 1119 1226 758 
Q 1494 397 1959 397 
Q 2419 397 2687 759 
Q 2956 1122 2956 1747 
Q 2956 2369 2687 2733 
Q 2419 3097 1959 3097 
z
M 1959 3584 
Q 2709 3584 3137 3096 
Q 3566 2609 3566 1747 
Q 3566 888 3137 398 
Q 2709 -91 1959 -91 
Q 1206 -91 779 398 
Q 353 888 353 1747 
Q 353 2609 779 3096 
Q 1206 3584 1959 3584 
z
" transform="scale(0.015625)"/>
       <path id="DejaVuSans-70" d="M 1159 525 
L 1159 -1331 
L 581 -1331 
L 581 3500 
L 1159 3500 
L 1159 2969 
Q 1341 3281 1617 3432 
Q 1894 3584 2278 3584 
Q 2916 3584 3314 3078 
Q 3713 2572 3713 1747 
Q 3713 922 3314 415 
Q 2916 -91 2278 -91 
Q 1894 -91 1617 61 
Q 1341 213 1159 525 
z
M 3116 1747 
Q 3116 2381 2855 2742 
Q 2594 3103 2138 3103 
Q 1681 3103 1420 2742 
Q 1159 2381 1159 1747 
Q 1159 1113 1420 752 
Q 1681 391 2138 391 
Q 2594 391 2855 752 
Q 3116 1113 3116 1747 
z
" transform="scale(0.015625)"/>
       <path id="DejaVuSans-74" d="M 1172 4494 
L 1172 3500 
L 2356 3500 
L 2356 3053 
L 1172 3053 
L 1172 1153 
Q 1172 725 1289 603 
Q 1406 481 1766 481 
L 2356 481 
L 2356 0 
L 1766 0 
Q 1100 0 847 248 
Q 594 497 594 1153 
L 594 3053 
L 172 3053 
L 172 3500 
L 594 3500 
L 594 4494 
L 1172 4494 
z
" transform="scale(0.015625)"/>
       <path id="DejaVuSans-69" d="M 603 3500 
L 1178 3500 
L 1178 0 
L 603 0 
L 603 3500 
z
M 603 4863 
L 1178 4863 
L 1178 4134 
L 603 4134 
L 603 4863 
z
" transform="scale(0.015625)"/>
       <path id="DejaVuSans-20" transform="scale(0.015625)"/>
       <path id="DejaVuSans-66" d="M 2375 4863 
L 2375 4384 
L 1825 4384 
Q 1516 4384 1395 4259 
Q 1275 4134 1275 3809 
L 1275 3500 
L 2222 3500 
L 2222 3053 
L 1275 3053 
L 1275 0 
L 697 0 
L 697 3053 
L 147 3053 
L 147 3500 
L 697 3500 
L 697 3744 
Q 697 4328 969 4595 
Q 1241 4863 1831 4863 
L 2375 4863 
z
" transform="scale(0.015625)"/>
       <path id="DejaVuSans-62" d="M 3116 1747 
Q 3116 2381 2855 2742 
Q 2594 3103 2138 3103 
Q 1681 3103 1420 2742 
Q 1159 2381 1159 1747 
Q 1159 1113 1420 752 
Q 1681 391 2138 391 
Q 2594 391 2855 752 
Q 3116 1113 3116 1747 
z
M 1159 2969 
Q 1341 3281 1617 3432 
Q 1894 3584 2278 3584 
Q 2916 3584 3314 3078 
Q 3713 2572 3713 1747 
Q 3713 922 3314 415 
Q 2916 -91 2278 -91 
Q 1894 -91 1617 61 
Q 1341 213 1159 525 
L 1159 0 
L 581 0 
L 581 4863 
L 1159 4863 
L 1159 2969 
z
" transform="scale(0.015625)"/>
       <path id="DejaVuSans-6c" d="M 603 4863 
L 1178 4863 
L 1178 0 
L 603 0 
L 603 4863 
z
" transform="scale(0.015625)"/>
       <path id="DejaVuSans-57" d="M 213 4666 
L 850 4666 
L 1831 722 
L 2809 4666 
L 3519 4666 
L 4500 722 
L 5478 4666 
L 6119 4666 
L 4947 0 
L 4153 0 
L 3169 4050 
L 2175 0 
L 1381 0 
L 213 4666 
z
" transform="scale(0.015625)"/>
      </defs>
      <use xlink:href="#DejaVuSans-50"/>
      <use xlink:href="#DejaVuSans-72" x="58.552734"/>
      <use xlink:href="#DejaVuSans-6f" x="97.416016"/>
      <use xlink:href="#DejaVuSans-70" x="158.597656"/>
      <use xlink:href="#DejaVuSans-6f" x="222.074219"/>
      <use xlink:href="#DejaVuSans-72" x="283.255859"/>
      <use xlink:href="#DejaVuSans-74" x="324.369141"/>
      <use xlink:href="#DejaVuSans-69" x="363.578125"/>
      <use xlink:href="#DejaVuSans-6f" x="391.361328"/>
      <use xlink:href="#DejaVuSans-6e" x="452.542969"/>
      <use xlink:href="#DejaVuSans-20" x="515.921875"/>
      <use xlink:href="#DejaVuSans-6f" x="547.708984"/>
      <use xlink:href="#DejaVuSans-66" x="608.890625"/>
      <use xlink:href="#DejaVuSans-20" x="644.095703"/>
      <use xlink:href="#DejaVuSans-50" x="675.882812"/>
      <use xlink:href="#DejaVuSans-6f" x="732.560547"/>
      <use xlink:href="#DejaVuSans-74" x="793.742188"/>
      <use xlink:href="#DejaVuSans-61" x="832.951172"/>
      <use xlink:href="#DejaVuSans-62" x="894.230469"/>
      <use xlink:href="#DejaVuSans-6c" x="957.707031"/>
      <use xlink:href="#DejaVuSans-65" x="985.490234"/>
      <use xlink:href="#DejaVuSans-20" x="1047.013672"/>
      <use xlink:href="#DejaVuSans-57" x="1078.800781"/>
      <use xlink:href="#DejaVuSans-61" x="1171.302734"/>
      <use xlink:href="#DejaVuSans-74" x="1232.582031"/>
      <use xlink:href="#DejaVuSans-65" x="1271.791016"/>
      <use xlink:href="#DejaVuSans-72" x="1333.314453"/>
     </g>
    </g>
   </g>
   <g id="line2d_13">
    <path d="M 80.754545 295.613225 
L 435.845455 290.748156 
L 435.845455 290.748156 
" clip-path="url(#p8c50065bf0)" style="fill: none; stroke: #0000ff; stroke-width: 1.5; stroke-linecap: square"/>
   </g>
   <g id="line2d_14">
    <path d="M 80.754545 193.038269 
L 99.845455 199.930624 
L 118.936364 207.05437 
L 139.3 214.881087 
L 162.209091 223.926648 
L 188.936364 234.732364 
L 224.572727 249.406575 
L 290.754545 276.698247 
L 317.481818 287.451087 
L 340.390909 296.435829 
L 360.754545 304.197779 
L 379.845455 311.252803 
L 398.936364 318.069822 
L 416.754545 324.20075 
L 434.572727 330.095139 
L 435.845455 330.506841 
L 435.845455 330.506841 
" clip-path="url(#p8c50065bf0)" style="fill: none; stroke: #ff0000; stroke-width: 1.5; stroke-linecap: square"/>
   </g>
   <g id="patch_3">
    <path d="M 63 448.56 
L 63 60.48 
" style="fill: none; stroke: #000000; stroke-width: 0.8; stroke-linejoin: miter; stroke-linecap: square"/>
   </g>
   <g id="patch_4">
    <path d="M 453.6 448.56 
L 453.6 60.48 
" style="fill: none; stroke: #000000; stroke-width: 0.8; stroke-linejoin: miter; stroke-linecap: square"/>
   </g>
   <g id="patch_5">
    <path d="M 63 448.56 
L 453.6 448.56 
" style="fill: none; stroke: #000000; stroke-width: 0.8; stroke-linejoin: miter; stroke-linecap: square"/>
   </g>
   <g id="patch_6">
    <path d="M 63 60.48 
L 453.6 60.48 
" style="fill: none; stroke: #000000; stroke-width: 0.8; stroke-linejoin: miter; stroke-linecap: square"/>
   </g>
   <g id="legend_1">
    <g id="patch_7">
     <path d="M 70 443.56 
L 139.9 443.56 
Q 141.9 443.56 141.9 441.56 
L 141.9 383.8475 
Q 141.9 381.8475 139.9 381.8475 
L 70 381.8475 
Q 68 381.8475 68 383.8475 
L 68 441.56 
Q 68 443.56 70 443.56 
z
" style="fill: #ffffff; opacity: 0.8; stroke: #cccccc; stroke-linejoin: miter"/>
    </g>
    <g id="PathCollection_3">
     <defs>
      <path id="m026d11a21c" d="M 0 7.079901 
C 1.877612 7.079901 3.678574 6.333918 5.006246 5.006246 
C 6.333918 3.678574 7.079901 1.877612 7.079901 0 
C 7.079901 -1.877612 6.333918 -3.678574 5.006246 -5.006246 
C 3.678574 -6.333918 1.877612 -7.079901 0 -7.079901 
C -1.877612 -7.079901 -3.678574 -6.333918 -5.006246 -5.006246 
C -6.333918 -3.678574 -7.079901 -1.877612 -7.079901 0 
C -7.079901 1.877612 -6.333918 3.678574 -5.006246 5.006246 
C -3.678574 6.333918 -1.877612 7.079901 0 7.079901 
z
" style="stroke: #0000ff"/>
     </defs>
     <g>
      <use xlink:href="#m026d11a21c" x="82" y="390.820938" style="fill: #0000ff; stroke: #0000ff"/>
     </g>
    </g>
    <g id="text_15">
     <!-- lowChl -->
     <g transform="translate(100 393.445938)scale(0.1 -0.1)">
      <defs>
       <path id="DejaVuSans-77" d="M 269 3500 
L 844 3500 
L 1563 769 
L 2278 3500 
L 2956 3500 
L 3675 769 
L 4391 3500 
L 4966 3500 
L 4050 0 
L 3372 0 
L 2619 2869 
L 1863 0 
L 1184 0 
L 269 3500 
z
" transform="scale(0.015625)"/>
       <path id="DejaVuSans-43" d="M 4122 4306 
L 4122 3641 
Q 3803 3938 3442 4084 
Q 3081 4231 2675 4231 
Q 1875 4231 1450 3742 
Q 1025 3253 1025 2328 
Q 1025 1406 1450 917 
Q 1875 428 2675 428 
Q 3081 428 3442 575 
Q 3803 722 4122 1019 
L 4122 359 
Q 3791 134 3420 21 
Q 3050 -91 2638 -91 
Q 1578 -91 968 557 
Q 359 1206 359 2328 
Q 359 3453 968 4101 
Q 1578 4750 2638 4750 
Q 3056 4750 3426 4639 
Q 3797 4528 4122 4306 
z
" transform="scale(0.015625)"/>
       <path id="DejaVuSans-68" d="M 3513 2113 
L 3513 0 
L 2938 0 
L 2938 2094 
Q 2938 2591 2744 2837 
Q 2550 3084 2163 3084 
Q 1697 3084 1428 2787 
Q 1159 2491 1159 1978 
L 1159 0 
L 581 0 
L 581 4863 
L 1159 4863 
L 1159 2956 
Q 1366 3272 1645 3428 
Q 1925 3584 2291 3584 
Q 2894 3584 3203 3211 
Q 3513 2838 3513 2113 
z
" transform="scale(0.015625)"/>
      </defs>
      <use xlink:href="#DejaVuSans-6c"/>
      <use xlink:href="#DejaVuSans-6f" x="27.783203"/>
      <use xlink:href="#DejaVuSans-77" x="88.964844"/>
      <use xlink:href="#DejaVuSans-43" x="170.751953"/>
      <use xlink:href="#DejaVuSans-68" x="240.576172"/>
      <use xlink:href="#DejaVuSans-6c" x="303.955078"/>
     </g>
    </g>
    <g id="PathCollection_4">
     <defs>
      <path id="me0a06e6f92" d="M 0 2.318405 
C 0.614848 2.318405 1.204596 2.074123 1.63936 1.63936 
C 2.074123 1.204596 2.318405 0.614848 2.318405 0 
C 2.318405 -0.614848 2.074123 -1.204596 1.63936 -1.63936 
C 1.204596 -2.074123 0.614848 -2.318405 0 -2.318405 
C -0.614848 -2.318405 -1.204596 -2.074123 -1.63936 -1.63936 
C -2.074123 -1.204596 -2.318405 -0.614848 -2.318405 0 
C -2.318405 0.614848 -2.074123 1.204596 -1.63936 1.63936 
C -1.204596 2.074123 -0.614848 2.318405 0 2.318405 
z
" style="stroke: #ff0000"/>
     </defs>
     <g>
      <use xlink:href="#me0a06e6f92" x="82" y="405.499063" style="fill: #ff0000; stroke: #ff0000"/>
     </g>
    </g>
    <g id="text_16">
     <!-- highChl -->
     <g transform="translate(100 408.124063)scale(0.1 -0.1)">
      <defs>
       <path id="DejaVuSans-67" d="M 2906 1791 
Q 2906 2416 2648 2759 
Q 2391 3103 1925 3103 
Q 1463 3103 1205 2759 
Q 947 2416 947 1791 
Q 947 1169 1205 825 
Q 1463 481 1925 481 
Q 2391 481 2648 825 
Q 2906 1169 2906 1791 
z
M 3481 434 
Q 3481 -459 3084 -895 
Q 2688 -1331 1869 -1331 
Q 1566 -1331 1297 -1286 
Q 1028 -1241 775 -1147 
L 775 -588 
Q 1028 -725 1275 -790 
Q 1522 -856 1778 -856 
Q 2344 -856 2625 -561 
Q 2906 -266 2906 331 
L 2906 616 
Q 2728 306 2450 153 
Q 2172 0 1784 0 
Q 1141 0 747 490 
Q 353 981 353 1791 
Q 353 2603 747 3093 
Q 1141 3584 1784 3584 
Q 2172 3584 2450 3431 
Q 2728 3278 2906 2969 
L 2906 3500 
L 3481 3500 
L 3481 434 
z
" transform="scale(0.015625)"/>
      </defs>
      <use xlink:href="#DejaVuSans-68"/>
      <use xlink:href="#DejaVuSans-69" x="63.378906"/>
      <use xlink:href="#DejaVuSans-67" x="91.162109"/>
      <use xlink:href="#DejaVuSans-68" x="154.638672"/>
      <use xlink:href="#DejaVuSans-43" x="218.017578"/>
      <use xlink:href="#DejaVuSans-68" x="287.841797"/>
      <use xlink:href="#DejaVuSans-6c" x="351.220703"/>
     </g>
    </g>
    <g id="line2d_15">
     <path d="M 72 419.302188 
L 82 419.302188 
L 92 419.302188 
" style="fill: none; stroke: #0000ff; stroke-width: 1.5; stroke-linecap: square"/>
    </g>
    <g id="text_17">
     <!-- lowChl -->
     <g transform="translate(100 422.802188)scale(0.1 -0.1)">
      <use xlink:href="#DejaVuSans-6c"/>
      <use xlink:href="#DejaVuSans-6f" x="27.783203"/>
      <use xlink:href="#DejaVuSans-77" x="88.964844"/>
      <use xlink:href="#DejaVuSans-43" x="170.751953"/>
      <use xlink:href="#DejaVuSans-68" x="240.576172"/>
      <use xlink:href="#DejaVuSans-6c" x="303.955078"/>
     </g>
    </g>
    <g id="line2d_16">
     <path d="M 72 433.980313 
L 82 433.980313 
L 92 433.980313 
" style="fill: none; stroke: #ff0000; stroke-width: 1.5; stroke-linecap: square"/>
    </g>
    <g id="text_18">
     <!-- highChl -->
     <g transform="translate(100 437.480313)scale(0.1 -0.1)">
      <use xlink:href="#DejaVuSans-68"/>
      <use xlink:href="#DejaVuSans-69" x="63.378906"/>
      <use xlink:href="#DejaVuSans-67" x="91.162109"/>
      <use xlink:href="#DejaVuSans-68" x="154.638672"/>
      <use xlink:href="#DejaVuSans-43" x="218.017578"/>
      <use xlink:href="#DejaVuSans-68" x="287.841797"/>
      <use xlink:href="#DejaVuSans-6c" x="351.220703"/>
     </g>
    </g>
   </g>
  </g>
 </g>
 <defs>
  <clipPath id="p8c50065bf0">
   <rect x="63" y="60.48" width="390.6" height="388.08"/>
  </clipPath>
 </defs>
</svg>
