<?xml version="1.0" encoding="utf-8" standalone="no"?>
<!DOCTYPE svg PUBLIC "-//W3C//DTD SVG 1.1//EN"
  "http://www.w3.org/Graphics/SVG/1.1/DTD/svg11.dtd">
<svg xmlns:xlink="http://www.w3.org/1999/xlink" width="504pt" height="504pt" viewBox="0 0 504 504" xmlns="http://www.w3.org/2000/svg" version="1.1">
 <metadata>
  <rdf:RDF xmlns:dc="http://purl.org/dc/elements/1.1/" xmlns:cc="http://creativecommons.org/ns#" xmlns:rdf="http://www.w3.org/1999/02/22-rdf-syntax-ns#">
   <cc:Work>
    <dc:type rdf:resource="http://purl.org/dc/dcmitype/StillImage"/>
    <dc:date>2025-03-15T13:21:37.039626</dc:date>
    <dc:format>image/svg+xml</dc:format>
    <dc:creator>
     <cc:Agent>
      <dc:title>Matplotlib v3.5.2, https://matplotlib.org/</dc:title>
     </cc:Agent>
    </dc:creator>
   </cc:Work>
  </rdf:RDF>
 </metadata>
 <defs>
  <style type="text/css">*{stroke-linejoin: round; stroke-linecap: butt}</style>
 </defs>
 <g id="figure_1">
  <g id="patch_1">
   <path d="M 0 504 
L 504 504 
L 504 0 
L 0 0 
z
" style="fill: #ffffff"/>
  </g>
  <g id="axes_1">
   <g id="patch_2">
    <path d="M 63 448.56 
L 453.6 448.56 
L 453.6 60.48 
L 63 60.48 
z
" style="fill: #ffffff"/>
   </g>
   <g id="PathCollection_1">
    <path d="M 80.754545 93.32 
C 80.887147 93.32 81.014335 93.267317 81.108099 93.173553 
C 81.201862 93.07979 81.254545 92.952602 81.254545 92.82 
C 81.254545 92.687398 81.201862 92.56021 81.108099 92.466447 
C 81.014335 92.372683 80.887147 92.32 80.754545 92.32 
C 80.621944 92.32 80.494756 92.372683 80.400992 92.466447 
C 80.307229 92.56021 80.254545 92.687398 80.254545 92.82 
C 80.254545 92.952602 80.307229 93.07979 80.400992 93.173553 
C 80.494756 93.267317 80.621944 93.32 80.754545 93.32 
z
" clip-path="url(#p22ec13e924)" style="fill: #1f77b4; stroke: #1f77b4"/>
    <path d="M 107.057576 93.32 
C 107.190177 93.32 107.317366 93.267317 107.411129 93.173553 
C 107.504893 93.07979 107.557576 92.952602 107.557576 92.82 
C 107.557576 92.687398 107.504893 92.56021 107.411129 92.466447 
C 107.317366 92.372683 107.190177 92.32 107.057576 92.32 
C 106.924974 92.32 106.797786 92.372683 106.704022 92.466447 
C 106.610259 92.56021 106.557576 92.687398 106.557576 92.82 
C 106.557576 92.952602 106.610259 93.07979 106.704022 93.173553 
C 106.797786 93.267317 106.924974 93.32 107.057576 93.32 
z
" clip-path="url(#p22ec13e924)" style="fill: #1f77b4; stroke: #1f77b4"/>
    <path d="M 120.209091 93.527107 
C 120.396618 93.527107 120.576489 93.452602 120.709091 93.32 
C 120.841692 93.187398 120.916198 93.007527 120.916198 92.82 
C 120.916198 92.632473 120.841692 92.452602 120.709091 92.32 
C 120.576489 92.187398 120.396618 92.112893 120.209091 92.112893 
C 120.021564 92.112893 119.841692 92.187398 119.709091 92.32 
C 119.576489 92.452602 119.501984 92.632473 119.501984 92.82 
C 119.501984 93.007527 119.576489 93.187398 119.709091 93.32 
C 119.841692 93.452602 120.021564 93.527107 120.209091 93.527107 
z
" clip-path="url(#p22ec13e924)" style="fill: #1f77b4; stroke: #1f77b4"/>
    <path d="M 133.360606 93.686025 
C 133.590279 93.686025 133.810575 93.594776 133.972978 93.432372 
C 134.135382 93.269969 134.226631 93.049673 134.226631 92.82 
C 134.226631 92.590327 134.135382 92.370031 133.972978 92.207628 
C 133.810575 92.045224 133.590279 91.953975 133.360606 91.953975 
C 133.130933 91.953975 132.910637 92.045224 132.748234 92.207628 
C 132.585831 92.370031 132.494581 92.590327 132.494581 92.82 
C 132.494581 93.049673 132.585831 93.269969 132.748234 93.432372 
C 132.910637 93.594776 133.130933 93.686025 133.360606 93.686025 
z
" clip-path="url(#p22ec13e924)" style="fill: #1f77b4; stroke: #1f77b4"/>
    <path d="M 146.512121 273.986667 
C 146.909926 273.986667 147.291491 273.828617 147.572781 273.547327 
C 147.854072 273.266036 148.012121 272.884471 148.012121 272.486667 
C 148.012121 272.088862 147.854072 271.707297 147.572781 271.426006 
C 147.291491 271.144716 146.909926 270.986667 146.512121 270.986667 
C 146.114317 270.986667 145.732751 271.144716 145.451461 271.426006 
C 145.170171 271.707297 145.012121 272.088862 145.012121 272.486667 
C 145.012121 272.884471 145.170171 273.266036 145.451461 273.547327 
C 145.732751 273.828617 146.114317 273.986667 146.512121 273.986667 
z
" clip-path="url(#p22ec13e924)" style="fill: #1f77b4; stroke: #1f77b4"/>
    <path d="M 159.663636 218.311288 
C 160.271293 218.311288 160.854143 218.069863 161.283822 217.640185 
C 161.7135 217.210507 161.954924 216.627657 161.954924 216.02 
C 161.954924 215.412343 161.7135 214.829493 161.283822 214.399815 
C 160.854143 213.970137 160.271293 213.728712 159.663636 213.728712 
C 159.05598 213.728712 158.473129 213.970137 158.043451 214.399815 
C 157.613773 214.829493 157.372349 215.412343 157.372349 216.02 
C 157.372349 216.627657 157.613773 217.210507 158.043451 217.640185 
C 158.473129 218.069863 159.05598 218.311288 159.663636 218.311288 
z
" clip-path="url(#p22ec13e924)" style="fill: #1f77b4; stroke: #1f77b4"/>
    <path d="M 172.815152 332.718613 
C 173.54144 332.718613 174.23808 332.430055 174.751643 331.916492 
C 175.265207 331.402928 175.553764 330.706289 175.553764 329.98 
C 175.553764 329.253711 175.265207 328.557072 174.751643 328.043508 
C 174.23808 327.529945 173.54144 327.241387 172.815152 327.241387 
C 172.088863 327.241387 171.392223 327.529945 170.87866 328.043508 
C 170.365096 328.557072 170.076539 329.253711 170.076539 329.98 
C 170.076539 330.706289 170.365096 331.402928 170.87866 331.916492 
C 171.392223 332.430055 172.088863 332.718613 172.815152 332.718613 
z
" clip-path="url(#p22ec13e924)" style="fill: #1f77b4; stroke: #1f77b4"/>
    <path d="M 185.966667 241.52 
C 186.894878 241.52 187.785196 241.151218 188.44154 240.494874 
C 189.097885 239.83853 189.466667 238.948211 189.466667 238.02 
C 189.466667 237.091789 189.097885 236.20147 188.44154 235.545126 
C 187.785196 234.888782 186.894878 234.52 185.966667 234.52 
C 185.038456 234.52 184.148137 234.888782 183.491793 235.545126 
C 182.835449 236.20147 182.466667 237.091789 182.466667 238.02 
C 182.466667 238.948211 182.835449 239.83853 183.491793 240.494874 
C 184.148137 241.151218 185.038456 241.52 185.966667 241.52 
z
" clip-path="url(#p22ec13e924)" style="fill: #1f77b4; stroke: #1f77b4"/>
    <path d="M 199.118182 273.942127 
C 200.266545 273.942127 201.368029 273.485878 202.180044 272.673862 
C 202.992059 271.861847 203.448309 270.760363 203.448309 269.612 
C 203.448309 268.463637 202.992059 267.362153 202.180044 266.550138 
C 201.368029 265.738122 200.266545 265.281873 199.118182 265.281873 
C 197.969819 265.281873 196.868335 265.738122 196.05632 266.550138 
C 195.244304 267.362153 194.788055 268.463637 194.788055 269.612 
C 194.788055 270.760363 195.244304 271.861847 196.05632 272.673862 
C 196.868335 273.485878 197.969819 273.942127 199.118182 273.942127 
z
" clip-path="url(#p22ec13e924)" style="fill: #1f77b4; stroke: #1f77b4"/>
    <path d="M 212.269697 285.81786 
C 213.798933 285.81786 215.265741 285.210288 216.347074 284.128956 
C 217.428406 283.047623 218.035978 281.580815 218.035978 280.051579 
C 218.035978 278.522343 217.428406 277.055535 216.347074 275.974202 
C 215.265741 274.892869 213.798933 274.285298 212.269697 274.285298 
C 210.740461 274.285298 209.273653 274.892869 208.19232 275.974202 
C 207.110987 277.055535 206.503416 278.522343 206.503416 280.051579 
C 206.503416 281.580815 207.110987 283.047623 208.19232 284.128956 
C 209.273653 285.210288 210.740461 285.81786 212.269697 285.81786 
z
" clip-path="url(#p22ec13e924)" style="fill: #1f77b4; stroke: #1f77b4"/>
    <path d="M 225.421212 273.431139 
C 227.329016 273.431139 229.158938 272.67316 230.50796 271.324139 
C 231.856981 269.975118 232.614959 268.145195 232.614959 266.237391 
C 232.614959 264.329587 231.856981 262.499665 230.50796 261.150644 
C 229.158938 259.801623 227.329016 259.043644 225.421212 259.043644 
C 223.513408 259.043644 221.683486 259.801623 220.334465 261.150644 
C 218.985443 262.499665 218.227465 264.329587 218.227465 266.237391 
C 218.227465 268.145195 218.985443 269.975118 220.334465 271.324139 
C 221.683486 272.67316 223.513408 273.431139 225.421212 273.431139 
z
" clip-path="url(#p22ec13e924)" style="fill: #1f77b4; stroke: #1f77b4"/>
    <path d="M 238.572727 315.644366 
C 240.609791 315.644366 242.563696 314.835032 244.004118 313.394611 
C 245.444539 311.954189 246.253873 310.000284 246.253873 307.96322 
C 246.253873 305.926157 245.444539 303.972252 244.004118 302.53183 
C 242.563696 301.091409 240.609791 300.282075 238.572727 300.282075 
C 236.535664 300.282075 234.581759 301.091409 233.141337 302.53183 
C 231.700915 303.972252 230.891582 305.926157 230.891582 307.96322 
C 230.891582 310.000284 231.700915 311.954189 233.141337 313.394611 
C 234.581759 314.835032 236.535664 315.644366 238.572727 315.644366 
z
" clip-path="url(#p22ec13e924)" style="fill: #1f77b4; stroke: #1f77b4"/>
    <path d="M 251.724242 306.158788 
C 254.257591 306.158788 256.687522 305.152278 258.47887 303.360929 
C 260.270219 301.569581 261.276729 299.13965 261.276729 296.606301 
C 261.276729 294.072952 260.270219 291.643022 258.47887 289.851673 
C 256.687522 288.060325 254.257591 287.053815 251.724242 287.053815 
C 249.190893 287.053815 246.760963 288.060325 244.969614 289.851673 
C 243.178266 291.643022 242.171756 294.072952 242.171756 296.606301 
C 242.171756 299.13965 243.178266 301.569581 244.969614 303.360929 
C 246.760963 305.152278 249.190893 306.158788 251.724242 306.158788 
z
" clip-path="url(#p22ec13e924)" style="fill: #1f77b4; stroke: #1f77b4"/>
    <path d="M 264.875758 307.820941 
C 267.609409 307.820941 270.231464 306.734849 272.164447 304.801866 
C 274.097431 302.868883 275.183522 300.246827 275.183522 297.513176 
C 275.183522 294.779525 274.097431 292.15747 272.164447 290.224487 
C 270.231464 288.291503 267.609409 287.205412 264.875758 287.205412 
C 262.142107 287.205412 259.520051 288.291503 257.587068 290.224487 
C 255.654085 292.15747 254.567994 294.779525 254.567994 297.513176 
C 254.567994 300.246827 255.654085 302.868883 257.587068 304.801866 
C 259.520051 306.734849 262.142107 307.820941 264.875758 307.820941 
z
" clip-path="url(#p22ec13e924)" style="fill: #1f77b4; stroke: #1f77b4"/>
    <path d="M 278.027273 318.227275 
C 280.821361 318.227275 283.501386 317.117172 285.477105 315.141454 
C 287.452824 313.165735 288.562926 310.48571 288.562926 307.691622 
C 288.562926 304.897534 287.452824 302.217508 285.477105 300.241789 
C 283.501386 298.266071 280.821361 297.155968 278.027273 297.155968 
C 275.233185 297.155968 272.553159 298.266071 270.577441 300.241789 
C 268.601722 302.217508 267.491619 304.897534 267.491619 307.691622 
C 267.491619 310.48571 268.601722 313.165735 270.577441 315.141454 
C 272.553159 317.117172 275.233185 318.227275 278.027273 318.227275 
z
" clip-path="url(#p22ec13e924)" style="fill: #1f77b4; stroke: #1f77b4"/>
    <path d="M 291.178788 299.917946 
C 293.820855 299.917946 296.355066 298.868241 298.223289 297.000018 
C 300.091513 295.131794 301.141217 292.597584 301.141217 289.955516 
C 301.141217 287.313449 300.091513 284.779239 298.223289 282.911015 
C 296.355066 281.042791 293.820855 279.993087 291.178788 279.993087 
C 288.536721 279.993087 286.00251 281.042791 284.134286 282.911015 
C 282.266063 284.779239 281.216358 287.313449 281.216358 289.955516 
C 281.216358 292.597584 282.266063 295.131794 284.134286 297.000018 
C 286.00251 298.868241 288.536721 299.917946 291.178788 299.917946 
z
" clip-path="url(#p22ec13e924)" style="fill: #1f77b4; stroke: #1f77b4"/>
    <path d="M 304.330303 294.170177 
C 306.615517 294.170177 308.807442 293.262252 310.423332 291.646362 
C 312.039222 290.030472 312.947147 287.838547 312.947147 285.553333 
C 312.947147 283.26812 312.039222 281.076195 310.423332 279.460305 
C 308.807442 277.844414 306.615517 276.936489 304.330303 276.936489 
C 302.045089 276.936489 299.853164 277.844414 298.237274 279.460305 
C 296.621384 281.076195 295.713459 283.26812 295.713459 285.553333 
C 295.713459 287.838547 296.621384 290.030472 298.237274 291.646362 
C 299.853164 293.262252 302.045089 294.170177 304.330303 294.170177 
z
" clip-path="url(#p22ec13e924)" style="fill: #1f77b4; stroke: #1f77b4"/>
    <path d="M 317.481818 289.809555 
C 319.510232 289.809555 321.45584 289.003658 322.890145 287.569353 
C 324.32445 286.135047 325.130347 284.189439 325.130347 282.161026 
C 325.130347 280.132612 324.32445 278.187004 322.890145 276.752699 
C 321.45584 275.318394 319.510232 274.512496 317.481818 274.512496 
C 315.453405 274.512496 313.507796 275.318394 312.073491 276.752699 
C 310.639186 278.187004 309.833289 280.132612 309.833289 282.161026 
C 309.833289 284.189439 310.639186 286.135047 312.073491 287.569353 
C 313.507796 289.003658 315.453405 289.809555 317.481818 289.809555 
z
" clip-path="url(#p22ec13e924)" style="fill: #1f77b4; stroke: #1f77b4"/>
    <path d="M 330.633333 295.139724 
C 332.257364 295.139724 333.815097 294.49449 334.96346 293.346127 
C 336.111823 292.197764 336.757058 290.640031 336.757058 289.016 
C 336.757058 287.391969 336.111823 285.834236 334.96346 284.685873 
C 333.815097 283.53751 332.257364 282.892276 330.633333 282.892276 
C 329.009303 282.892276 327.451569 283.53751 326.303206 284.685873 
C 325.154843 285.834236 324.509609 287.391969 324.509609 289.016 
C 324.509609 290.640031 325.154843 292.197764 326.303206 293.346127 
C 327.451569 294.49449 329.009303 295.139724 330.633333 295.139724 
z
" clip-path="url(#p22ec13e924)" style="fill: #1f77b4; stroke: #1f77b4"/>
    <path d="M 343.784848 318.948497 
C 344.870239 318.948497 345.911321 318.517267 346.678808 317.74978 
C 347.446295 316.982293 347.877525 315.941211 347.877525 314.855821 
C 347.877525 313.77043 347.446295 312.729349 346.678808 311.961862 
C 345.911321 311.194375 344.870239 310.763145 343.784848 310.763145 
C 342.699458 310.763145 341.658376 311.194375 340.890889 311.961862 
C 340.123402 312.729349 339.692172 313.77043 339.692172 314.855821 
C 339.692172 315.941211 340.123402 316.982293 340.890889 317.74978 
C 341.658376 318.517267 342.699458 318.948497 343.784848 318.948497 
z
" clip-path="url(#p22ec13e924)" style="fill: #1f77b4; stroke: #1f77b4"/>
    <path d="M 356.936364 276.160901 
C 357.910782 276.160901 358.845422 275.773761 359.53444 275.084743 
C 360.223458 274.395725 360.610598 273.461085 360.610598 272.486667 
C 360.610598 271.512248 360.223458 270.577608 359.53444 269.88859 
C 358.845422 269.199573 357.910782 268.812432 356.936364 268.812432 
C 355.961945 268.812432 355.027305 269.199573 354.338287 269.88859 
C 353.64927 270.577608 353.262129 271.512248 353.262129 272.486667 
C 353.262129 273.461085 353.64927 274.395725 354.338287 275.084743 
C 355.027305 275.773761 355.961945 276.160901 356.936364 276.160901 
z
" clip-path="url(#p22ec13e924)" style="fill: #1f77b4; stroke: #1f77b4"/>
    <path d="M 370.087879 272.092281 
C 370.849617 272.092281 371.580258 271.78964 372.118888 271.25101 
C 372.657518 270.71238 372.96016 269.981738 372.96016 269.22 
C 372.96016 268.458262 372.657518 267.72762 372.118888 267.18899 
C 371.580258 266.65036 370.849617 266.347719 370.087879 266.347719 
C 369.326141 266.347719 368.595499 266.65036 368.056869 267.18899 
C 367.518239 267.72762 367.215597 268.458262 367.215597 269.22 
C 367.215597 269.981738 367.518239 270.71238 368.056869 271.25101 
C 368.595499 271.78964 369.326141 272.092281 370.087879 272.092281 
z
" clip-path="url(#p22ec13e924)" style="fill: #1f77b4; stroke: #1f77b4"/>
    <path d="M 383.239394 280.265751 
C 383.941055 280.265751 384.614073 279.986978 385.110223 279.490829 
C 385.606372 278.994679 385.885145 278.321661 385.885145 277.62 
C 385.885145 276.918339 385.606372 276.245321 385.110223 275.749171 
C 384.614073 275.253022 383.941055 274.974249 383.239394 274.974249 
C 382.537732 274.974249 381.864715 275.253022 381.368565 275.749171 
C 380.872416 276.245321 380.593643 276.918339 380.593643 277.62 
C 380.593643 278.321661 380.872416 278.994679 381.368565 279.490829 
C 381.864715 279.986978 382.537732 280.265751 383.239394 280.265751 
z
" clip-path="url(#p22ec13e924)" style="fill: #1f77b4; stroke: #1f77b4"/>
    <path d="M 396.390909 158.618034 
C 396.687415 158.618034 396.971817 158.500231 397.181479 158.290569 
C 397.39114 158.080908 397.508943 157.796506 397.508943 157.5 
C 397.508943 157.203494 397.39114 156.919092 397.181479 156.709431 
C 396.971817 156.499769 396.687415 156.381966 396.390909 156.381966 
C 396.094403 156.381966 395.810001 156.499769 395.60034 156.709431 
C 395.390678 156.919092 395.272875 157.203494 395.272875 157.5 
C 395.272875 157.796506 395.390678 158.080908 395.60034 158.290569 
C 395.810001 158.500231 396.094403 158.618034 396.390909 158.618034 
z
" clip-path="url(#p22ec13e924)" style="fill: #1f77b4; stroke: #1f77b4"/>
    <path d="M 409.542424 336.37 
C 409.807627 336.37 410.062004 336.264634 410.249531 336.077107 
C 410.437058 335.88958 410.542424 335.635203 410.542424 335.37 
C 410.542424 335.104797 410.437058 334.85042 410.249531 334.662893 
C 410.062004 334.475366 409.807627 334.37 409.542424 334.37 
C 409.277221 334.37 409.022844 334.475366 408.835317 334.662893 
C 408.647791 334.85042 408.542424 335.104797 408.542424 335.37 
C 408.542424 335.635203 408.647791 335.88958 408.835317 336.077107 
C 409.022844 336.264634 409.277221 336.37 409.542424 336.37 
z
" clip-path="url(#p22ec13e924)" style="fill: #1f77b4; stroke: #1f77b4"/>
    <path d="M 422.693939 93.82 
C 422.959142 93.82 423.213519 93.714634 423.401046 93.527107 
C 423.588573 93.33958 423.693939 93.085203 423.693939 92.82 
C 423.693939 92.554797 423.588573 92.30042 423.401046 92.112893 
C 423.213519 91.925366 422.959142 91.82 422.693939 91.82 
C 422.428736 91.82 422.17436 91.925366 421.986833 92.112893 
C 421.799306 92.30042 421.693939 92.554797 421.693939 92.82 
C 421.693939 93.085203 421.799306 93.33958 421.986833 93.527107 
C 422.17436 93.714634 422.428736 93.82 422.693939 93.82 
z
" clip-path="url(#p22ec13e924)" style="fill: #1f77b4; stroke: #1f77b4"/>
    <path d="M 435.845455 93.527107 
C 436.032981 93.527107 436.212853 93.452602 436.345455 93.32 
C 436.478056 93.187398 436.552561 93.007527 436.552561 92.82 
C 436.552561 92.632473 436.478056 92.452602 436.345455 92.32 
C 436.212853 92.187398 436.032981 92.112893 435.845455 92.112893 
C 435.657928 92.112893 435.478056 92.187398 435.345455 92.32 
C 435.212853 92.452602 435.138348 92.632473 435.138348 92.82 
C 435.138348 93.007527 435.212853 93.187398 435.345455 93.32 
C 435.478056 93.452602 435.657928 93.527107 435.845455 93.527107 
z
" clip-path="url(#p22ec13e924)" style="fill: #1f77b4; stroke: #1f77b4"/>
   </g>
   <g id="matplotlib.axis_1">
    <g id="xtick_1">
     <g id="line2d_1">
      <defs>
       <path id="m8d17ed08a1" d="M 0 0 
L 0 3.5 
" style="stroke: #000000; stroke-width: 0.8"/>
      </defs>
      <g>
       <use xlink:href="#m8d17ed08a1" x="80.754545" y="448.56" style="stroke: #000000; stroke-width: 0.8"/>
      </g>
     </g>
     <g id="text_1">
      <!-- 50 -->
      <g transform="translate(74.392045 463.158437)scale(0.1 -0.1)">
       <defs>
        <path id="DejaVuSans-35" d="M 691 4666 
L 3169 4666 
L 3169 4134 
L 1269 4134 
L 1269 2991 
Q 1406 3038 1543 3061 
Q 1681 3084 1819 3084 
Q 2600 3084 3056 2656 
Q 3513 2228 3513 1497 
Q 3513 744 3044 326 
Q 2575 -91 1722 -91 
Q 1428 -91 1123 -41 
Q 819 9 494 109 
L 494 744 
Q 775 591 1075 516 
Q 1375 441 1709 441 
Q 2250 441 2565 725 
Q 2881 1009 2881 1497 
Q 2881 1984 2565 2268 
Q 2250 2553 1709 2553 
Q 1456 2553 1204 2497 
Q 953 2441 691 2322 
L 691 4666 
z
" transform="scale(0.015625)"/>
        <path id="DejaVuSans-30" d="M 2034 4250 
Q 1547 4250 1301 3770 
Q 1056 3291 1056 2328 
Q 1056 1369 1301 889 
Q 1547 409 2034 409 
Q 2525 409 2770 889 
Q 3016 1369 3016 2328 
Q 3016 3291 2770 3770 
Q 2525 4250 2034 4250 
z
M 2034 4750 
Q 2819 4750 3233 4129 
Q 3647 3509 3647 2328 
Q 3647 1150 3233 529 
Q 2819 -91 2034 -91 
Q 1250 -91 836 529 
Q 422 1150 422 2328 
Q 422 3509 836 4129 
Q 1250 4750 2034 4750 
z
" transform="scale(0.015625)"/>
       </defs>
       <use xlink:href="#DejaVuSans-35"/>
       <use xlink:href="#DejaVuSans-30" x="63.623047"/>
      </g>
     </g>
    </g>
    <g id="xtick_2">
     <g id="line2d_2">
      <g>
       <use xlink:href="#m8d17ed08a1" x="146.512121" y="448.56" style="stroke: #000000; stroke-width: 0.8"/>
      </g>
     </g>
     <g id="text_2">
      <!-- 100 -->
      <g transform="translate(136.968371 463.158437)scale(0.1 -0.1)">
       <defs>
        <path id="DejaVuSans-31" d="M 794 531 
L 1825 531 
L 1825 4091 
L 703 3866 
L 703 4441 
L 1819 4666 
L 2450 4666 
L 2450 531 
L 3481 531 
L 3481 0 
L 794 0 
L 794 531 
z
" transform="scale(0.015625)"/>
       </defs>
       <use xlink:href="#DejaVuSans-31"/>
       <use xlink:href="#DejaVuSans-30" x="63.623047"/>
       <use xlink:href="#DejaVuSans-30" x="127.246094"/>
      </g>
     </g>
    </g>
    <g id="xtick_3">
     <g id="line2d_3">
      <g>
       <use xlink:href="#m8d17ed08a1" x="212.269697" y="448.56" style="stroke: #000000; stroke-width: 0.8"/>
      </g>
     </g>
     <g id="text_3">
      <!-- 150 -->
      <g transform="translate(202.725947 463.158437)scale(0.1 -0.1)">
       <use xlink:href="#DejaVuSans-31"/>
       <use xlink:href="#DejaVuSans-35" x="63.623047"/>
       <use xlink:href="#DejaVuSans-30" x="127.246094"/>
      </g>
     </g>
    </g>
    <g id="xtick_4">
     <g id="line2d_4">
      <g>
       <use xlink:href="#m8d17ed08a1" x="278.027273" y="448.56" style="stroke: #000000; stroke-width: 0.8"/>
      </g>
     </g>
     <g id="text_4">
      <!-- 200 -->
      <g transform="translate(268.483523 463.158437)scale(0.1 -0.1)">
       <defs>
        <path id="DejaVuSans-32" d="M 1228 531 
L 3431 531 
L 3431 0 
L 469 0 
L 469 531 
Q 828 903 1448 1529 
Q 2069 2156 2228 2338 
Q 2531 2678 2651 2914 
Q 2772 3150 2772 3378 
Q 2772 3750 2511 3984 
Q 2250 4219 1831 4219 
Q 1534 4219 1204 4116 
Q 875 4013 500 3803 
L 500 4441 
Q 881 4594 1212 4672 
Q 1544 4750 1819 4750 
Q 2544 4750 2975 4387 
Q 3406 4025 3406 3419 
Q 3406 3131 3298 2873 
Q 3191 2616 2906 2266 
Q 2828 2175 2409 1742 
Q 1991 1309 1228 531 
z
" transform="scale(0.015625)"/>
       </defs>
       <use xlink:href="#DejaVuSans-32"/>
       <use xlink:href="#DejaVuSans-30" x="63.623047"/>
       <use xlink:href="#DejaVuSans-30" x="127.246094"/>
      </g>
     </g>
    </g>
    <g id="xtick_5">
     <g id="line2d_5">
      <g>
       <use xlink:href="#m8d17ed08a1" x="343.784848" y="448.56" style="stroke: #000000; stroke-width: 0.8"/>
      </g>
     </g>
     <g id="text_5">
      <!-- 250 -->
      <g transform="translate(334.241098 463.158437)scale(0.1 -0.1)">
       <use xlink:href="#DejaVuSans-32"/>
       <use xlink:href="#DejaVuSans-35" x="63.623047"/>
       <use xlink:href="#DejaVuSans-30" x="127.246094"/>
      </g>
     </g>
    </g>
    <g id="xtick_6">
     <g id="line2d_6">
      <g>
       <use xlink:href="#m8d17ed08a1" x="409.542424" y="448.56" style="stroke: #000000; stroke-width: 0.8"/>
      </g>
     </g>
     <g id="text_6">
      <!-- 300 -->
      <g transform="translate(399.998674 463.158437)scale(0.1 -0.1)">
       <defs>
        <path id="DejaVuSans-33" d="M 2597 2516 
Q 3050 2419 3304 2112 
Q 3559 1806 3559 1356 
Q 3559 666 3084 287 
Q 2609 -91 1734 -91 
Q 1441 -91 1130 -33 
Q 819 25 488 141 
L 488 750 
Q 750 597 1062 519 
Q 1375 441 1716 441 
Q 2309 441 2620 675 
Q 2931 909 2931 1356 
Q 2931 1769 2642 2001 
Q 2353 2234 1838 2234 
L 1294 2234 
L 1294 2753 
L 1863 2753 
Q 2328 2753 2575 2939 
Q 2822 3125 2822 3475 
Q 2822 3834 2567 4026 
Q 2313 4219 1838 4219 
Q 1578 4219 1281 4162 
Q 984 4106 628 3988 
L 628 4550 
Q 988 4650 1302 4700 
Q 1616 4750 1894 4750 
Q 2613 4750 3031 4423 
Q 3450 4097 3450 3541 
Q 3450 3153 3228 2886 
Q 3006 2619 2597 2516 
z
" transform="scale(0.015625)"/>
       </defs>
       <use xlink:href="#DejaVuSans-33"/>
       <use xlink:href="#DejaVuSans-30" x="63.623047"/>
       <use xlink:href="#DejaVuSans-30" x="127.246094"/>
      </g>
     </g>
    </g>
    <g id="text_7">
     <!-- Hardness -->
     <g transform="translate(234.878906 476.836563)scale(0.1 -0.1)">
      <defs>
       <path id="DejaVuSans-48" d="M 628 4666 
L 1259 4666 
L 1259 2753 
L 3553 2753 
L 3553 4666 
L 4184 4666 
L 4184 0 
L 3553 0 
L 3553 2222 
L 1259 2222 
L 1259 0 
L 628 0 
L 628 4666 
z
" transform="scale(0.015625)"/>
       <path id="DejaVuSans-61" d="M 2194 1759 
Q 1497 1759 1228 1600 
Q 959 1441 959 1056 
Q 959 750 1161 570 
Q 1363 391 1709 391 
Q 2188 391 2477 730 
Q 2766 1069 2766 1631 
L 2766 1759 
L 2194 1759 
z
M 3341 1997 
L 3341 0 
L 2766 0 
L 2766 531 
Q 2569 213 2275 61 
Q 1981 -91 1556 -91 
Q 1019 -91 701 211 
Q 384 513 384 1019 
Q 384 1609 779 1909 
Q 1175 2209 1959 2209 
L 2766 2209 
L 2766 2266 
Q 2766 2663 2505 2880 
Q 2244 3097 1772 3097 
Q 1472 3097 1187 3025 
Q 903 2953 641 2809 
L 641 3341 
Q 956 3463 1253 3523 
Q 1550 3584 1831 3584 
Q 2591 3584 2966 3190 
Q 3341 2797 3341 1997 
z
" transform="scale(0.015625)"/>
       <path id="DejaVuSans-72" d="M 2631 2963 
Q 2534 3019 2420 3045 
Q 2306 3072 2169 3072 
Q 1681 3072 1420 2755 
Q 1159 2438 1159 1844 
L 1159 0 
L 581 0 
L 581 3500 
L 1159 3500 
L 1159 2956 
Q 1341 3275 1631 3429 
Q 1922 3584 2338 3584 
Q 2397 3584 2469 3576 
Q 2541 3569 2628 3553 
L 2631 2963 
z
" transform="scale(0.015625)"/>
       <path id="DejaVuSans-64" d="M 2906 2969 
L 2906 4863 
L 3481 4863 
L 3481 0 
L 2906 0 
L 2906 525 
Q 2725 213 2448 61 
Q 2172 -91 1784 -91 
Q 1150 -91 751 415 
Q 353 922 353 1747 
Q 353 2572 751 3078 
Q 1150 3584 1784 3584 
Q 2172 3584 2448 3432 
Q 2725 3281 2906 2969 
z
M 947 1747 
Q 947 1113 1208 752 
Q 1469 391 1925 391 
Q 2381 391 2643 752 
Q 2906 1113 2906 1747 
Q 2906 2381 2643 2742 
Q 2381 3103 1925 3103 
Q 1469 3103 1208 2742 
Q 947 2381 947 1747 
z
" transform="scale(0.015625)"/>
       <path id="DejaVuSans-6e" d="M 3513 2113 
L 3513 0 
L 2938 0 
L 2938 2094 
Q 2938 2591 2744 2837 
Q 2550 3084 2163 3084 
Q 1697 3084 1428 2787 
Q 1159 2491 1159 1978 
L 1159 0 
L 581 0 
L 581 3500 
L 1159 3500 
L 1159 2956 
Q 1366 3272 1645 3428 
Q 1925 3584 2291 3584 
Q 2894 3584 3203 3211 
Q 3513 2838 3513 2113 
z
" transform="scale(0.015625)"/>
       <path id="DejaVuSans-65" d="M 3597 1894 
L 3597 1613 
L 953 1613 
Q 991 1019 1311 708 
Q 1631 397 2203 397 
Q 2534 397 2845 478 
Q 3156 559 3463 722 
L 3463 178 
Q 3153 47 2828 -22 
Q 2503 -91 2169 -91 
Q 1331 -91 842 396 
Q 353 884 353 1716 
Q 353 2575 817 3079 
Q 1281 3584 2069 3584 
Q 2775 3584 3186 3129 
Q 3597 2675 3597 1894 
z
M 3022 2063 
Q 3016 2534 2758 2815 
Q 2500 3097 2075 3097 
Q 1594 3097 1305 2825 
Q 1016 2553 972 2059 
L 3022 2063 
z
" transform="scale(0.015625)"/>
       <path id="DejaVuSans-73" d="M 2834 3397 
L 2834 2853 
Q 2591 2978 2328 3040 
Q 2066 3103 1784 3103 
Q 1356 3103 1142 2972 
Q 928 2841 928 2578 
Q 928 2378 1081 2264 
Q 1234 2150 1697 2047 
L 1894 2003 
Q 2506 1872 2764 1633 
Q 3022 1394 3022 966 
Q 3022 478 2636 193 
Q 2250 -91 1575 -91 
Q 1294 -91 989 -36 
Q 684 19 347 128 
L 347 722 
Q 666 556 975 473 
Q 1284 391 1588 391 
Q 1994 391 2212 530 
Q 2431 669 2431 922 
Q 2431 1156 2273 1281 
Q 2116 1406 1581 1522 
L 1381 1569 
Q 847 1681 609 1914 
Q 372 2147 372 2553 
Q 372 3047 722 3315 
Q 1072 3584 1716 3584 
Q 2034 3584 2315 3537 
Q 2597 3491 2834 3397 
z
" transform="scale(0.015625)"/>
      </defs>
      <use xlink:href="#DejaVuSans-48"/>
      <use xlink:href="#DejaVuSans-61" x="75.195312"/>
      <use xlink:href="#DejaVuSans-72" x="136.474609"/>
      <use xlink:href="#DejaVuSans-64" x="175.837891"/>
      <use xlink:href="#DejaVuSans-6e" x="239.314453"/>
      <use xlink:href="#DejaVuSans-65" x="302.693359"/>
      <use xlink:href="#DejaVuSans-73" x="364.216797"/>
      <use xlink:href="#DejaVuSans-73" x="416.316406"/>
     </g>
    </g>
   </g>
   <g id="matplotlib.axis_2">
    <g id="ytick_1">
     <g id="line2d_7">
      <defs>
       <path id="m87a9c9c0e1" d="M 0 0 
L -3.5 0 
" style="stroke: #000000; stroke-width: 0.8"/>
      </defs>
      <g>
       <use xlink:href="#m87a9c9c0e1" x="63" y="416.22" style="stroke: #000000; stroke-width: 0.8"/>
      </g>
     </g>
     <g id="text_8">
      <!-- 0.0 -->
      <g transform="translate(40.096875 420.019219)scale(0.1 -0.1)">
       <defs>
        <path id="DejaVuSans-2e" d="M 684 794 
L 1344 794 
L 1344 0 
L 684 0 
L 684 794 
z
" transform="scale(0.015625)"/>
       </defs>
       <use xlink:href="#DejaVuSans-30"/>
       <use xlink:href="#DejaVuSans-2e" x="63.623047"/>
       <use xlink:href="#DejaVuSans-30" x="95.410156"/>
      </g>
     </g>
    </g>
    <g id="ytick_2">
     <g id="line2d_8">
      <g>
       <use xlink:href="#m87a9c9c0e1" x="63" y="351.54" style="stroke: #000000; stroke-width: 0.8"/>
      </g>
     </g>
     <g id="text_9">
      <!-- 0.2 -->
      <g transform="translate(40.096875 355.339219)scale(0.1 -0.1)">
       <use xlink:href="#DejaVuSans-30"/>
       <use xlink:href="#DejaVuSans-2e" x="63.623047"/>
       <use xlink:href="#DejaVuSans-32" x="95.410156"/>
      </g>
     </g>
    </g>
    <g id="ytick_3">
     <g id="line2d_9">
      <g>
       <use xlink:href="#m87a9c9c0e1" x="63" y="286.86" style="stroke: #000000; stroke-width: 0.8"/>
      </g>
     </g>
     <g id="text_10">
      <!-- 0.4 -->
      <g transform="translate(40.096875 290.659219)scale(0.1 -0.1)">
       <defs>
        <path id="DejaVuSans-34" d="M 2419 4116 
L 825 1625 
L 2419 1625 
L 2419 4116 
z
M 2253 4666 
L 3047 4666 
L 3047 1625 
L 3713 1625 
L 3713 1100 
L 3047 1100 
L 3047 0 
L 2419 0 
L 2419 1100 
L 313 1100 
L 313 1709 
L 2253 4666 
z
" transform="scale(0.015625)"/>
       </defs>
       <use xlink:href="#DejaVuSans-30"/>
       <use xlink:href="#DejaVuSans-2e" x="63.623047"/>
       <use xlink:href="#DejaVuSans-34" x="95.410156"/>
      </g>
     </g>
    </g>
    <g id="ytick_4">
     <g id="line2d_10">
      <g>
       <use xlink:href="#m87a9c9c0e1" x="63" y="222.18" style="stroke: #000000; stroke-width: 0.8"/>
      </g>
     </g>
     <g id="text_11">
      <!-- 0.6 -->
      <g transform="translate(40.096875 225.979219)scale(0.1 -0.1)">
       <defs>
        <path id="DejaVuSans-36" d="M 2113 2584 
Q 1688 2584 1439 2293 
Q 1191 2003 1191 1497 
Q 1191 994 1439 701 
Q 1688 409 2113 409 
Q 2538 409 2786 701 
Q 3034 994 3034 1497 
Q 3034 2003 2786 2293 
Q 2538 2584 2113 2584 
z
M 3366 4563 
L 3366 3988 
Q 3128 4100 2886 4159 
Q 2644 4219 2406 4219 
Q 1781 4219 1451 3797 
Q 1122 3375 1075 2522 
Q 1259 2794 1537 2939 
Q 1816 3084 2150 3084 
Q 2853 3084 3261 2657 
Q 3669 2231 3669 1497 
Q 3669 778 3244 343 
Q 2819 -91 2113 -91 
Q 1303 -91 875 529 
Q 447 1150 447 2328 
Q 447 3434 972 4092 
Q 1497 4750 2381 4750 
Q 2619 4750 2861 4703 
Q 3103 4656 3366 4563 
z
" transform="scale(0.015625)"/>
       </defs>
       <use xlink:href="#DejaVuSans-30"/>
       <use xlink:href="#DejaVuSans-2e" x="63.623047"/>
       <use xlink:href="#DejaVuSans-36" x="95.410156"/>
      </g>
     </g>
    </g>
    <g id="ytick_5">
     <g id="line2d_11">
      <g>
       <use xlink:href="#m87a9c9c0e1" x="63" y="157.5" style="stroke: #000000; stroke-width: 0.8"/>
      </g>
     </g>
     <g id="text_12">
      <!-- 0.8 -->
      <g transform="translate(40.096875 161.299219)scale(0.1 -0.1)">
       <defs>
        <path id="DejaVuSans-38" d="M 2034 2216 
Q 1584 2216 1326 1975 
Q 1069 1734 1069 1313 
Q 1069 891 1326 650 
Q 1584 409 2034 409 
Q 2484 409 2743 651 
Q 3003 894 3003 1313 
Q 3003 1734 2745 1975 
Q 2488 2216 2034 2216 
z
M 1403 2484 
Q 997 2584 770 2862 
Q 544 3141 544 3541 
Q 544 4100 942 4425 
Q 1341 4750 2034 4750 
Q 2731 4750 3128 4425 
Q 3525 4100 3525 3541 
Q 3525 3141 3298 2862 
Q 3072 2584 2669 2484 
Q 3125 2378 3379 2068 
Q 3634 1759 3634 1313 
Q 3634 634 3220 271 
Q 2806 -91 2034 -91 
Q 1263 -91 848 271 
Q 434 634 434 1313 
Q 434 1759 690 2068 
Q 947 2378 1403 2484 
z
M 1172 3481 
Q 1172 3119 1398 2916 
Q 1625 2713 2034 2713 
Q 2441 2713 2670 2916 
Q 2900 3119 2900 3481 
Q 2900 3844 2670 4047 
Q 2441 4250 2034 4250 
Q 1625 4250 1398 4047 
Q 1172 3844 1172 3481 
z
" transform="scale(0.015625)"/>
       </defs>
       <use xlink:href="#DejaVuSans-30"/>
       <use xlink:href="#DejaVuSans-2e" x="63.623047"/>
       <use xlink:href="#DejaVuSans-38" x="95.410156"/>
      </g>
     </g>
    </g>
    <g id="ytick_6">
     <g id="line2d_12">
      <g>
       <use xlink:href="#m87a9c9c0e1" x="63" y="92.82" style="stroke: #000000; stroke-width: 0.8"/>
      </g>
     </g>
     <g id="text_13">
      <!-- 1.0 -->
      <g transform="translate(40.096875 96.619219)scale(0.1 -0.1)">
       <use xlink:href="#DejaVuSans-31"/>
       <use xlink:href="#DejaVuSans-2e" x="63.623047"/>
       <use xlink:href="#DejaVuSans-30" x="95.410156"/>
      </g>
     </g>
    </g>
    <g id="text_14">
     <!-- Proportion of Potable Water -->
     <g transform="translate(34.017187 323.241094)rotate(-90)scale(0.1 -0.1)">
      <defs>
       <path id="DejaVuSans-50" d="M 1259 4147 
L 1259 2394 
L 2053 2394 
Q 2494 2394 2734 2622 
Q 2975 2850 2975 3272 
Q 2975 3691 2734 3919 
Q 2494 4147 2053 4147 
L 1259 4147 
z
M 628 4666 
L 2053 4666 
Q 2838 4666 3239 4311 
Q 3641 3956 3641 3272 
Q 3641 2581 3239 2228 
Q 2838 1875 2053 1875 
L 1259 1875 
L 1259 0 
L 628 0 
L 628 4666 
z
" transform="scale(0.015625)"/>
       <path id="DejaVuSans-6f" d="M 1959 3097 
Q 1497 3097 1228 2736 
Q 959 2375 959 1747 
Q 959 1119 1226 758 
Q 1494 397 1959 397 
Q 2419 397 2687 759 
Q 2956 1122 2956 1747 
Q 2956 2369 2687 2733 
Q 2419 3097 1959 3097 
z
M 1959 3584 
Q 2709 3584 3137 3096 
Q 3566 2609 3566 1747 
Q 3566 888 3137 398 
Q 2709 -91 1959 -91 
Q 1206 -91 779 398 
Q 353 888 353 1747 
Q 353 2609 779 3096 
Q 1206 3584 1959 3584 
z
" transform="scale(0.015625)"/>
       <path id="DejaVuSans-70" d="M 1159 525 
L 1159 -1331 
L 581 -1331 
L 581 3500 
L 1159 3500 
L 1159 2969 
Q 1341 3281 1617 3432 
Q 1894 3584 2278 3584 
Q 2916 3584 3314 3078 
Q 3713 2572 3713 1747 
Q 3713 922 3314 415 
Q 2916 -91 2278 -91 
Q 1894 -91 1617 61 
Q 1341 213 1159 525 
z
M 3116 1747 
Q 3116 2381 2855 2742 
Q 2594 3103 2138 3103 
Q 1681 3103 1420 2742 
Q 1159 2381 1159 1747 
Q 1159 1113 1420 752 
Q 1681 391 2138 391 
Q 2594 391 2855 752 
Q 3116 1113 3116 1747 
z
" transform="scale(0.015625)"/>
       <path id="DejaVuSans-74" d="M 1172 4494 
L 1172 3500 
L 2356 3500 
L 2356 3053 
L 1172 3053 
L 1172 1153 
Q 1172 725 1289 603 
Q 1406 481 1766 481 
L 2356 481 
L 2356 0 
L 1766 0 
Q 1100 0 847 248 
Q 594 497 594 1153 
L 594 3053 
L 172 3053 
L 172 3500 
L 594 3500 
L 594 4494 
L 1172 4494 
z
" transform="scale(0.015625)"/>
       <path id="DejaVuSans-69" d="M 603 3500 
L 1178 3500 
L 1178 0 
L 603 0 
L 603 3500 
z
M 603 4863 
L 1178 4863 
L 1178 4134 
L 603 4134 
L 603 4863 
z
" transform="scale(0.015625)"/>
       <path id="DejaVuSans-20" transform="scale(0.015625)"/>
       <path id="DejaVuSans-66" d="M 2375 4863 
L 2375 4384 
L 1825 4384 
Q 1516 4384 1395 4259 
Q 1275 4134 1275 3809 
L 1275 3500 
L 2222 3500 
L 2222 3053 
L 1275 3053 
L 1275 0 
L 697 0 
L 697 3053 
L 147 3053 
L 147 3500 
L 697 3500 
L 697 3744 
Q 697 4328 969 4595 
Q 1241 4863 1831 4863 
L 2375 4863 
z
" transform="scale(0.015625)"/>
       <path id="DejaVuSans-62" d="M 3116 1747 
Q 3116 2381 2855 2742 
Q 2594 3103 2138 3103 
Q 1681 3103 1420 2742 
Q 1159 2381 1159 1747 
Q 1159 1113 1420 752 
Q 1681 391 2138 391 
Q 2594 391 2855 752 
Q 3116 1113 3116 1747 
z
M 1159 2969 
Q 1341 3281 1617 3432 
Q 1894 3584 2278 3584 
Q 2916 3584 3314 3078 
Q 3713 2572 3713 1747 
Q 3713 922 3314 415 
Q 2916 -91 2278 -91 
Q 1894 -91 1617 61 
Q 1341 213 1159 525 
L 1159 0 
L 581 0 
L 581 4863 
L 1159 4863 
L 1159 2969 
z
" transform="scale(0.015625)"/>
       <path id="DejaVuSans-6c" d="M 603 4863 
L 1178 4863 
L 1178 0 
L 603 0 
L 603 4863 
z
" transform="scale(0.015625)"/>
       <path id="DejaVuSans-57" d="M 213 4666 
L 850 4666 
L 1831 722 
L 2809 4666 
L 3519 4666 
L 4500 722 
L 5478 4666 
L 6119 4666 
L 4947 0 
L 4153 0 
L 3169 4050 
L 2175 0 
L 1381 0 
L 213 4666 
z
" transform="scale(0.015625)"/>
      </defs>
      <use xlink:href="#DejaVuSans-50"/>
      <use xlink:href="#DejaVuSans-72" x="58.552734"/>
      <use xlink:href="#DejaVuSans-6f" x="97.416016"/>
      <use xlink:href="#DejaVuSans-70" x="158.597656"/>
      <use xlink:href="#DejaVuSans-6f" x="222.074219"/>
      <use xlink:href="#DejaVuSans-72" x="283.255859"/>
      <use xlink:href="#DejaVuSans-74" x="324.369141"/>
      <use xlink:href="#DejaVuSans-69" x="363.578125"/>
      <use xlink:href="#DejaVuSans-6f" x="391.361328"/>
      <use xlink:href="#DejaVuSans-6e" x="452.542969"/>
      <use xlink:href="#DejaVuSans-20" x="515.921875"/>
      <use xlink:href="#DejaVuSans-6f" x="547.708984"/>
      <use xlink:href="#DejaVuSans-66" x="608.890625"/>
      <use xlink:href="#DejaVuSans-20" x="644.095703"/>
      <use xlink:href="#DejaVuSans-50" x="675.882812"/>
      <use xlink:href="#DejaVuSans-6f" x="732.560547"/>
      <use xlink:href="#DejaVuSans-74" x="793.742188"/>
      <use xlink:href="#DejaVuSans-61" x="832.951172"/>
      <use xlink:href="#DejaVuSans-62" x="894.230469"/>
      <use xlink:href="#DejaVuSans-6c" x="957.707031"/>
      <use xlink:href="#DejaVuSans-65" x="985.490234"/>
      <use xlink:href="#DejaVuSans-20" x="1047.013672"/>
      <use xlink:href="#DejaVuSans-57" x="1078.800781"/>
      <use xlink:href="#DejaVuSans-61" x="1171.302734"/>
      <use xlink:href="#DejaVuSans-74" x="1232.582031"/>
      <use xlink:href="#DejaVuSans-65" x="1271.791016"/>
      <use xlink:href="#DejaVuSans-72" x="1333.314453"/>
     </g>
    </g>
   </g>
   <g id="patch_3">
    <path d="M 63 448.56 
L 63 60.48 
" style="fill: none; stroke: #000000; stroke-width: 0.8; stroke-linejoin: miter; stroke-linecap: square"/>
   </g>
   <g id="patch_4">
    <path d="M 453.6 448.56 
L 453.6 60.48 
" style="fill: none; stroke: #000000; stroke-width: 0.8; stroke-linejoin: miter; stroke-linecap: square"/>
   </g>
   <g id="patch_5">
    <path d="M 63 448.56 
L 453.6 448.56 
" style="fill: none; stroke: #000000; stroke-width: 0.8; stroke-linejoin: miter; stroke-linecap: square"/>
   </g>
   <g id="patch_6">
    <path d="M 63 60.48 
L 453.6 60.48 
" style="fill: none; stroke: #000000; stroke-width: 0.8; stroke-linejoin: miter; stroke-linecap: square"/>
   </g>
   <g id="legend_1">
    <g id="patch_7">
     <path d="M 70 443.56 
L 121.1 443.56 
Q 123.1 443.56 123.1 441.56 
L 123.1 383.8475 
Q 123.1 381.8475 121.1 381.8475 
L 70 381.8475 
Q 68 381.8475 68 383.8475 
L 68 441.56 
Q 68 443.56 70 443.56 
z
" style="fill: #ffffff; opacity: 0.8; stroke: #cccccc; stroke-linejoin: miter"/>
    </g>
    <g id="line2d_13">
     <defs>
      <path id="m0657e8345f" d="M 0 5 
C 1.326016 5 2.597899 4.473168 3.535534 3.535534 
C 4.473168 2.597899 5 1.326016 5 0 
C 5 -1.326016 4.473168 -2.597899 3.535534 -3.535534 
C 2.597899 -4.473168 1.326016 -5 0 -5 
C -1.326016 -5 -2.597899 -4.473168 -3.535534 -3.535534 
C -4.473168 -2.597899 -5 -1.326016 -5 0 
C -5 1.326016 -4.473168 2.597899 -3.535534 3.535534 
C -2.597899 4.473168 -1.326016 5 0 5 
z
" style="stroke: #0000ff"/>
     </defs>
     <g>
      <use xlink:href="#m0657e8345f" x="82" y="389.945938" style="fill: #0000ff; stroke: #0000ff"/>
     </g>
    </g>
    <g id="text_15">
     <!-- $\mathdefault{100}$ -->
     <g transform="translate(100 393.445938)scale(0.1 -0.1)">
      <use xlink:href="#DejaVuSans-31" transform="translate(0 0.78125)"/>
      <use xlink:href="#DejaVuSans-30" transform="translate(63.623047 0.78125)"/>
      <use xlink:href="#DejaVuSans-30" transform="translate(127.246094 0.78125)"/>
     </g>
    </g>
    <g id="line2d_14">
     <defs>
      <path id="m0f9fe6baf0" d="M 0 7.071068 
C 1.875269 7.071068 3.673985 6.326016 5 5 
C 6.326016 3.673985 7.071068 1.875269 7.071068 0 
C 7.071068 -1.875269 6.326016 -3.673985 5 -5 
C 3.673985 -6.326016 1.875269 -7.071068 0 -7.071068 
C -1.875269 -7.071068 -3.673985 -6.326016 -5 -5 
C -6.326016 -3.673985 -7.071068 -1.875269 -7.071068 0 
C -7.071068 1.875269 -6.326016 3.673985 -5 5 
C -3.673985 6.326016 -1.875269 7.071068 0 7.071068 
z
" style="stroke: #0000ff"/>
     </defs>
     <g>
      <use xlink:href="#m0f9fe6baf0" x="82" y="404.624063" style="fill: #0000ff; stroke: #0000ff"/>
     </g>
    </g>
    <g id="text_16">
     <!-- $\mathdefault{200}$ -->
     <g transform="translate(100 408.124063)scale(0.1 -0.1)">
      <use xlink:href="#DejaVuSans-32" transform="translate(0 0.78125)"/>
      <use xlink:href="#DejaVuSans-30" transform="translate(63.623047 0.78125)"/>
      <use xlink:href="#DejaVuSans-30" transform="translate(127.246094 0.78125)"/>
     </g>
    </g>
    <g id="line2d_15">
     <defs>
      <path id="mc29cb668c8" d="M 0 8.660254 
C 2.296726 8.660254 4.499694 7.747755 6.123724 6.123724 
C 7.747755 4.499694 8.660254 2.296726 8.660254 0 
C 8.660254 -2.296726 7.747755 -4.499694 6.123724 -6.123724 
C 4.499694 -7.747755 2.296726 -8.660254 0 -8.660254 
C -2.296726 -8.660254 -4.499694 -7.747755 -6.123724 -6.123724 
C -7.747755 -4.499694 -8.660254 -2.296726 -8.660254 0 
C -8.660254 2.296726 -7.747755 4.499694 -6.123724 6.123724 
C -4.499694 7.747755 -2.296726 8.660254 0 8.660254 
z
" style="stroke: #0000ff"/>
     </defs>
     <g>
      <use xlink:href="#mc29cb668c8" x="82" y="419.302188" style="fill: #0000ff; stroke: #0000ff"/>
     </g>
    </g>
    <g id="text_17">
     <!-- $\mathdefault{300}$ -->
     <g transform="translate(100 422.802188)scale(0.1 -0.1)">
      <use xlink:href="#DejaVuSans-33" transform="translate(0 0.78125)"/>
      <use xlink:href="#DejaVuSans-30" transform="translate(63.623047 0.78125)"/>
      <use xlink:href="#DejaVuSans-30" transform="translate(127.246094 0.78125)"/>
     </g>
    </g>
    <g id="line2d_16">
     <defs>
      <path id="m3b9910bc1a" d="M 0 10 
C 2.652031 10 5.195799 8.946337 7.071068 7.071068 
C 8.946337 5.195799 10 2.652031 10 0 
C 10 -2.652031 8.946337 -5.195799 7.071068 -7.071068 
C 5.195799 -8.946337 2.652031 -10 0 -10 
C -2.652031 -10 -5.195799 -8.946337 -7.071068 -7.071068 
C -8.946337 -5.195799 -10 -2.652031 -10 0 
C -10 2.652031 -8.946337 5.195799 -7.071068 7.071068 
C -5.195799 8.946337 -2.652031 10 0 10 
z
" style="stroke: #0000ff"/>
     </defs>
     <g>
      <use xlink:href="#m3b9910bc1a" x="82" y="433.980313" style="fill: #0000ff; stroke: #0000ff"/>
     </g>
    </g>
    <g id="text_18">
     <!-- $\mathdefault{400}$ -->
     <g transform="translate(100 437.480313)scale(0.1 -0.1)">
      <use xlink:href="#DejaVuSans-34" transform="translate(0 0.78125)"/>
      <use xlink:href="#DejaVuSans-30" transform="translate(63.623047 0.78125)"/>
      <use xlink:href="#DejaVuSans-30" transform="translate(127.246094 0.78125)"/>
     </g>
    </g>
   </g>
  </g>
 </g>
 <defs>
  <clipPath id="p22ec13e924">
   <rect x="63" y="60.48" width="390.6" height="388.08"/>
  </clipPath>
 </defs>
</svg>
